<svg width="717" height="537" fill="none" xmlns="http://www.w3.org/2000/svg"><g clip-path="url(#a)"><path clip-rule="evenodd" d="M133.765 365.25c42.348 39.603 141.249 58.085 316.242 18.213 33.699-7.697 63.275-18.258 87.922-32.489 55.388-26.626 93.389-84.309 92.448-150.36-1.165-81.758-61.572-148.167-139.142-158.012-19.315-2.774-40.511-2.73-63.5.582-52.341 7.563-96.033 34.01-138.201 67.214-24.827 19.556-63.231 23.047-94.689 29.491-50.145 10.292-91.821 47.479-103.696 98.673-11.024 47.972 6.9 95.81 42.616 126.688Z" stroke="#B2B2B2" stroke-width=".945" stroke-miterlimit="10" stroke-linecap="round" stroke-linejoin="round"/><path fill-rule="evenodd" clip-rule="evenodd" d="M200.984 169.065c9.679 0 17.522 7.832 17.522 17.498s-7.843 17.497-17.522 17.497c-9.68 0-17.522-7.831-17.522-17.497s7.842-17.498 17.522-17.498Z" fill="#1053F3"/><path fill-rule="evenodd" clip-rule="evenodd" d="M184.583 192.872c-3.406-7.339-13.399-43.049-13.534-46.987-.313-8.01 6.005-14.768 14.116-15.081 8.111-.313 14.968 5.907 15.281 13.917.269 6.042 15.864 26.403 17.701 38.217 2.644 17.005-31.727 13.828-33.564 9.934Z" fill="#1053F3"/><path fill-rule="evenodd" clip-rule="evenodd" d="M200.984 169.065c9.679 0 17.522 7.832 17.522 17.498s-7.843 17.497-17.522 17.497c-9.68 0-17.522-7.831-17.522-17.497s7.842-17.498 17.522-17.498Z" fill="#1053F3"/><path fill-rule="evenodd" clip-rule="evenodd" d="M233.473 194.931c-10.665 29.311-41.9 7.563-44.275 4.654-6.229-10.024-1.747-7.697-2.42-14.007a15.21 15.21 0 0 1-.179-2.461c0-8.637 6.722-15.707 15.236-16.289 3.944-.537 12.189-1.343 18.06.313.358.09.717.179 1.031.269 10.62 3.311 16.804 15.796 12.547 27.521Z" fill="#1053F3"/><path fill-rule="evenodd" clip-rule="evenodd" d="M216.086 181.461c-6.364-.268-11.562 3.625-11.607 8.771-.044 5.102 5.109 9.487 11.472 9.756 6.364.268 11.562-3.625 11.607-8.771.045-5.102-5.064-9.487-11.472-9.756Z" fill="#1053F3"/><path d="M204.479 190.188c-.044 5.101 5.109 9.486 11.472 9.755 6.364.268 11.562-3.625 11.607-8.771" stroke="#555EC2" stroke-width=".945" stroke-miterlimit="10" stroke-linecap="round" stroke-linejoin="round"/><path fill-rule="evenodd" clip-rule="evenodd" d="M217.52 172.735c-6.364-.268-11.562 3.625-11.607 8.771-.044 5.102 5.109 9.487 11.472 9.756 6.364.268 11.562-3.625 11.607-8.771 0-5.057-5.109-9.443-11.472-9.756Z" fill="#000"/><path fill-rule="evenodd" clip-rule="evenodd" d="M227.827 182.49c-.045 4.61-4.706 8.1-10.442 7.876-5.736-.268-10.351-4.206-10.306-8.771 0-.402.044-.76.089-1.118l-1.165-20.764 15.012-6.444 6.319 26.671c.314.76.493 1.655.493 2.55Z" fill="#DE7C62"/><path fill-rule="evenodd" clip-rule="evenodd" d="M217.609 165.441c-3.136 3.58-7.394 5.37-10.979 4.922l-.582-10.695 14.833-6.399c1.165 3.58.045 8.368-3.272 12.172Z" fill="#000"/><path fill-rule="evenodd" clip-rule="evenodd" d="M212.232 149.286s-12.368 10.472-4.033 13.649c5.96 2.282 17.656-6.265 18.597-16.379.717-8.502-14.564 2.73-14.564 2.73Z" fill="#DE7C62"/><path fill-rule="evenodd" clip-rule="evenodd" d="M218.864 156.714c-6.587 4.207-10.934 3.983-13.578 2.775 0-1.343.627-2.819 1.569-4.251 7.842-1.79 21.285-4.431 12.009 1.476Z" fill="#000"/><path fill-rule="evenodd" clip-rule="evenodd" d="m214.293 117.782 14.027-.224c.717 0 1.12.537.896 1.164l-10.979 36.874c-.179.671-.941 1.208-1.613 1.208l-14.027.224c-.717 0-1.12-.537-.896-1.164l11.024-36.829c.134-.671.896-1.253 1.568-1.253Z" fill="#000"/><path fill-rule="evenodd" clip-rule="evenodd" d="M208.871 153.627c-5.064.671-5.288-3.759-3.092-4.386-3.316-.358-3.719-3.804.762-5.459 6.184-2.283 13.668-2.506 13.668-2.506l-.538-1.567s-2.689 1.074-4.392 1.656c-3.898 1.253-6.005-2.909.941-6.891 3.944-2.238 7.036-3.043 9.008.447 2.061 3.67 5.063 10.874-2.465 20.138-1.927 6.309-10.665 3.311-12.279 2.237-2.285-1.521-2.151-2.64-1.613-3.669Z" fill="#DE7C62"/><path fill-rule="evenodd" clip-rule="evenodd" d="M225.945 129.775s.896 2.461 1.165 4.341c.851 5.817.269 10.785.224 11.501l-3.496-8.906 2.107-6.936Z" fill="#DE7C62"/><path d="M205.107 149.331s12.144-3.536 19.717-1.209M208.916 153.806c3.45-.314 9.769-.627 13.578 1.118M215.503 141.41c-.134 0 8.335-.984 10.935 1.611M215.772 141.32l6.901-2.685" stroke="#000" stroke-width=".945" stroke-miterlimit="10" stroke-linecap="round" stroke-linejoin="round"/><path fill-rule="evenodd" clip-rule="evenodd" d="M195.203 156.446c.269.358.538.716.807 1.029 2.106 2.819 2.913 6.399 2.106 9.8-.762 3.088-2.42 7.116-6.05 11.77 2.689 7.025 5.602 20.585-2.554 26.089-3.137 2.103-38.628 4.475-50.593 1.835-7.125-1.567-7.574-6.847-3.899-14.678 1.972-4.162-5.064-28.059-8.156-38.083a12.56 12.56 0 0 1-6.677-11.142c0-6.981 5.646-12.62 12.637-12.62.538 0 1.031.045 1.524.09 23.84 0 41.72.581 50.817.223 8.111-.313 14.968 5.907 15.281 13.918.18 4.743-1.882 8.994-5.243 11.769Z" fill="#1053F3"/><path d="M176.023 151.3c1.076 3.043 1.883 5.862 2.107 7.831.672 6.041-.448 18.437-2.958 41.841M189.512 205.179c8.111-5.505 5.198-19.064 2.554-26.09 3.585-4.698 5.288-8.726 6.05-11.769.851-3.401 0-6.981-2.106-9.8-1.972-2.64-5.333-7.115-10.621-14.052" stroke="#555EC2" stroke-width=".945" stroke-miterlimit="10" stroke-linecap="round" stroke-linejoin="round"/><path fill-rule="evenodd" clip-rule="evenodd" d="M143.445 149.957c-5.781 12.083-11.607 20.361-12.144 39.067-.314 11.366 5.78 14.096 1.389 26.402-4.93 13.828-39.66 13.649-38.36-7.294 1.39-22.42 22.451-61.844 27.022-70.078 1.972-4.386 6.408-7.474 11.517-7.474 6.991 0 12.637 5.639 12.637 12.62a13.03 13.03 0 0 1-2.061 6.757Z" fill="#1053F3"/><path d="M139.725 157.878c-7.17 14.409-8.469 20.182-8.693 30.385" stroke="#555EC2" stroke-width=".945" stroke-miterlimit="10" stroke-linecap="round" stroke-linejoin="round"/><path fill-rule="evenodd" clip-rule="evenodd" d="M99.394 231.134s.045.402.045.626c0 1.656 5.781 2.998 12.906 2.998 7.125 0 12.906-1.342 12.906-2.998 0-.134 2.285-13.514 2.285-13.514h-.044v-.09c0-1.656-5.781-2.998-12.906-2.998-7.126 0-12.906 1.342-12.906 2.998 0 .09.044.179.044.269l-2.33 12.709Z" fill="#1053F3"/><path d="M127.492 218.29h-.045v-.089c0-1.656-5.781-2.998-12.906-2.998-7.125 0-12.906 1.342-12.906 2.998 0 .089.045.179.045.268" stroke="#555EC2" stroke-width=".945" stroke-miterlimit="10" stroke-linecap="round" stroke-linejoin="round"/><path fill-rule="evenodd" clip-rule="evenodd" d="M112.3 229.388c6.453 0 11.741 1.253 11.741 2.775 0 1.521-5.243 2.774-11.741 2.774-6.453 0-11.741-1.253-11.741-2.774 0-1.522 5.243-2.775 11.741-2.775Z" fill="#000"/><path fill-rule="evenodd" clip-rule="evenodd" d="M108.312 269.708c-2.958 2.148-10.845 5.639-15.64 8.682l-1.613 1.253c-.896.716-2.151.626-2.778-.224-.583-.761-.449-1.924.313-2.64 0 0 4.66-3.625 7.887-9.219l-11.427-.089-.359.134c-.09.045-.179.089-.313.134-.18.09-.404.224-.583.313a6.099 6.099 0 0 0-1.03.851c-.314.313-.583.716-.807 1.118l-.09.179-.134.224-.224.492-.493.94-5.422 12.217c-.583 1.119-1.927 1.656-3.048 1.208-1.03-.447-1.434-1.611-1.03-2.685l4.57-12.53.359-.984.18-.493.089-.268.134-.313c.359-.895.852-1.701 1.434-2.506a15.077 15.077 0 0 1 2.017-2.148c.403-.314.762-.627 1.21-.895.224-.135.403-.269.627-.403l.583-.313 21.42-11.501c.045-.045.045-.09.045-.09-.359 0 6.184-2.506 6.319-2.64 12.233 11.725-2.196 22.151-2.196 22.196Z" fill="#DE7C62"/><path fill-rule="evenodd" clip-rule="evenodd" d="m121.666 232.566-6.408 27.745H98.901l3.451-27.701v-.044c0-1.253 4.302-2.238 9.634-2.238 5.378 0 9.68.985 9.68 2.238Z" fill="#DE7C62"/><path d="m67.04 277.808 7.842-10.785.627-.85.314-.403.179-.224.224-.268c.582-.761 1.3-1.432 2.061-2.014a11.905 11.905 0 0 1 2.555-1.477c.448-.179.896-.358 1.389-.537.224-.089.493-.134.717-.179l.672-.134 24.557-5.415c4.213-.939 5.199 8.503-3.002 13.202l-20.928-1.746-.403.045c-.09 0-.224.045-.314.045-.224.045-.448.089-.627.134a7.517 7.517 0 0 0-1.255.537 3.928 3.928 0 0 0-1.075.85l-.135.135-.179.179-.358.402-.717.761-8.56 10.293c-.851.939-2.33 1.074-3.226.313-.941-.716-1.03-1.969-.359-2.864Z" fill="#DE7C62"/><path d="M97.826 267.65c-5.781-.045-12.861-.135-12.861-.135l-.359.135c-.09.044-.18.089-.314.134-.179.089-.403.224-.582.313a6.14 6.14 0 0 0-1.03.85c-.315.314-.583.716-.808 1.119l-.09.179-.133.224-.225.492-.493.94-5.422 12.217c-.582 1.118-1.927 1.655-3.047 1.208-1.03-.448-1.434-1.611-1.03-2.685l4.57-12.53.359-.985.179-.492.09-.268.134-.314c.358-.895.851-1.7 1.434-2.506a15.186 15.186 0 0 1 2.017-2.148c.403-.313.761-.626 1.21-.895.224-.134.403-.268.627-.402l.582-.314" stroke="#000" stroke-width=".945" stroke-miterlimit="10" stroke-linecap="round" stroke-linejoin="round"/><path fill-rule="evenodd" clip-rule="evenodd" d="M161.818 123.868c8.245 1.029 14.833 3.625 14.654 5.862-.135 2.238-6.946 3.222-15.237 2.238-8.245-1.03-14.833-3.625-14.653-5.863.134-2.282 6.99-3.266 15.236-2.237Z" fill="#000"/><path d="M152.273 96.168c-1.076.716-1.389 2.148-.762 3.132.627.985 2.061 1.208 3.092.493" stroke="#000" stroke-width=".945" stroke-miterlimit="10" stroke-linecap="round" stroke-linejoin="round"/><path fill-rule="evenodd" clip-rule="evenodd" d="M180.415 100.329c3.137-10.337-11.113-2.864-16.67 1.567-5.557 4.43-4.616 14.857 2.106 23.314 6.722 8.458 26.26 15.887 27.963 8.995 4.481-18.661-17.701-19.914-13.399-33.876Z" fill="#FFB750"/><path fill-rule="evenodd" clip-rule="evenodd" d="m176.158 112.278-1.838 16.423c.045.134.045.224.045.358-.134 1.879-5.825 2.64-12.771 1.7-6.901-.939-12.413-3.222-12.279-5.101 0-.179.09-.358.224-.537l7.215-23.897 19.404 11.054Z" fill="#DE7C62"/><path fill-rule="evenodd" clip-rule="evenodd" d="M175.127 122.839c-14.698-4.61-15.102-18.795-15.102-18.795l16.133 7.965-1.031 10.83Z" fill="#000"/><path fill-rule="evenodd" clip-rule="evenodd" d="M155.903 102.925c-31.997 8.637-1.479-32.22 8.648-33.115 0 0 15.102.179 19.18 9.308.896 3.267.717 5.19 1.882 10.337 1.838 7.787.762 21.883-8.469 24.792-5.378 1.655-15.147.581-21.241-11.322Z" fill="#DE7C62"/><path d="M169.346 100.508s3.944 5.281 9.411 2.864" stroke="#BD4040" stroke-width=".945" stroke-miterlimit="10" stroke-linecap="round" stroke-linejoin="round"/><path fill-rule="evenodd" clip-rule="evenodd" d="M170.87 102.03s1.21-1.656 3.675-1.298c1.523.224 1.882 1.208 1.882 1.208s2.42-1.387 2.733 1.432c-1.568 1.567-6.677.672-8.29-1.342Z" fill="#BD4040"/><path d="M177.502 84.89s2.734-2.147 6.857-.357M180.415 88.426l2.151-1.343M167.195 88.65l2.42-1.12M163.386 86.412c1.3-1.074 5.064-3.4 9.366-1.387M176.158 87.71s-.672 3.267 2.241 5.728c2.868 2.416 1.747 6.22-2.241 5.683M155.365 97.555l-5.064-2.596" stroke="#000" stroke-width=".945" stroke-miterlimit="10" stroke-linecap="round" stroke-linejoin="round"/><path fill-rule="evenodd" clip-rule="evenodd" d="M167.016 88.515c.672-.134 1.3.716 1.434 1.835.09 1.119-.358 2.148-1.031 2.238-.672.134-1.299-.716-1.434-1.835-.089-1.119.359-2.103 1.031-2.238ZM180.684 87.889c.672-.134 1.299.716 1.434 1.835.09 1.118-.359 2.148-1.031 2.237-.672.135-1.299-.716-1.434-1.835-.134-1.074.359-2.103 1.031-2.237Z" fill="#000"/><path fill-rule="evenodd" clip-rule="evenodd" d="M129.239 131.028h12.906c9.725 4.699 9.859 18.929 3.854 22.599h24.288c4.437-7.25 4.527-13.023 2.51-17.542 5.736 5.504 6.095 11.232-1.344 17.452 34.326-10.069 2.868-26-15.954-30.609-2.464-.85-4.167-1.253-4.167-1.253s10.755-8.547 4.436-19.377c-2.33 1.522-5.467-.089-6.363-1.208-2.106-2.595-2.017-6.668.403-8.234 2.42-1.566 5.243-.179 6.901 1.477-.044-.045-.044-.045 0 0 .09.09.269.268.314.358-2.017-8.413 13.847-13.201 11.562-21.256 0 0 9.321-1.209 14.967 5.37.045-2.954-2.778-10.114-14.699-12.351-13.891-2.596-26.932 5.101-26.304 19.376-.09 1.03.224 2.283-.673 4.073-2.554 5.28-38.897 28.55-12.637 41.125Zm42.079 22.599.09-.09c-.045.045-.09.045-.135.09h.045Z" fill="#FFB750"/><path fill-rule="evenodd" clip-rule="evenodd" d="M147.478 475.961c9.411 1.119 20.927-.984 23.527-2.372 1.568-.805 3.898-1.655 4.346-5.728.135-1.118 2.42-2.908 3.451-3.624 1.748-1.209-1.031-16.603-4.885-20.496-3.002-.537-10.665 12.888-15.639 16.065-12.458 2.999-14.564 7.16-14.564 7.16-1.524 2.462-1.658 8.369 3.764 8.995Z" fill="#000"/><path fill-rule="evenodd" clip-rule="evenodd" d="M147.478 473.186c9.411 1.119 20.927-.984 23.527-2.371 1.568-.806 3.898-1.656 4.346-5.728.135-1.119 2.42-2.909 3.451-3.625 1.748-1.208-1.031-16.602-4.885-20.496-3.002-.537-10.665 12.888-15.639 16.066-12.458 2.998-14.564 7.16-14.564 7.16-1.524 2.461-1.658 8.368 3.764 8.994Z" fill="#1053F3"/><path fill-rule="evenodd" clip-rule="evenodd" d="M237.865 476.409c-10.935.179-14.43-1.253-18.732-3.267-4.75-2.193-1.882-7.071-6.318-7.966-4.527-.895-5.019-2.416-5.019-2.416-1.076-4.833 1.568-4.251 4.436-7.652 25.095 16.065 26.753 3.759 28.053 7.697 0 0 12.906 1.253 17.969 7.473.852 1.029.404 2.282.09 3.401 1.344-.134-5.333 2.461-20.479 2.73Z" fill="#000"/><path fill-rule="evenodd" clip-rule="evenodd" d="M237.865 473.41c-10.934.179-14.43-1.253-18.732-3.266-4.75-2.193-1.882-7.071-6.318-7.966-4.526-.895-5.019-2.416-5.019-2.416-1.076-4.833.313-11.77 3.226-15.126 25.095 16.065 28.008 11.277 29.263 15.215 0 0 14.967 1.432 18.104 10.83 1.3-.09-5.378 2.461-20.524 2.729Z" fill="#1053F3"/><path fill-rule="evenodd" clip-rule="evenodd" d="M166.344 311.505c-.717 15.349 2.734 13.022 4.661 33.07 1.837 19.198 3.495 65.962 3.674 92.185-.358 1.924.448 5.773.448 5.773s-2.823 3.624-2.957 5.549c-.941 13.469-2.465 15.528-24.961 13.604 3.899-4.52 11.203-19.645 9.456-28.998-8.067-72.137-11.338-82.833-11.248-103.641.089-24.434-10.845-51.91-14.699-72.943-4.302-23.225 14.833-47.837 14.026-41.886 9.366-1.074.18 21.525 7.215 21.928.807.089 15.819-.895 15.819-.895s1.344 16.02-1.434 76.254Z" fill="#DE7C62"/><path fill-rule="evenodd" clip-rule="evenodd" d="M224.197 458.553c-7.125-11.59-10.979-11.814-13.668-12.485-4.795-27.163-12.234-71.868-15.908-90.037-3.989-19.735 1.03-22.643-4.213-37.545-20.524-58.488-22.047-75.628-22.047-75.628s11.292-9.889 12.054-10.024c6.901-1.029.986-13.738 10.665-13.469-1.971-4.475 13.713 10.471 17.567 42.378 8.111 67.035 22.137 176.628 22.137 176.628s3.585 8.413 8.784 14.275c2.912 3.267 5.646 7.25 8.021 9.174-13.892 3.625-20.927.671-23.392-3.267Z" fill="#DE7C62"/><path fill-rule="evenodd" clip-rule="evenodd" d="M174.231 413.58c-8.38.313-15.908-2.73-20.345-5.012-.448-3.804-.896-7.339-1.299-10.696 6.587-2.327 18.955-.358 18.955-.358s.986.985 2.286 2.462c.179 4.609.313 9.173.403 13.604Z" fill="#000"/><path fill-rule="evenodd" clip-rule="evenodd" d="M229.53 403.377c-.135 1.253-7.753 2.282-17.208 2.282-9.501 0-17.208-1.029-17.208-2.327h-.045l-24.737-142.439 7.394 142.573h-.224c-.448 1.208-7.976 2.193-17.163 2.193-9.5 0-17.208-1.029-17.208-2.327-.896-7.652-4.884-48.688-6.094-58.936-4.437-37.008-10.128-84.264-10.128-84.264s-.986-10.248.493-18.75a72.297 72.297 0 0 1 2.196-9.04c1.21-6.265 5.781-13.559 9.052-17.9v-12.933c0-2.237 11.382-3.266 25.453-2.371 14.072.939 25.454 3.49 25.454 5.683 0 .134-.045.224-.09.358l.941 11.232c16.491 8.547 20.435 32.175 20.48 32.22l18.776 154.701-.134.045Z" fill="#555EC2"/><path d="m176.516 254.717 26.843 145.751M186.823 215.606s5.602 15.573 20.166 21.614M169.526 200.212v11.769l1.165 40.901s11.741-5.101 8.066-22.688c-3.137-14.902-2.33-17.05-2.33-17.05M154.513 211.399s0 20.854-20.344 27.432" stroke="#3E48B3" stroke-width=".945" stroke-miterlimit="10" stroke-linecap="round" stroke-linejoin="round"/><path d="M145.596 199.406v12.127c-3.271 4.341-7.887 11.635-9.052 17.9a70.238 70.238 0 0 0-2.196 9.04c-1.434 8.502-.493 18.75-.493 18.75s5.691 47.256 10.128 84.264c1.389 11.725 5.601 55.893 6.542 63.769" stroke="#3E48B3" stroke-width=".945" stroke-miterlimit="10" stroke-linecap="round" stroke-linejoin="round"/><path d="M138.426 214.174v-.045c0-2.283 11.696-3.356 26.125-2.417 14.43.94 26.126 3.58 26.126 5.863" stroke="#3E48B3" stroke-width=".945" stroke-miterlimit="10" stroke-linecap="round" stroke-linejoin="round"/><path fill-rule="evenodd" clip-rule="evenodd" d="m170.556 253.33 7.305-.269s.538 3.67-1.031 8.771c-1.389 4.52-4.795 8.682-4.795 8.682l-1.658-9.621.179-7.563Z" fill="#000"/><path fill-rule="evenodd" clip-rule="evenodd" d="M616.575 430.629h-23.078l3.943 20.898h23.078l-3.943-20.898ZM516.419 418.77l22.72-.044-.627 29.266-24.826-1.298 2.733-27.924Z" fill="#D8D1D1"/><path fill-rule="evenodd" clip-rule="evenodd" d="M543.396 466.742s-5.646.94-10.844 1.253c-4.437.269-4.347 5.684-11.786 8.503-5.512 2.058-14.161 2.103-24.781.626-10.038-1.387-13.713-3.401-14.385-4.206h-.09v-.134c-.045-.09-.045-.179 0-.224l-.134-4.833h3.316c1.031-.537 2.42-.85 4.302-.806 8.29-.805 22.809-17.273 24.96-27.297 2.196-1.566 6.812 1.074 11.024 3.177 4.526 6.444 9.456 2.551 9.456 2.551s1.882-2.417 4.257-4.475c4.84 6.623 5.915 23.941 4.705 25.865ZM638.309 471.307l-.089 4.162h-.09v.089c-3.316 1.343-6.453 2.551-19.001 3.043-10.396.448-17.073-1.118-20.837-3.535-4.168-2.64-.762-8.323-4.975-9.039-2.554-.448-3.136-2.193-3.136-2.193.582-8.413 1.478-18.482 4.75-22.375 0 2.819 2.195 5.146 2.195 5.146s1.076 1.029 4.93-5.549c4.974-2.148 10.486-2.506 15.684.09 3.944 14.857 10.262 22.822 15.505 28.237 1.3 0 2.286.805 3.048 1.879h2.016v.045Z" fill="#000"/><path fill-rule="evenodd" clip-rule="evenodd" d="M543.262 462.223s-5.647.939-10.845 1.253c-4.436.268-4.347 5.683-11.786 8.502-5.511 2.059-14.16 2.103-24.781.627-12.861-1.79-15.281-4.565-14.295-4.61 0 0-.09-5.772 7.349-5.593 8.291-.806 22.944-16.782 25.095-26.806 2.196-1.566 9.68.627 10.89 2.685 4.526 6.444 8.783 4.654 8.783 4.654s4.571-1.074 5.064-6.533c4.884 6.623 5.736 23.896 4.526 25.821ZM590.315 459.672s.538 1.745 3.137 2.193c4.212.716.806 6.399 4.974 9.039 3.764 2.417 10.441 3.983 20.838 3.535 12.547-.537 15.684-1.7 19-3.043 0 0-1.344-6.13-4.884-6.13-5.199-5.415-11.562-13.381-15.505-28.238-3.361-2.506-10.711-2.282-15.685-.089-3.809 6.578-4.974 5.191-4.974 5.191s-2.196-1.835-2.465-4.654c-2.554 5.325-3.809 13.783-4.436 22.196Z" fill="#555EC2"/><path fill-rule="evenodd" clip-rule="evenodd" d="M617.471 433.046v.134c-.089 1.163-7.483 2.103-16.401 2.103-8.47 0-15.326-.85-15.864-1.924h-.045s-12.457-15.976-14.16-47.167c-3.765-69.407-31.414-140.067-31.414-140.067s-2.689-17.9 43.782-7.071l34.102 193.857v.135Z" fill="#1053F3"/><path fill-rule="evenodd" clip-rule="evenodd" d="M545.009 229.746c-21.375 0-38.628 3.759-38.493 8.413.134 4.654 17.566 8.413 38.942 8.413 21.375 0 38.628-3.759 38.494-8.413-.09-4.654-17.522-8.413-38.943-8.413Z" fill="#1053F3"/><path fill-rule="evenodd" clip-rule="evenodd" d="M582.831 210.996s-11.024-7.026-28.59-7.294c-35.133-.492-50.145 7.115-50.145 7.115l.761 27.253 78.557-6.713-.583-20.361Z" fill="#1053F3"/><path fill-rule="evenodd" clip-rule="evenodd" d="M544.337 382.881c4.616 32.802-1.837 50.344-2.151 51.149-.269.94-6.856 1.656-15.057 1.656-8.066 0-14.698-.716-15.146-1.656h-.045l-7.484-204.105s10.352-2.237 19.718 0c10.889 2.596 20.3 14.723 20.3 14.723s-7.663 84.801-.135 138.233Z" fill="#1053F3"/><path d="M514.448 218.111s-.493 14.007-9.142 23.807M558.857 215.919s.268 19.824 18.462 26.357M617.382 432.374l-41.631-200.882c.224-3.804 1.031-13.157 1.031-13.157M535.106 247.825s-3.137 81.49 2.016 140.515c2.331 26.403-1.971 46.63-1.971 46.63" stroke="#555EC2" stroke-width=".945" stroke-miterlimit="10" stroke-linecap="round" stroke-linejoin="round"/><path fill-rule="evenodd" clip-rule="evenodd" d="m543.262 261.609.313-4.61-3.136-10.426-12.279-2.283c-.045 0 2.42 13.918 15.102 17.319Z" fill="#000"/><path fill-rule="evenodd" clip-rule="evenodd" d="M502.662 160.921c-.09 35.173-9.769 51.641 1.12 61.531-.179 6.176-.448 15.707-.448 15.707s0 .716.493 1.298c.582.627 1.075.895 1.075.895s-.313-2.595-.044-2.64c2.823-.627 11.427-1.656 38.449-1.208 20.434.313 32.22 2.282 40.152 3.177.358 1.745.448 2.282.448 2.282s3.45-.671 3.63-1.969c0 0 .179-11.68.134-15.081 8.694-5.414 9.142-20.54-.179-61.62 6.811-3.58 11.517-10.919 11.517-19.332 0-11.77-9.052-21.301-20.345-21.704H577.768l-64.934.134c-10.352 1.343-18.239 10.651-18.239 21.659 0 6.623 3.406 12.888 8.067 16.871Z" fill="#783140"/><path d="M503.603 222.363c10.845-2.193 55.478-5.594 84.023 2.461M526.502 134.429l13.354 11.814 16.222-12.262" stroke="#571F2B" stroke-width=".945" stroke-miterlimit="10" stroke-linecap="round" stroke-linejoin="round"/><path fill-rule="evenodd" clip-rule="evenodd" d="M531.342 154.701c-6.857 10.516-24.513 29.221-39.166 37.455-3.137 4.52-8.335 7.474-14.251 7.474-9.545 0-17.297-7.742-17.297-17.229 0-6.757 3.898-12.575 9.545-15.394.134-.09.224-.134.358-.224 15.461-7.16 23.616-26.179 25.05-29.803 2.51-8.324 10.218-14.365 19.359-14.365 11.159 0 20.256 9.039 20.256 20.182 0 4.475-1.434 8.547-3.854 11.904Z" fill="#783140"/><path d="m496.254 185.175 11.292-41.751" stroke="#571F2B" stroke-width=".945" stroke-miterlimit="10" stroke-linecap="round" stroke-linejoin="round"/><path fill-rule="evenodd" clip-rule="evenodd" d="M637.727 188.353c0 10.471-8.515 18.929-18.956 18.929-6.139 0-11.607-2.909-15.102-7.473l-27.829-34.368c-10.62-1.119-18.91-10.338-18.91-21.615 0-11.993 9.41-21.703 21.062-21.703 6.766 0 12.726 3.266 16.58 8.368l.09-.09 38.942 45.959-.045.044c2.554 3.312 4.168 7.429 4.168 11.949Z" fill="#783140"/><path d="m570.015 157.833 27.739 37.187" stroke="#571F2B" stroke-width=".945" stroke-miterlimit="10" stroke-linecap="round" stroke-linejoin="round"/><path fill-rule="evenodd" clip-rule="evenodd" d="M637.727 188.353c0 10.471-8.515 18.929-18.956 18.929-1.703 0-3.361-.224-4.929-.671l-30.966-5.102 3.227-28.371s6.363.671 10.62 1.163c6.05-12.843 25.767-5.37 27.918-4.027 7.529 2.461 13.086 9.621 13.086 18.079Z" fill="#783140"/><path fill-rule="evenodd" clip-rule="evenodd" d="M587.806 173.854c-3.406-2.238-7.619 1.924-9.366 9.352-1.748 7.384-.404 15.439 3.002 17.677 3.406 2.237 7.618-2.148 9.366-9.532 1.792-7.429.403-15.26-3.002-17.497Z" fill="#000"/><path fill-rule="evenodd" clip-rule="evenodd" d="M587.133 175.107c-3.047-2.014-6.811 1.745-8.38 8.368-1.568 6.623-.358 13.828 2.689 15.841 3.047 2.014 6.812-1.924 8.38-8.547 1.613-6.668.403-13.693-2.689-15.662Z" fill="#657DEA"/><path fill-rule="evenodd" clip-rule="evenodd" d="m577.768 173.854 7.931.805-2.554 25.373-8.828-.85 3.451-25.328Z" fill="#657DEA"/><path fill-rule="evenodd" clip-rule="evenodd" d="M578.843 174.212c-3.047-2.014-6.811 1.745-8.38 8.368-1.568 6.623-.358 13.828 2.689 15.841 3.047 2.014 6.811-1.924 8.38-8.547 1.568-6.668.358-13.693-2.689-15.662Z" fill="#000"/><path fill-rule="evenodd" clip-rule="evenodd" d="M577.902 175.062c-2.554-1.701-5.736 1.477-7.036 7.026-1.299 5.593-.313 11.635 2.241 13.29 2.554 1.701 5.736-1.611 7.036-7.204 1.344-5.549.313-11.456-2.241-13.112ZM550.611 171.84l4.616 9.576-4.616-9.576Z" fill="#E99670"/><path fill-rule="evenodd" clip-rule="evenodd" d="M558.453 190.769c-5.512-3.043-7.349-8.055-11.651-12.172l-1.658-1.298c-.941-.716-1.165-2.013-.538-2.953.628-.85 1.793-1.029 2.689-.492 0 0 4.661 3.311 11.024 4.922 10.217-1.879 21.241 21.212.134 11.993Z" fill="#E99670"/><path d="m540.08 156.133 12.458 3.803.986.314.493.179.224.089.314.134c.896.314 1.702.761 2.509 1.298a12.49 12.49 0 0 1 2.196 1.88c.314.358.627.716.941 1.118.134.179.269.403.403.582l.359.582 12.727 20.943c2.195 3.625-6.229 7.473-13.175 1.387l-4.975-19.869-.179-.358-.134-.268a3.722 3.722 0 0 0-.359-.537 6.119 6.119 0 0 0-.896-.985c-.358-.268-.717-.537-1.12-.761l-.179-.089-.225-.09-.493-.223-.941-.403-12.233-4.654c-1.121-.492-1.748-1.79-1.345-2.909.448-1.029 1.569-1.521 2.644-1.163Z" fill="#E99670"/><path fill-rule="evenodd" clip-rule="evenodd" d="m559.798 180.924-3.675-10.203-.269-.268-.224-.224a4.743 4.743 0 0 0-.493-.403c-.358-.268-.717-.492-1.12-.626-.403-.179-.807-.314-1.255-.358l-.179-.045-.269-.045-.493-.045-.986-.134-12.547-1.835c-1.21-.134-2.107-1.163-2.062-2.327.045-1.029.941-1.79 2.062-1.79l12.547.985H552.897c.896.045 1.792.224 2.688.492.897.269 1.748.627 2.555 1.119.403.224.806.492 1.165.761.179.134.358.268.538.447l.492.403 9.008 10.606c3.854 7.965-.941 7.025-9.545 3.49Z" fill="#E99670"/><path d="m540.08 156.133 12.458 3.803.986.314.493.179.224.089.314.134c.896.314 1.702.761 2.509 1.298a12.49 12.49 0 0 1 2.196 1.88c.314.358.627.716.941 1.118.134.179.269.403.403.582l.359.582 12.727 20.943c2.195 3.625-6.229 7.473-13.175 1.387l-4.975-19.869-.179-.358-.134-.268a3.722 3.722 0 0 0-.359-.537 6.119 6.119 0 0 0-.896-.985c-.358-.268-.717-.537-1.12-.761l-.179-.089-.225-.09-.493-.223-.941-.403-12.233-4.654c-1.121-.492-1.748-1.79-1.345-2.909.448-1.029 1.569-1.521 2.644-1.163Z" fill="#E99670"/><path fill-rule="evenodd" clip-rule="evenodd" d="m564.503 181.372-5.826-9.129-.313-.224c-.09-.045-.18-.134-.269-.179-.179-.09-.359-.224-.538-.269a6.359 6.359 0 0 0-1.21-.402 4.126 4.126 0 0 0-1.299-.09h-.18l-.269.045-.492.045-.986.089-9.187.985c-1.21.134-2.33-.672-2.509-1.79-.18-1.03.537-1.969 1.613-2.193l9.007-1.835.986-.224.493-.089.224-.045.314-.045a13.822 13.822 0 0 1 2.733-.134c.941.045 1.838.224 2.734.492.448.135.896.314 1.299.493.224.089.449.179.628.313l.582.313 6.901 13.157c5.378 6.936 4.751 2.282-4.436.716Z" fill="#E99670"/><path fill-rule="evenodd" clip-rule="evenodd" d="m548.863 168.305 12.638-.314v15.752l-4.571 1.209-8.067-16.647ZM576.692 174.614l-10.934.627-2.062 17.497 10.487 3.043c4.257-4.385 5.063-13.783 2.509-21.167Z" fill="#E99670"/><path d="M561.187 189.158s-1.972-1.835-2.286-5.191c-1.21-11.814-.761-12.485-3.047-12.843.179.045-2.778.134-2.778.134l-9.187.985c-1.21.134-2.33-.672-2.509-1.79-.18-1.03.537-1.969 1.613-2.193l9.007-1.835s5.423-1.566 7.842.179c3.003 2.193 7.529 8.413 7.529 8.413" stroke="#000" stroke-width=".945" stroke-miterlimit="10" stroke-linecap="round" stroke-linejoin="round"/><path d="M545.727 167.812c-3.451-.492-7.35-1.074-7.35-1.074-1.21-.134-2.106-1.163-2.061-2.327.045-1.029.941-1.79 2.061-1.79l12.548.985H552.986c.896.045 1.793.224 2.689.492.896.269 1.748.627 2.554 1.119.404.224.807.492 1.165.761.18.134.359.268.538.447" stroke="#000" stroke-width=".945" stroke-miterlimit="10" stroke-linecap="round" stroke-linejoin="round"/><path d="M588.433 201.778c3.719 2.282 8.245-2.193 10.172-9.801 1.883-7.607.807-15.394-2.912-17.676M586.058 173.138s6.363.671 10.62 1.163c6.05-12.843 25.767-5.37 27.918-4.027" stroke="#571F2B" stroke-width=".945" stroke-miterlimit="10" stroke-linecap="round" stroke-linejoin="round"/><path fill-rule="evenodd" clip-rule="evenodd" d="M557.96 112.725c3.361 2.64-3.719 11.188-11.83 12.843-8.694 1.746-16.222-1.029-15.774-5.235.762-6.355 18.373-14.857 27.604-7.608Z" fill="#000"/><path fill-rule="evenodd" clip-rule="evenodd" d="m557.243 122.257-.313-27.566-20.838.358-4.571 29.624s-.09.403-.09.627c-.045 1.253 2.51 2.103 6.319 2.327l1.927 11.859 2.913-11.904c.537-.045 1.12-.089 1.702-.134 7.126-.716 12.996-2.864 13.041-4.788 0-.135 0-.269-.09-.403Z" fill="#E99670"/><path fill-rule="evenodd" clip-rule="evenodd" d="M557.109 111.83c2.106 1.566 3.271 7.608-10.755 13.201-1.882.224-3.002 1.835-4.123 5.191l-2.509 8.771-1.569-8.771s-.358-1.655-.851-2.595c-.672-1.253-1.479-1.88-1.479-1.88s-4.526-2.416-4.974-4.027c-.852-2.998 1.12-4.699 2.24-5.639l.135-.939c-1.21.581-3.092 2.013-4.347 5.101-3.226 5.594-2.778 14.32-2.778 14.32l5.108-2.282 8.515 7.607 10.71-7.92s2.599.939 6.274 2.371c3.405-2.953 6.856-7.741 7.618-12.172l-5.96-9.576-1.21-.806-.045.045Z" fill="#657DEA"/><path d="M557.288 112.054c.717.671 1.12 1.477 1.12 2.506 0 3.714-5.332 8.592-12.009 10.427-1.479.402-2.689 1.387-3.316 2.774-1.121 2.372-2.51 6.489-3.317 11.769-.761-5.549-1.344-13.067-5.019-14.588-.672-.269-1.344-.582-1.882-1.074-1.03-.94-1.792-2.148-1.792-3.312" stroke="#000" stroke-width=".945" stroke-miterlimit="10" stroke-linecap="round" stroke-linejoin="round"/><path fill-rule="evenodd" clip-rule="evenodd" d="m526.054 134.563 12.413-2.953s-.941-4.207-2.061-5.952c-1.121-1.701-6.229 1.342-10.352 8.905ZM556.616 134.339l-15.147-2.013c.135-.09.583-5.684 3.675-7.116 1.837-.85 8.873 3.938 11.472 9.129ZM532.103 121.093c18.777-6.444 18.239-20.764 18.239-20.764l-15.595 3.401-2.644 17.363Z" fill="#000"/><path fill-rule="evenodd" clip-rule="evenodd" d="M531.342 108.832a9.234 9.234 0 0 0 4.526 2.372c1.703.358 3.45.313 5.108-.224 4.661-1.522 11.204-5.191 14.654-14.275 6.677 2.058 11.517-8.01 7.484-10.74-2.51-1.656-5.915.134-7.663 2.013-.09.09-.269.314-.314.403.045-5.46 6.229-11.232 3.092-14.32-16.58-16.289-28.097-3.848-30.562-1.477-.941 3.536-1.255 7.295-2.196 12.844-2.016 11.545 1.793 19.6 5.871 23.404Zm24.064-20.854c.045-.044.045-.044 0 0Z" fill="#E99670"/><path d="M534.165 97.779s4.616.716 7.618-2.462M533.179 78c-2.509-.806-5.96.133-6.677 1.073M548.415 79.431c-1.702-1.253-5.153-2.506-8.962-1.432M534.837 82.787s.045 2.328-1.972 6.176c-1.837 3.49.404 5.236 4.392 4.117" stroke="#000" stroke-width=".945" stroke-miterlimit="10" stroke-linecap="round" stroke-linejoin="round"/><path fill-rule="evenodd" clip-rule="evenodd" d="M543.71 82.474c-.672-.045-1.299.895-1.344 2.059-.045 1.163.493 2.103 1.165 2.148.672.044 1.299-.895 1.344-2.059.045-1.163-.493-2.103-1.165-2.148ZM530.177 81.892c-.672-.044-1.3.895-1.345 2.059-.044 1.163.493 2.103 1.165 2.148.673.045 1.3-.895 1.345-2.059.045-1.163-.493-2.103-1.165-2.148Z" fill="#000"/><path fill-rule="evenodd" clip-rule="evenodd" d="M524.441 73.032c.762 11.993 2.599 2.014 2.599 2.014 2.151 1.566 10.889-1.074 17.97-4.61 7.035-3.535 11.427-4.117 10.755 4.968-.448 6.13 10.396-11.59 3.854-11.277 1.971-12.62-13.713-5.28-13.713-5.28s-4.033-5.863-10.173-5.953c-5.736-.089-10.217 4.52-9.455 9.98-4.257-.09-7.573.805-1.837 10.158Z" fill="#F69029"/><path fill-rule="evenodd" clip-rule="evenodd" d="M528.205 75.18c2.42.895 7.977-.448 16.715-4.072 7.304-2.999 10.262-.314 9.904 8.77-.09 2.104-.449 7.205-.673 10.114.986-2.103 3.317-4.43 7.35-4.743-1.703-5.639 7.887-21.57-1.927-21.122.269-1.7.313-2.685.134-4.073-.314-.984-3.226-6.13-11.606 4.341-5.96 7.473-14.654 11.5-19.897 10.785Zm-3.764-2.148c-.224 6.086 1.254 10.83 1.254 10.83l1.838-8.682c-1.838-.895-2.689-1.656-3.092-2.148Z" fill="#C13C2B"/><path fill-rule="evenodd" clip-rule="evenodd" d="M495.178 182.401c0-9.532-7.753-17.229-17.298-17.229-9.545 0-17.297 7.742-17.297 17.229 0 8.681 6.408 15.841 14.743 17.05l8.38 1.834.134-2.729c6.677-2.417 11.338-8.727 11.338-16.155Z" fill="#783140"/><path fill-rule="evenodd" clip-rule="evenodd" d="M487.022 173.272c7.842 0 14.25 6.354 14.25 14.23s-6.363 14.231-14.25 14.231c-7.842 0-14.25-6.355-14.25-14.231 0-7.876 6.408-14.23 14.25-14.23Z" fill="#783140"/><path fill-rule="evenodd" clip-rule="evenodd" d="M490.876 176.494c7.26 0 13.13 5.862 13.13 13.112 0 7.249-5.87 13.111-13.13 13.111-7.26 0-13.13-5.862-13.13-13.111 0-7.25 5.87-13.112 13.13-13.112Z" fill="#000"/><path fill-rule="evenodd" clip-rule="evenodd" d="M478.866 189.65c0 6.534 5.288 11.814 11.831 11.814 6.184 0 11.203-4.698 11.786-10.695l.582-5.459c.09-.537.179-1.074.179-1.611 0-4.565-3.719-8.279-8.29-8.279a8.017 8.017 0 0 0-4.257 1.208l-5.422 2.461.089.045c-3.854 1.969-6.498 5.907-6.498 10.516Z" fill="#E99670"/><path fill-rule="evenodd" clip-rule="evenodd" d="M494.954 175.42c4.571 0 8.29 3.714 8.29 8.279 0 .537-.044 1.074-.179 1.611l-.582 5.459c-.538 5.997-5.602 10.695-11.786 10.695-.179 0-.404 0-.583-.044-4.302-6.042-4.705-17.677-1.523-23.852l2.061-.94a8.295 8.295 0 0 1 4.302-1.208Z" fill="#000"/><path fill-rule="evenodd" clip-rule="evenodd" d="M489.397 148.48h36.478c1.613 0 3.405 1.298 4.033 2.909l17.88 46.898c.627 1.611-.179 2.909-1.793 2.909h-36.477c-1.613 0-3.406-1.298-4.033-2.909l-17.925-46.943c-.583-1.566.224-2.864 1.837-2.864Z" fill="#000"/><path fill-rule="evenodd" clip-rule="evenodd" d="M506.919 151.523c.762 0 1.792.985 2.24 2.238.449 1.253.225 2.237-.537 2.237s-1.793-.984-2.241-2.237c-.493-1.208-.269-2.238.538-2.238Z" fill="#555EC2"/><path fill-rule="evenodd" clip-rule="evenodd" d="M492.355 189.292c2.823 7.474 8.29 6.802 10.889 4.431-1.254-3.357-3.54-7.653.583-10.024-5.826 3.043-8.783-12.844-13.892-12.575-3.585.224-2.106 6.265 2.42 18.168Z" fill="#E99670"/><path d="m506.112 159.757-12.234 6.937-.941.581-.493.269-.224.134-.313.179c-.852.537-1.121.895-1.838 1.656-4.391 3.625-.448 12.172 4.795 3.222l.135-.134.224-.179.448-.314.896-.671 11.741-7.742c1.076-.805 1.389-2.282.717-3.356-.583-.984-1.882-1.208-2.913-.582Z" fill="#E99670"/><path d="m511.131 166.291-13.175 4.788-1.03.403-.538.179-.269.089-.314.135c-.941.402-1.837.447-2.644 1.074-3.63 2.685 2.196 5.191 2.196 5.191l4.302-2.238 13.085-5.37c1.21-.626 1.748-2.058 1.255-3.177-.538-1.074-1.748-1.522-2.868-1.074Z" fill="#E99670"/><path d="m511.131 171.437-13.175 4.788-1.03.403s-2.734.806-3.316 2.103c0 4.744 5.198 3.178 5.198 3.178l.986-.493 12.861-5.683c1.21-.626 1.748-2.058 1.255-3.177-.448-1.119-1.658-1.566-2.779-1.119Z" fill="#E99670"/><path d="m509.07 177.389-12.951 5.146.627 5.325.986-.492 12.861-5.683c1.21-.627 1.748-2.059 1.255-3.177-.403-1.074-1.658-1.522-2.778-1.119Z" fill="#E99670"/><path d="M510.549 181.685c1.21-.627 1.747-2.059 1.255-3.177-.449-1.074-1.703-1.522-2.824-1.074l-12.547 4.788-1.703 1.119M512.655 170.542c1.21-.626 1.748-2.058 1.255-3.177-.448-1.074-1.703-1.522-2.824-1.074l-13.174 4.788-2.196 1.298s-2.734.805-3.316 2.103M512.655 175.688c1.21-.626 1.748-2.058 1.255-3.177-.448-1.074-1.703-1.521-2.824-1.074l-13.174 4.788-.404.403s-3.271.895-3.854 2.193" stroke="#000" stroke-width=".945" stroke-miterlimit="10" stroke-linecap="round" stroke-linejoin="round"/><path d="M626.12 304.747s2.689 77.821-78.78 106.013" stroke="#555EC2" stroke-width=".945" stroke-miterlimit="10" stroke-linecap="round" stroke-linejoin="round"/><path fill-rule="evenodd" clip-rule="evenodd" d="M545.099 425.483c-.134-.492-.358-1.298-.582-2.461-1.031 1.969-.135 2.685.403 2.909.045-.179.134-.314.179-.448Zm24.961-59.562s-7.977-1.253-2.51-9.532c19.987-30.251 13.041-43.765 8.38-41.215-1.03.537-3.092 2.999-3.092 2.999-27.291 35.576-30.831 93.214-28.321 104.804.582-1.119 6.99 6.936 9.231 4.878 61.662-46.54 16.312-61.934 16.312-61.934Z" fill="#000"/><path fill-rule="evenodd" clip-rule="evenodd" d="M606.044 392.86s19.852 25.284-21.286 21.793c-33.161-2.774-28.59-24.791 21.286-21.793Z" fill="#000"/><path fill-rule="evenodd" clip-rule="evenodd" d="m502.886 438.908 5.288 38.798h.089c.941 1.522 11.607 2.998 24.692 3.401 13.713.403 24.826-.537 24.826-2.148 0-.089-.045-.179-.134-.268h.224l4.929-37.68c.135-.134.224-.268.224-.403.045-1.924-13.399-3.893-30.024-4.385-16.626-.492-30.069.671-30.114 2.595.045.045.045.045 0 .09Z" fill="#CABEC4"/><path fill-rule="evenodd" clip-rule="evenodd" d="M533.537 431.435c-14.967-.448-28.814 5.728-28.814 7.473s12.099 3.49 27.022 3.938c14.967.447 27.112-.582 27.112-2.327s-10.397-8.637-25.32-9.084Z" fill="#000"/><path fill-rule="evenodd" clip-rule="evenodd" d="M539.677 432.553c13.175-8.547-.896-8.771-.269-21.166 2.061-40.723-20.748-98.048-36.567-85.831-15.819 12.262 13.085 61.531 13.085 61.531-16.267-4.43-47.142 1.925 23.751 45.466Z" fill="#555EC2"/><path fill-rule="evenodd" clip-rule="evenodd" d="M533.941 429.466s11.517-23.763 53.148-39.738c24.422-9.353 36.97-9.98 45.35-9.622 13.309.537 12.099 10.964-12.817 19.153-17.476 5.728-29.621-.134-29.621-.134s14.296 28.819-4.391 39.335c-22.989 12.888-51.669-8.994-51.669-8.994Z" fill="#555EC2"/><path fill-rule="evenodd" clip-rule="evenodd" d="M563.696 355.673s17.433-8.279 15.864 11.59c-1.075 13.873-24.512 40.096-24.512 40.096s18.059-2.998 7.214 12.843c-11.427 16.737-22.988 8.19-23.347 11.277 0 0-13.444-33.473 13.668-87.62 4.705-9.398 15.505-24.702 23.661-28.819-15.102 13.112-12.548 40.633-12.548 40.633Z" fill="#555EC2"/><path fill-rule="evenodd" clip-rule="evenodd" d="M485.633 410.536c-35.043 2.462-26.664 51.91 24.826 29.625 24.199-10.472 36.567-7.518 40.511-6.489-65.651-123.734-125.655-53.163-65.337-23.136ZM612.721 299.064c-4.795-.044-8.38 8.369-3.181 13.604 3.674 3.715 14.16 7.474 13.488 16.468 2.241-6.757 1.748-13.738-.358-20.495-2.151-6.847-6.05-9.487-9.949-9.577Z" fill="#555EC2"/><path fill-rule="evenodd" clip-rule="evenodd" d="M613.349 298.572c1.568 4.072 11.427 23.986 9.321 32.131 5.556-13.694 4.481-28.998 3.226-33.697-3.764-14.231-16.715-9.129-12.547 1.566Z" fill="#555EC2"/><path fill-rule="evenodd" clip-rule="evenodd" d="M298.272 284.879h-34.864l.045.044h-92.359l-36.656-63.052h92.358l34.595 59.562h36.881v3.446Z" fill="#000"/><path fill-rule="evenodd" clip-rule="evenodd" d="m254.311 280.583.045.044h-80.439l-31.637-54.46h80.438l31.593 54.416Z" fill="#D8D1D1"/><path fill-rule="evenodd" clip-rule="evenodd" d="M165 265.278h80.393l8.873 15.26.045.045h-80.394L165 265.278ZM187.227 232.074c6.901 0 16.311 6.667 20.972 14.857 4.705 8.189 2.913 14.857-3.988 14.857-6.902 0-16.312-6.668-20.973-14.857-4.705-8.19-2.912-14.857 3.989-14.857Z" fill="#1053F3"/><path d="m199.864 239.323-.538 14.454-7.977-5.37" stroke="#fff" stroke-width=".945" stroke-miterlimit="10" stroke-linecap="round" stroke-linejoin="round"/><path fill-rule="evenodd" clip-rule="evenodd" d="M171.094 294.276H157.74l-48.666 182.983h8.066l53.954-182.983ZM367.597 294.276h13.354l48.666 182.983h-8.066l-53.954-182.983Z" fill="#F69028"/><path fill-rule="evenodd" clip-rule="evenodd" d="M125.475 284.476h290.833v9.89H125.475v-9.89Z" fill="#000"/><path fill-rule="evenodd" clip-rule="evenodd" d="m327.176 142.797-7.618 40.857h-.09a15.721 15.721 0 0 1-15.281 11.904c-8.693 0-15.729-7.026-15.729-15.708 0-1.118.135-2.192.359-3.266l5.019-22.062a20.22 20.22 0 0 1-6.946-15.305c0-11.232 9.097-20.316 20.345-20.316 11.247 0 20.344 9.084 20.344 20.316-.089 1.209-.179 2.417-.403 3.58Z" fill="#D8D1D1"/><path fill-rule="evenodd" clip-rule="evenodd" d="m305.128 221.199 26.933-6.489-12.279-35.218-31.01-2.953 16.356 44.66Z" fill="#D8D1D1"/><path fill-rule="evenodd" clip-rule="evenodd" d="M304.187 164.143c8.694 0 15.729 7.026 15.729 15.707 0 8.682-7.035 15.708-15.729 15.708-8.693 0-15.729-7.026-15.729-15.708 0-8.681 7.036-15.707 15.729-15.707Z" fill="#D8D1D1"/><path fill-rule="evenodd" clip-rule="evenodd" d="M319.916 214.576c-6.542 1.074-11.651 3.267-11.337 4.878.269 1.611 5.826 2.058 12.368.984 6.543-1.074 11.651-3.266 11.338-4.877-.269-1.611-5.826-2.059-12.369-.985Z" fill="#000"/><path fill-rule="evenodd" clip-rule="evenodd" d="m338.066 250.197-18.329 1.701-10.531-31.504c-.224-1.432 4.347-3.401 10.217-4.341 5.916-.985 10.89-.582 11.159.895v.313l7.484 32.936Z" fill="#E5936F"/><path d="m355.094 284.431-2.464-13.828-.224-1.074-.09-.537-.045-.268-.09-.358c-.224-.985-.582-1.925-1.03-2.864a13.65 13.65 0 0 0-1.703-2.596 25.755 25.755 0 0 0-1.076-1.119c-.179-.179-.403-.358-.582-.537l-14.34-18.347-5.422-.09c-3.585-2.819-10.442 7.295-4.84 15.529l20.658 7.965.359.224c.089.045.179.134.269.179.179.134.358.268.537.447.359.314.673.672.942 1.074.268.403.492.851.672 1.298l.045.179.089.269.179.537.314 1.074 3.406 13.693c.403 1.298 1.703 2.103 2.913 1.79 1.075-.313 1.747-1.432 1.523-2.64Z" fill="#E5936F"/><path fill-rule="evenodd" clip-rule="evenodd" d="m329.82 272.035 2.285 3.983c.493 1.164 1.883 1.79 2.958 1.432 1.21-.403 2.061-1.7 1.569-3.446 0 0-1.838-7.383-3.585-13.425 1.299-11.321-11.652-20.137-13.713-10.963-2.196 9.889 5.781 15.931 10.486 22.419Z" fill="#E5936F"/><path fill-rule="evenodd" clip-rule="evenodd" d="m331.254 262.951 11.158 4.923.269.313c.09.089.135.179.224.268.135.179.269.358.404.582.268.403.493.806.627 1.253.179.448.269.94.314 1.432v.448l.044.537.045 1.118 1.121 11.814c.089 1.343 1.165 2.462 2.419 2.462 1.166.044 2.107-.895 2.151-2.104l-.044-11.679.044-1.119.045-.537v-.627c0-.984-.089-2.013-.313-2.998a12.033 12.033 0 0 0-1.076-2.909 13.055 13.055 0 0 0-.762-1.342c-.134-.224-.313-.448-.448-.627l-.448-.581-15.864-20.317v-.089c-6.273-2.685-11.606 11.679.09 19.779Z" fill="#E5936F"/><path d="M332.912 263.757c5.198 2.327 9.545 4.117 9.545 4.117l.269.313c.09.089.135.179.224.268.135.179.269.358.403.582.269.403.493.806.628 1.253.179.448.269.94.314 1.432v.448l.044.537.045 1.118 1.12 11.814c.09 1.343 1.166 2.462 2.42 2.462 1.165.044 2.107-.895 2.151-2.104l-.089-11.679.045-1.119.044-.537v-.627c0-.984-.089-2.013-.313-2.998a12.033 12.033 0 0 0-1.076-2.909 13.055 13.055 0 0 0-.762-1.342c-.134-.224-.313-.448-.448-.627l-.448-.581" stroke="#000" stroke-width=".945" stroke-miterlimit="10" stroke-linecap="round" stroke-linejoin="round"/><path fill-rule="evenodd" clip-rule="evenodd" d="M319.648 155.954c.269 17.05 3.361 34.86.537 46.987-.224 6.623.09 8.771.09 8.771s-12.413-4.967-43.513-4.385c-20.3.358-34.416 3.58-35.671 5.236 0 0-.089-9.174 0-11.859-2.285-26.582-1.837-23.002-6.363-42.513-6.812-3.49-11.517-10.561-11.517-18.75 0-11.366 9.052-20.63 20.345-20.988 0 0 53.327.269 65.695.269 10.352 1.342 18.373 10.158 18.373 20.853.045 6.489-3.361 12.53-7.976 16.379Z" fill="#D8D1D1"/><path d="M283.798 135.995s1.479 9.263 2.778 25.239c1.703 20.675 4.302 45.556 4.302 45.556" stroke="#9D9797" stroke-width=".945" stroke-miterlimit="10" stroke-linecap="round" stroke-linejoin="round"/><path fill-rule="evenodd" clip-rule="evenodd" d="M278.958 106.908c8.111 1.611 14.071 6.309 13.309 10.471-.762 4.162-7.976 6.265-16.087 4.654-8.112-1.611-14.072-6.31-13.31-10.471.762-4.207 7.977-6.265 16.088-4.654Z" fill="#000"/><path fill-rule="evenodd" clip-rule="evenodd" d="M290.833 123.51c.045 1.253-2.33 2.148-5.96 2.372l-.941 8.816-3.45-8.816c-.807-.045-1.614-.09-2.42-.179-7.125-.761-12.996-2.954-13.041-4.923 0-.134.045-.313.09-.447l.314-28.461 20.837.358 4.571 30.609h-.179c.09.224.179.447.179.671Z" fill="#E5936F"/><path fill-rule="evenodd" clip-rule="evenodd" d="m296.255 130.849-5.108-2.103-7.484 6.981-11.741-7.294s-2.061.895-5.78 2.327c-3.406-2.954-7.35-7.429-8.156-11.859 0 0 2.868-9.532 7.17-10.964v.358c-2.107 1.566-3.272 7.563 10.755 13.157 1.882.223 3.988 2.148 5.153 5.504l2.644 7.965.717-8.234s.045-1.611.538-2.55c.672-1.253 1.479-1.88 1.479-1.88s4.122-2.282 4.57-3.848c.852-2.999-.672-4.878-1.792-5.818-.045-.313-.134-1.029-.179-1.342 1.21.581 3.181 2.416 4.436 5.504 3.182 5.549 2.778 14.096 2.778 14.096Z" fill="#D8D1D1"/><path d="M294.418 118.766c2.151 5.415 1.838 12.083 1.838 12.083m-30.07-.045c-3.405-2.953-7.349-7.428-8.155-11.859" stroke="#000" stroke-width=".945" stroke-miterlimit="10" stroke-linecap="round" stroke-linejoin="round"/><path fill-rule="evenodd" clip-rule="evenodd" d="M290.206 119.125c-.269-.045-.493-.135-.762-.179-18.597-4.878-17.477-21.257-17.477-21.257l15.595 3.536 2.644 17.9Z" fill="#000"/><path d="M319.648 155.954c.269 17.05 3.361 34.86.537 46.987-.224 6.623.09 8.771.09 8.771" stroke="#9D9797" stroke-width=".945" stroke-miterlimit="10" stroke-linecap="round" stroke-linejoin="round"/><path fill-rule="evenodd" clip-rule="evenodd" d="m296.256 131.252-11.921-3.043s.09-4.609 1.569-6.041c1.882-1.925 6.184 1.521 10.352 9.084ZM266.186 131.252l15.461-2.685c-.135-.09-1.3-5.773-4.123-7.116-1.793-.85-8.738 4.61-11.338 9.801Z" fill="#000"/><path d="M265.201 108.34c-.852.671-1.3 1.566-1.3 2.685 0 4.072 6.274 9.487 13.757 10.829.852.314 3.63 4.073 6.005 13.873.717-6.31.314-12.843 3.854-14.32.717-.313 1.434-.627 1.972-1.164.986-.939 1.748-2.103 1.748-3.266 0-1.388-.717-2.82-1.927-4.162" stroke="#000" stroke-width=".945" stroke-miterlimit="10" stroke-linecap="round" stroke-linejoin="round"/><path fill-rule="evenodd" clip-rule="evenodd" d="M291.012 106.684a9.234 9.234 0 0 1-4.526 2.372c-1.702.358-3.45.313-5.108-.224-4.661-1.521-11.203-5.191-14.654-14.275-6.677 2.058-11.517-8.01-7.484-10.74 2.51-1.656 5.916.134 7.663 2.014.09.089.269.313.314.402-.045-5.46-6.229-11.232-3.092-14.32 16.581-16.289 28.456-9.263 30.921-6.936.941 3.535.896 12.709 1.837 18.258 1.972 11.59-1.837 19.645-5.871 23.449Zm-24.064-20.853c-.045 0-.045 0 0 0-.089-.045-.089-.045 0 0Z" fill="#E5936F"/><path d="M288.189 95.63s-4.615.717-7.618-2.46M289.041 76.12c1.792-.806 5.377-.448 6.766.358M272.774 77.104c.537-.313 5.063-2.148 9.769-.805M287.472 80.64s-.045 2.326 1.972 6.175c1.837 3.49-.403 5.236-4.392 4.117M262.198 86.994s-1.568 4.385 3.182 4.878M266.276 88.829l-6.005-3.222" stroke="#000" stroke-width=".945" stroke-miterlimit="10" stroke-linecap="round" stroke-linejoin="round"/><path fill-rule="evenodd" clip-rule="evenodd" d="M297.376 68.96c1.524 3.535-1.076 10.695-1.076 10.695l-1.568-12.217s-5.826 4.296-17.746.582c-8.828-2.774-9.679 4.162-9.052 11.367.314 3.58.269 10.203.269 10.203-1.389-4.162-4.078-5.684-6.856-6.22-.628-1.478-.941-2.641-2.599-10.114-.762-3.312 1.344-6.757 1.344-6.757s-1.479-3.76-.717-6.355c2.509-8.502 13.399-5.057 13.354-5.057 0 0 3.809-6.31 12.279-5.146 8.469 1.163 9.365 8.726 9.365 8.726 2.465-.626 8.156 3.76 3.003 10.293Z" fill="#000"/><path fill-rule="evenodd" clip-rule="evenodd" d="M278.286 80.147c.672-.044 1.299.895 1.344 2.059.045 1.163-.493 2.103-1.165 2.148-.672.044-1.3-.895-1.344-2.059-.09-1.163.448-2.103 1.165-2.148ZM292.178 79.745c.672-.045 1.299.895 1.344 2.058.045 1.164-.493 2.103-1.165 2.148-.672.045-1.3-.895-1.345-2.058-.089-1.164.449-2.104 1.166-2.148Z" fill="#000"/><path fill-rule="evenodd" clip-rule="evenodd" d="M269.189 69.497c-1.524 2.237-1.613 6.041-1.3 9.934.314 3.58.269 10.203.269 10.203-1.389-4.161-4.078-5.683-6.856-6.22-.628-1.477-.941-2.64-2.599-10.113-.762-3.312 1.344-6.758 1.344-6.758s-.045-.09-.09-.223l9.232 3.177Z" fill="#393939"/><path fill-rule="evenodd" clip-rule="evenodd" d="m300.513 78.089.044 1.566-1.075.134c-.493.627-.762 1.209-.762 1.924-1.344-3.132-6.184-3.624-6.184-3.624h7.977Z" fill="#000"/><path d="M287.562 80.505c1.075-1.253 3.137-2.103 5.198-2.148 3.361-.09 6.095 1.97 6.095 4.61 0 2.595-2.689 4.788-6.05 4.877-1.21.045-2.196-.134-3.182-.626" stroke="#000" stroke-width=".945" stroke-miterlimit="10" stroke-linecap="round" stroke-linejoin="round"/><path fill-rule="evenodd" clip-rule="evenodd" d="m271.25 79.073-.134 1.567 1.075.09c.224.58.359 1.297.314 2.013 1.075-3.446 6.587-4.251 6.587-4.251l-7.842.581Z" fill="#000"/><path clip-rule="evenodd" d="M279.047 78.85c-3.36.134-6.228 2.416-6.453 5.012-.224 2.64 2.331 4.609 5.692 4.475 3.361-.135 6.229-2.417 6.453-5.013.224-2.64-2.331-4.609-5.692-4.474Z" stroke="#000" stroke-width=".945" stroke-miterlimit="10" stroke-linecap="round" stroke-linejoin="round"/><path fill-rule="evenodd" clip-rule="evenodd" d="M189.109 435.776h23.078l-5.781 21.39h-23.078l5.781-21.39ZM311.716 423.648l-22.72-.044 1.479 29.937 24.781-1.297-3.54-28.596Z" fill="#D8D1D1"/><path fill-rule="evenodd" clip-rule="evenodd" d="M348.328 481.689c.045.045.045.134 0 .224v.134h-.09c-.627.806-4.257 2.506-14.25 3.043-10.621.537-19.27-.268-24.826-2.864-7.529-3.58-7.484-6.533-11.786-6.891-5.064-.448-10.621-1.522-10.621-1.522-1.344-1.924-.761-7.428 3.899-13.783-.627-6.936 26.888 8.189 50.011 15.26 1.882.134 3.271.582 4.347 1.253l3.316.313v4.833ZM209.902 472.068c-4.257.761-1.076 6.533-5.333 9.263-3.899 2.461-10.62 4.072-21.017 3.625-12.503-.537-15.595-1.746-18.866-3.133v-.089h-.09l.09-4.296h1.972c.806-1.074 1.837-1.925 3.137-1.925 5.467-5.549 12.144-13.693 16.67-28.908 5.288-2.685 10.8-2.327 15.684-.134 3.54 6.757 4.706 5.683 4.706 5.683s2.285-2.417 2.419-5.281c3.137 3.938 3.585 14.276 3.809 22.913.045.044-.582 1.834-3.181 2.282Z" fill="#000"/><path fill-rule="evenodd" clip-rule="evenodd" d="M286.442 469.293s5.556 1.074 10.62 1.522c4.302.358 4.571 3.177 12.1 6.757 5.556 2.64 14.205 3.446 24.826 2.864 12.816-.671 15.146-3.312 14.16-3.446 0 0-.044-5.907-7.483-6.399-8.335-1.611-23.392-15.573-25.857-26.045-2.241-1.79-9.635-.223-10.8 1.746-4.347 6.22-8.649 3.982-8.649 3.982s-4.75-1.566-5.377-7.204c-4.705 6.354-4.885 24.344-3.54 26.223ZM213.218 465.534s-.627 1.79-3.227 2.238c-4.257.761-1.075 6.533-5.332 9.263-3.899 2.461-10.621 4.072-21.017 3.625-12.503-.537-15.595-1.745-18.866-3.133 0 0 0-5.772 5.153-6.265 5.467-5.549 12.144-13.693 16.67-28.908 3.451-2.596 10.8-2.327 15.685-.134 3.54 6.757 4.705 5.683 4.705 5.683s2.823-2.417 3.316-5.146c2.375 5.504 2.689 14.185 2.913 22.777ZM282.364 246.886s-33.879 72.316-43.782 143.379c-4.437 31.951-18.328 48.285-18.328 48.285l-32.265-.447 53.326-207.417c47.457-11.142 41.049 16.2 41.049 16.2Z" fill="#783140"/><path fill-rule="evenodd" clip-rule="evenodd" d="M204.211 436.223c8.917 0 16.132.985 16.132 2.148 0 1.208-7.215 2.148-16.132 2.148-8.918 0-16.133-.984-16.133-2.148 0-1.163 7.215-2.148 16.133-2.148ZM241.136 212.339s13.892-1.477 31.459-1.701c35.133-.492 47.501.179 47.501.179v27.88l-78.736-6.847-.224-19.511Z" fill="#783140"/><path fill-rule="evenodd" clip-rule="evenodd" d="M318.393 439.311h-30.204s-7.394-17.99-3.585-52.402c6.005-54.685-3.988-141.455-3.988-141.455s9.052-12.441 19.897-15.081c9.276-2.282 19.717 0 19.717 0l-1.837 208.938Z" fill="#783140"/><path fill-rule="evenodd" clip-rule="evenodd" d="M303.291 437.476c8.335 0 15.102.805 15.102 1.79 0 .984-6.767 1.79-15.102 1.79s-15.102-.806-15.102-1.79c0-1.029 6.767-1.79 15.102-1.79ZM279.675 230.149c21.375 0 38.718 3.849 38.718 8.637 0 4.744-17.343 8.637-38.718 8.637-21.376 0-38.718-3.849-38.718-8.637s17.298-8.637 38.718-8.637Z" fill="#783140"/><path d="M309.879 218.246s.896 14.365 9.769 24.389M262.288 215.964s.269 20.271-17.746 26.984M188.078 438.416 247.5 231.984c.089-3.893.134-13.47.134-13.47M290.071 248.676s5.423 83.414 1.882 143.826c-1.568 27.029 3.227 47.749 3.227 47.749" stroke="#571F2B" stroke-width=".945" stroke-miterlimit="10" stroke-linecap="round" stroke-linejoin="round"/><path fill-rule="evenodd" clip-rule="evenodd" d="m282.319 262.727-1.255-13.022 17.387-3.401s-6.363 13.157-16.132 16.423ZM320.185 212.026c-.089 6.667-.089 8.726-.089 8.726s-12.234-4.878-43.289-4.341c-20.3.358-34.954 2.775-35.536 5.46 0 0-.224-6.802-.135-9.487 3.72-6.534 73.582-7.787 79.049-.358Z" fill="#000"/><path fill-rule="evenodd" clip-rule="evenodd" d="M282.184 206.924c5.064 0 10.083.09 14.744.358v9.577c-4.257-.314-9.187-.493-14.744-.493v-9.442Z" fill="#F69028"/><path fill-rule="evenodd" clip-rule="evenodd" d="M261.391 177.613a15.942 15.942 0 0 0-4.884-.761c-8.918 0-16.178 7.205-16.178 16.11s7.215 16.11 16.178 16.11H257.851l27.829 1.074 5.243-27.074-29.532-5.459Z" fill="#D8D1D1"/><path fill-rule="evenodd" clip-rule="evenodd" d="m271.116 186.16-10.755-35.397c2.285-3.267 3.585-7.25 3.585-11.501 0-11.232-9.097-20.316-20.345-20.316s-20.345 9.084-20.345 20.316c0 1.88.269 3.714.762 5.46h-.135l17.074 52.626c.134.447.269.85.403 1.253 2.286 6.13 8.201 10.516 15.147 10.516 8.917 0 16.177-7.205 16.177-16.11-.045-2.461-.582-4.788-1.568-6.847Z" fill="#D8D1D1"/><path d="m264.528 178.195 25.991 5.37M262.781 156.133l6.408 22.957M275.776 209.52c-4.392.402-7.439-5.818-6.811-13.694.627-7.831 4.66-14.499 9.097-14.902" stroke="#9D9797" stroke-width=".945" stroke-miterlimit="10" stroke-linecap="round" stroke-linejoin="round"/><path fill-rule="evenodd" clip-rule="evenodd" d="M289.937 183.162c4.212-.358 7.17 5.415 6.587 12.977-.582 7.518-4.526 14.141-8.783 14.499-4.212.358-7.125-5.593-6.543-13.156.628-7.563 4.527-13.962 8.739-14.32Z" fill="#000"/><path fill-rule="evenodd" clip-rule="evenodd" d="M356.708 222.766c-.135.223-.314.447-.538.581.762 1.074-.762 2.462-8.559 3.088-1.703.045-3.227.09-4.526.134-1.166.179-2.42.358-3.81.582-6.318.94-9.813 1.522-12.771-2.685-3.854-5.549-8.111-10.337-8.111-10.337l-30.025-5.325c-3.629.179-6.094-4.878-5.601-11.412.538-6.623 3.943-12.261 7.663-12.619 5.153 1.342 30.069 8.905 30.069 8.905 4.84-3.446 11.024-1.253 13.22-1.969 4.884-1.656 5.064-1.656 6.632-3.132.314-.269.627-.582.896-.895.135-.179.269-.314.404-.493.134-.134.268-.358.313-.402l.717-.627c.852-.716 2.062-.537 2.644.358a2.27 2.27 0 0 1 .179 2.014c-.134.403-.224.671-.358.94-.135.268-.224.581-.359.85a27.21 27.21 0 0 1-.851 1.611c-.583 1.029-1.3 2.014-2.061 2.953-.762.94-1.614 1.79-2.51 2.551l-.717.582-.627.492a6.371 6.371 0 0 1-.672.492c-.359.448-3.989 2.641.582 8.145l.135.134c1.03.94 2.106 1.88 3.226 2.775a99.862 99.862 0 0 0 6.991 5.101 127.231 127.231 0 0 0 7.439 4.565l.044.044c.493.269.852.716 1.031 1.253 1.12.672 1.21 1.298-.089 1.746Z" fill="#E5936F"/><path d="M340.127 226.704c-2.061-.224-4.213-.716-5.333-1.209a141.229 141.229 0 0 1-6.453-3.132M356.483 223.347c.045 1.298-1.478 1.701-2.106 1.701-1.792.268-2.375.134-3.63.045-8.514-1.253-15.325-4.61-15.325-4.61l-5.871-3.266" stroke="#000" stroke-width=".945" stroke-miterlimit="10" stroke-linecap="round" stroke-linejoin="round"/><path d="M356.304 219.767c2.151 1.88.179 4.654-1.837 3.625-2.33-1.208-4.257-1.79-7.708-3.312 0 0-7.349-3.58-15.639-8.726" stroke="#000" stroke-width=".945" stroke-miterlimit="10" stroke-linecap="round" stroke-linejoin="round"/><path fill-rule="evenodd" clip-rule="evenodd" d="M351.509 199.63a1.966 1.966 0 0 0 2.555.761l.045-.045c2.24-1.119 4.615-2.148 6.99-3.088a90.974 90.974 0 0 1 7.17-2.506c.941-.268 1.882-.537 2.823-.761l-.672.314c-.582.268-1.21.581-1.792.895a34.501 34.501 0 0 0-6.767 4.564 29.846 29.846 0 0 0-2.913 2.909c-.448.537-.896 1.074-1.299 1.656-.18.313-.404.581-.583.895-.09.134-.179.313-.269.492-.089.179-.179.313-.313.537a1.976 1.976 0 0 0 .851 2.64c.896.448 1.927.179 2.51-.626l.134-.224.179-.269c.09-.089.135-.223.224-.313.18-.224.359-.447.538-.626.359-.403.762-.851 1.165-1.253a21.13 21.13 0 0 1 2.644-2.238 30.185 30.185 0 0 1 6.139-3.356l-.806.537-1.345.895-1.299.984c-.448.358-.852.716-1.255 1.119-.807.806-1.658 1.745-2.241 3.088a7.64 7.64 0 0 0-.358 1.074c-.045.403-.135.805-.09 1.253 0 .447.09.895.269 1.342.09.224.179.448.269.627.134.224.224.358.538.716.717.805 1.972.85 2.778.134.807-.716.852-1.969.135-2.774.134.179.089.089.134.089v-.045c0-.044 0-.044.045-.089 0-.045.045-.09.089-.179.09-.09.09-.179.18-.269.269-.402.806-.895 1.434-1.342.313-.224.672-.448 1.03-.671l1.121-.627 1.21-.582 1.299-.581.672-.269a3.876 3.876 0 0 0-.537.627c-.18.268-.359.492-.538.76a5.75 5.75 0 0 0-.493.895c-.134.358-.269.672-.403 1.03-.09.402-.18.76-.18 1.208-.044.85.224 1.611.583 2.237.358.627.851 1.074 1.344 1.432.224.179.493.358.762.493.269.134.493.268.852.402.941.358 2.061-.089 2.509-1.074.314-.671.224-1.387-.179-1.879l-.627-.671s-.18-.135-.269-.179c-.09-.09-.224-.179-.314-.269-.179-.179-.314-.358-.314-.447 0-.135-.045-.179 0-.224 0 0 .045-.09.045-.134.045-.045.09-.135.135-.224.224-.358.717-.806 1.344-1.343a23.6 23.6 0 0 1 2.016-1.521c1.345-.94 5.288-2.73 6.991-3.67.045 0 .09-.044.135-.044 3.45-1.522 5.96-5.505 5.96-10.248 0-3.401-1.255-6.399-3.272-8.413-.582-.671-1.12-1.074-1.658-1.477-1.03-.761-2.016-1.253-2.957-1.656a36.986 36.986 0 0 0-2.823-1.074c-.449-.134-.942-.268-1.39-.402l-.717-.179-.358-.09h-.269l-.224-.045c-.135-.044-.314-.089-.448-.179-.314-.134-.672-.313-1.031-.447-.717-.358-1.434-.761-2.151-1.164-1.434-.85-2.913-1.745-4.302-2.685h-.045c-.896-.581-2.151-.358-2.733.582a2.016 2.016 0 0 0 .179 2.417 99.62 99.62 0 0 0 3.63 3.938c.627.626 1.299 1.297 2.016 1.924.359.313.717.626 1.121.94.089.089.224.179.313.268.359.716.807 2.461-2.778 3.759-1.031.269-2.061.537-3.092.85-1.3.403-2.599.895-3.854 1.388-2.509.984-4.974 2.148-7.349 3.356-2.375 1.208-4.706 2.461-7.036 3.893-1.031.448-1.344 1.656-.762 2.551Z" fill="#B15152"/><path d="M376.111 183.609c1.614 2.104 2.6 8.1 7.574 8.145M370.375 192.828s-.268 7.786 7.126 10.874" stroke="#000" stroke-width=".945" stroke-miterlimit="10" stroke-linecap="round" stroke-linejoin="round"/><path fill-rule="evenodd" clip-rule="evenodd" d="M443.196 210.638c0 6.086-4.975 11.054-11.069 11.054-1.568 0-3.092-.358-4.436-.94v.045l-27.515-13.246 5.601-20.451 30.159 13.112-.045.089c4.213 1.477 7.305 5.549 7.305 10.337Z" fill="#D8D1D1"/><path fill-rule="evenodd" clip-rule="evenodd" d="M431.858 214.397c-.089 3.088-2.733 4.699-6.363 5.326l-17.119-8.234c7.663-5.057 9.501-13.739 9.859-18.974l10.621 4.609c2.644 4.878 3.181 10.874 3.002 17.273ZM403.85 186.831c4.168 0 7.215 4.699 6.767 10.472-.448 5.817-4.212 10.471-8.38 10.471-4.168 0-7.215-4.698-6.767-10.471.448-5.773 4.213-10.472 8.38-10.472Z" fill="#000"/><path fill-rule="evenodd" clip-rule="evenodd" d="M409.586 197.303c-.403 5.012-3.629 9.039-7.259 9.039-.762 0-1.569.09-2.241-.223l-15.012-7.429 1.12-17.229 17.612 6.758c3.585.044 6.184 4.117 5.78 9.084ZM428.228 327.928l4.706 26.447s2.912 65.111 3.136 76.388c.135 6.579 1.659 18.527-3.36 26.269-7.35 11.277-26.216 19.063-26.216 19.063s15.864.582 34.282-3.401c2.599-.581 20.076 8.816 16.491-11.232-3.764-10.695 2.196-66.096 3.63-79.387 2.24-21.166-8.156-39.961-12.548-50.791-5.198-12.933-20.121-3.356-20.121-3.356Z" fill="#B15152"/><path fill-rule="evenodd" clip-rule="evenodd" d="M460.941 382.075a1524.512 1524.512 0 0 0-2.195 21.928c-11.293-3.625-19.001-8.905-24.289-14.723-.762-18.034-1.523-34.905-1.523-34.905l-.807-4.475c8.335-2.73 15.774-4.117 22.317-4.43 4.078 10.203 7.931 22.912 6.497 36.605ZM459.149 480.928s-3.944 1.79-11.024 1.522c-9.321-.358-16.177 2.819-31.682 2.506-9.725-.179-20.345-1.701-20.345-1.701s-2.286-4.34 6.542-5.235c7.753-.761 12.817-4.207 12.817-4.207s5.915 4.833 32.668-3.401c7.663-2.372 3.451-2.014 3.451-2.014s9.589 4.654 7.573 12.53Z" fill="#000"/><path fill-rule="evenodd" clip-rule="evenodd" d="M459.149 477.124s-3.943 1.88-11.024 1.79c-9.321-.089-16.177 3.223-31.682 3.267-9.725.045-20.345-1.208-20.345-1.208s-.852-4.52 7.977-5.594c6.766-.805 11.696-3.982 11.696-3.982s5.512 4.295 32.309-4.61c7.663-2.551 8.649-7.786 8.649-7.786s4.437 10.203 2.42 18.123Z" fill="#783140"/><path fill-rule="evenodd" clip-rule="evenodd" d="m506.157 429.734 4.392 2.148s1.658 3.178 1.12 9.487c-1.254 14.857 5.691 27.79-3.585 33.473-10.934 6.758-20.345 10.338-20.345 10.338s-2.016-2.059-.806-3.759c4.884-7.071 11.113-28.372 10.8-26.806l8.424-24.881Z" fill="#000"/><path fill-rule="evenodd" clip-rule="evenodd" d="m488.994 421.366 17.163 8.368s1.882 3.178 1.703 9.487c-.314 14.857 7.394 27.79-1.524 33.473-10.531 6.758-19.717 10.338-19.717 10.338s-1.255-2.327-.179-4.073c4.436-7.07 8.469-28.103 8.245-26.492l-5.691-31.101Z" fill="#783140"/><path fill-rule="evenodd" clip-rule="evenodd" d="M409.989 346.186s25.275 29.803 48.398 55.937c13.981 15.797 26.126 39.157 32.355 58.31.089 7.92-.404 9.129-.404 9.129s1.076-.537 4.437-2.685c6.408-4.073 8.514-5.012 8.2-20.138-.224-12.082-7.035-21.748-7.035-21.748 0 .044-2.106-3.088-6.812-12.172-6.139-11.859-10.889-41.707-46.022-65.201-14.161-9.532-33.117-1.432-33.117-1.432Z" fill="#B15152"/><path fill-rule="evenodd" clip-rule="evenodd" d="M418.773 356.479c-2.779-3.267-5.019-5.907-6.543-7.697.314-1.567.896-2.864 1.748-3.983 6.318-1.79 18.955-4.072 29.128 2.774 4.705 3.133 8.828 6.4 12.503 9.711-7.484 5.997-26.619 1.969-36.836-.805Z" fill="#000"/><path fill-rule="evenodd" clip-rule="evenodd" d="m415.815 225.54 2.868 25.91-12.547 98.898s2.913 2.416 26.663 3.043c18.597.492 23.392-2.372 23.437-2.372 0 0-.717-3.177.986-18.079 1.658-14.902 18.104-62.829 14.519-79.118-4.212-19.198-25.857-46.048-25.857-46.048l-30.069 17.766Z" fill="#1053F3"/><path d="M442.568 222.676c-.313-.179 14.161 21.57 10.262 41.797-4.346 22.598-17.252 88.694-17.252 88.694" stroke="#555EC2" stroke-width=".945" stroke-miterlimit="10" stroke-linecap="round" stroke-linejoin="round"/><path fill-rule="evenodd" clip-rule="evenodd" d="M480.838 169.871c-10.441 20.898-22.54 48.017-22.54 48.017l.806 8.771h-.045c-.224-.761-9.858-1.387-21.734-1.387-11.337 0-20.524-.448-21.51.268l4.795-38.172s-5.153-8.234-3.137-13.783c2.51-3.266 6.991-8.502 11.517-13.604a14.326 14.326 0 0 1-.089-1.387c0-7.473 6.049-13.514 13.533-13.514.807 0 1.613.089 2.42.223l29.755-.268s.045.045.18.089c6.811.716 12.144 6.444 12.144 13.425a13.73 13.73 0 0 1-6.095 11.322Z" fill="#D8D1D1"/><path fill-rule="evenodd" clip-rule="evenodd" d="m431.096 174.078 33.923-25.642-28.097 5.057s-2.465 2.774-4.033 8.457c-2.196 8.1-1.793 12.128-1.793 12.128Z" fill="#1053F3"/><path fill-rule="evenodd" clip-rule="evenodd" d="M472.324 237.936c5.198 1.611 9.231 3.938 8.783 5.146-.717 1.924-9.276 1.342-14.474-.269-5.199-1.611-4.795-4.385-4.437-5.593.359-1.209 4.885-.895 10.128.716Z" fill="#000"/><path fill-rule="evenodd" clip-rule="evenodd" d="m461.972 238.473-7.797 18.079s-4.302 4.296-16.043 14.096c1.434 7.384 9.231 2.372 9.231 2.372s9.769-.94 12.369-1.835c3.585-1.208 7.349-5.504 9.096-9.576 1.927-4.565 10.083-18.303 10.083-18.303s-11.696-4.699-16.939-4.833Z" fill="#B15152"/><path fill-rule="evenodd" clip-rule="evenodd" d="M471.069 238.876c4.705 1.297 8.246 3.222 7.932 4.34-.314 1.074-4.347.94-9.052-.358-4.706-1.297-8.291-3.266-7.977-4.34.314-1.119 4.392-.94 9.097.358ZM454.847 268.903l-10.576 4.251-.269.269-.224.223c-.134.179-.269.314-.403.537-.269.358-.448.761-.627 1.164-.18.403-.269.85-.359 1.342l-.045.179v.269l-.044.537-.09 1.074-1.434 13.201c-.09 1.253-1.165 2.282-2.33 2.238-1.121 0-1.927-.94-1.972-2.059l.538-13.201-.045-1.029V276.734c0-.94.134-1.924.403-2.864.224-.94.583-1.879 1.076-2.73.224-.447.493-.85.761-1.253.135-.223.269-.402.449-.581l.403-.537 15.953-10.83c8.201-4.206 2.196 1.79-1.165 10.964Z" fill="#B15152"/><path d="m430.424 291.681 3.047-13.336.269-1.029.135-.537.045-.269.089-.358c.269-.939.672-1.834 1.165-2.729a13.508 13.508 0 0 1 1.793-2.417c.358-.358.717-.716 1.12-1.029.179-.179.403-.313.583-.492l.582-.403 21.017-14.902c3.63-2.551 8.335 5.952 2.465 13.649l-20.435 6.712-.358.179c-.09.045-.179.135-.269.179l-.538.403c-.358.313-.672.627-.941 1.029a6.637 6.637 0 0 0-.717 1.209l-.089.179-.09.268-.179.492-.359 1.03-3.943 13.111c-.448 1.209-1.748 1.969-2.913 1.611-1.21-.313-1.793-1.432-1.479-2.55Z" fill="#B15152"/><path fill-rule="evenodd" clip-rule="evenodd" d="m455.071 264.249-9.187 6.757-.179.313-.134.269c-.09.179-.179.402-.269.581-.135.403-.269.851-.314 1.298a7.138 7.138 0 0 0 0 1.387l.045.179.045.269.089.537.18 1.029 1.747 9.532c.224 1.253-.537 2.506-1.702 2.774-1.076.269-2.107-.402-2.42-1.521l-2.599-9.263-.314-.94-.135-.492-.089-.269-.09-.313c-.224-.94-.358-1.88-.358-2.864 0-.985.089-1.969.313-2.909.135-.492.269-.94.404-1.432l.269-.671.268-.627 13.265-8.189c6.901-6.175 2.061-5.191 1.165 4.565Z" fill="#B15152"/><path d="m430.424 291.681 3.047-13.336.269-1.029.135-.537.045-.269.089-.358c.269-.939.672-1.834 1.165-2.729a13.508 13.508 0 0 1 1.793-2.417c.358-.358.717-.716 1.12-1.029.179-.179.403-.313.583-.492l.582-.403 21.017-14.902c3.63-2.551 8.335 5.952 2.465 13.649l-20.435 6.712-.358.179c-.09.045-.179.135-.269.179l-.538.403c-.358.313-.672.627-.941 1.029a6.637 6.637 0 0 0-.717 1.209l-.089.179-.09.268-.179.492-.359 1.03-3.943 13.111c-.448 1.209-1.748 1.969-2.913 1.611-1.21-.313-1.793-1.432-1.479-2.55Z" fill="#B15152"/><path d="M463.451 268.992s-1.748 2.193-5.243 2.775c-12.279 2.148-13.041 1.745-13.22 4.117 0-.224.314 1.029.314 1.029l1.748 9.532c.224 1.253-.538 2.506-1.703 2.774-1.076.269-2.106-.402-2.42-1.521l-2.599-9.263s-2.017-5.549-.359-8.19c2.062-3.311 8.649-8.278 8.649-8.278" stroke="#000" stroke-width=".945" stroke-miterlimit="10" stroke-linecap="round" stroke-linejoin="round"/><path d="M441.627 284.163c-.403 3.624-.851 7.741-.851 7.741-.09 1.253-1.165 2.283-2.33 2.238-1.121 0-1.927-.94-1.972-2.059l.538-13.201s-.09-3.132.582-5.728c.314-1.208 2.241-3.535 2.42-3.669.359-.358 6.005-5.326 8.29-7.295" stroke="#000" stroke-width=".945" stroke-miterlimit="10" stroke-linecap="round" stroke-linejoin="round"/><path fill-rule="evenodd" clip-rule="evenodd" d="m494.596 210.683-13.489 32.399c.314-1.208-3.585-3.491-8.783-5.102-4.974-1.566-9.321-1.924-10.038-.895l11.83-29.982v-.448c0-5.907 4.795-10.65 10.666-10.65 5.915 0 10.665 4.788 10.665 10.65-.045 1.388-.314 2.775-.851 4.028Z" fill="#D8D1D1"/><path fill-rule="evenodd" clip-rule="evenodd" d="M495.402 206.611c0 5.907-4.795 10.65-10.665 10.65-5.915 0-10.665-4.788-10.665-10.65l-6.274-35.666c-4.705-2.103-7.977-6.847-7.977-12.306 0-7.473 6.05-13.515 13.534-13.515 6.408 0 11.785 4.475 13.174 10.472h.045l8.739 49.449h-.045c.089.492.134 1.029.134 1.566Z" fill="#D8D1D1"/><path d="M468.111 172.78c1.972 11.187 6.005 34.189 6.005 34.189" stroke="#9D9797" stroke-width=".945" stroke-miterlimit="10" stroke-linecap="round" stroke-linejoin="round"/><path fill-rule="evenodd" clip-rule="evenodd" d="M452.651 154.477c-8.245 2.551-15.505 2.774-16.177.582-.448-1.432 2.016-3.58 6.05-5.594l-5.423-21.48 15.64-8.995 12.906 26.045c.403.223.672.537.806.85.583 2.237-5.556 6.086-13.802 8.592Z" fill="#B15152"/><path fill-rule="evenodd" clip-rule="evenodd" d="M453.368 121.854s-1.524 16.289-12.279 22.062l-3.674-14.678c3.63-3.267 8.917-6.086 15.953-7.384Z" fill="#000"/><path fill-rule="evenodd" clip-rule="evenodd" d="M452.606 125.658c-16.536 17.945-24.871 15.081-26.798 2.506a332.277 332.277 0 0 1-2.509-5.952c-.045-1.208 0-2.461.045-3.669a3.366 3.366 0 0 1-.628-.179c-3.271-1.074-3.719-3.133-3.181-4.251.403-.806 2.33-.716 4.526-1.522.403-3.759-.359-12.396 2.464-17.631 14.251-9.443 25.723 5.28 22.944 13.872 2.107-.984 7.753-3.58 10.442 2.864 1.882 4.52-1.345 12.441-7.305 13.962Z" fill="#B15152"/><path fill-rule="evenodd" clip-rule="evenodd" d="M425.405 127.269c-.583-1.387-1.076-2.506-1.658-3.893l5.736-.627c.045-.045-.045 3.267-4.078 4.52Z" fill="#F8F7F8"/><path d="M450.59 113.62c2.106.403 2.778 3.893-.269 4.744" stroke="#000" stroke-width=".945" stroke-miterlimit="10" stroke-linecap="round" stroke-linejoin="round"/><path d="M452.741 112.546s-2.599.537-4.482 3.67M426.705 103.507s3.495-.403 6.856 2.282M427.646 108.161l2.509 1.745" stroke="#000" stroke-width=".945" stroke-miterlimit="10" stroke-linecap="round" stroke-linejoin="round"/><path fill-rule="evenodd" clip-rule="evenodd" d="M429.617 109.1c.673 0 1.255.895 1.3 2.014.045 1.119-.448 2.059-1.12 2.103-.673 0-1.255-.895-1.3-2.013-.045-1.164.448-2.104 1.12-2.104ZM462.33 162.666s24.916-12.037.942-25.865c-2.555-1.477-5.154-3.222-7.35-5.057-5.646-4.296-6.273-8.368-5.825-10.829 4.615 1.745 7.439-7.429 4.033-10.024-2.465-1.88-5.781.895-7.977 3.445-.269-17.005-5.557-18.481-13.444-18.795-5.019-.179-5.153-.044-6.497-.09 0 0 1.299-7.472 13.981-11.321 19.807-5.996 34.013 8.1 28.635 25.418a82.612 82.612 0 0 1-1.389 3.983c-1.12 3.58-5.198 18.705 3.271 24.926 37.06 27.208 5.109 33.786-8.38 24.209Z" fill="#000"/></g><defs><clipPath id="a"><path fill="#fff" d="M0 0h717v537H0z"/></clipPath></defs></svg>