<svg width="242" height="161" fill="none" xmlns="http://www.w3.org/2000/svg"><path d="M95.586 19.96a7.386 7.386 0 1 0 0-14.773 7.386 7.386 0 0 0 0 14.773Z" fill="#FED964"/><g fill="#fff"><path d="M95.586 12.107c-.962 0-1.739-.8-1.703-1.77a1.712 1.712 0 0 1 1.638-1.639 1.71 1.71 0 0 1 1.747 1.409.35.35 0 1 0 .692-.117 2.405 2.405 0 0 0-2.427-1.992 2.417 2.417 0 0 0-2.346 2.346 2.405 2.405 0 0 0 2.403 2.463c.962 0 1.739.801 1.702 1.771a1.712 1.712 0 0 1-1.638 1.639 1.71 1.71 0 0 1-1.747-1.41.35.35 0 1 0-.692.118 2.405 2.405 0 0 0 2.427 1.992 2.414 2.414 0 0 0 2.347-2.347 2.402 2.402 0 0 0-2.403-2.463Z"/><path d="M95.586 6.927c-.19 0-.346.14-.346.31v10.666c0 .173.153.31.346.31.189 0 .346-.14.346-.31V7.237c0-.17-.157-.31-.346-.31Z"/></g><path d="M94.913 126.393h49.822a4.783 4.783 0 0 0 4.782-4.782v-95.19a4.783 4.783 0 0 0-4.782-4.783H94.913a4.782 4.782 0 0 0-4.781 4.782v95.191a4.782 4.782 0 0 0 4.781 4.782Z" fill="#000001"/><path d="M201.846 156.883s14.538-16.905-9.085-30.542c7.62-21.244-36.523-33.142-50.216-13.717-1.074 1.525-3.268 1.714-4.564.374-16.064-16.587-33.77-10.783-41.313 1.473-3.083 5.015-9 7.527-14.731 6.187-9.938-2.327-17.638 6.21-20.777 14.051-1.522 3.807-4.738 6.701-8.698 7.76-12.083 3.216-12.083 14.409-12.083 14.409h161.467v.005Z" fill="#C7DEFD"/><path d="M96.415 126.393h49.821a4.782 4.782 0 0 0 4.782-4.782v-95.19a4.782 4.782 0 0 0-4.782-4.783H96.415a4.782 4.782 0 0 0-4.782 4.782v95.191a4.782 4.782 0 0 0 4.782 4.782Z" fill="#fff" stroke="#0C0A0A" stroke-width=".53" stroke-miterlimit="10" stroke-linecap="round" stroke-linejoin="round"/><path d="M148.277 120.718V27.314a2.935 2.935 0 0 0-2.934-2.935H97.308a2.935 2.935 0 0 0-2.934 2.935v93.404a2.935 2.935 0 0 0 2.934 2.934h48.035a2.937 2.937 0 0 0 2.934-2.934Z" fill="#fff" stroke="#0C0A0A" stroke-width=".53" stroke-miterlimit="10" stroke-linecap="round" stroke-linejoin="round"/><g fill="#C7DEFD"><path d="M110.555 94.72h30.195a.397.397 0 0 0 .399-.398v-.386a.397.397 0 0 0-.399-.399h-30.195a.397.397 0 0 0-.399.398v.387c0 .217.181.398.399.398ZM104.831 97.9h35.923a.397.397 0 0 0 .399-.398v-.387a.397.397 0 0 0-.399-.398h-35.923a.397.397 0 0 0-.398.398v.387c0 .221.177.398.398.398ZM104.831 101.084h35.923a.397.397 0 0 0 .399-.399v-.386a.397.397 0 0 0-.399-.399h-35.923a.397.397 0 0 0-.398.399v.386c0 .222.177.399.398.399ZM104.831 104.268h35.923a.397.397 0 0 0 .399-.399v-.386a.397.397 0 0 0-.399-.399h-35.923a.397.397 0 0 0-.398.399v.386c0 .222.177.399.398.399ZM104.831 107.451h35.923a.397.397 0 0 0 .399-.398v-.386a.397.397 0 0 0-.399-.399h-35.923a.397.397 0 0 0-.398.399v.386c0 .217.177.398.398.398ZM104.831 110.631h30.61a.397.397 0 0 0 .399-.398v-.387a.397.397 0 0 0-.399-.398h-30.61a.396.396 0 0 0-.398.398v.387c0 .221.177.398.398.398Z"/></g><path d="M148.277 28.73a4.351 4.351 0 0 0-4.351-4.35h-45.2a4.351 4.351 0 0 0-4.352 4.35v8.13h53.903v-8.13Z" fill="#C7DEFD"/><path d="M94.374 113.976v5.325a4.351 4.351 0 0 0 4.351 4.351h45.201a4.351 4.351 0 0 0 4.351-4.351v-5.325H94.374Z" fill="#4E3CDF" stroke="#0C0A0A" stroke-width=".53" stroke-miterlimit="10" stroke-linecap="round" stroke-linejoin="round"/><g stroke="#0C0A0A" stroke-width=".53" stroke-linecap="round" stroke-linejoin="round"><path d="M106.663 63.217v.825h.825"/><path d="M109.202 64.042h29.971" stroke-dasharray="4.51 4.51"/><path d="M140.03 64.042h.825v-.825"/><path d="M140.855 61.45V44.653" stroke-dasharray="4.66 4.66"/><path d="M140.855 43.768v-.825h-.825"/><path d="M138.315 42.943h-29.97" stroke-dasharray="4.51 4.51"/><path d="M107.488 42.943h-.825v.825"/><path d="M106.663 45.539V62.33" stroke-dasharray="4.66 4.66"/></g><path d="M104.868 44.717h4.025v-3.546h-4.025v3.546ZM104.868 65.815h4.025v-3.546h-4.025v3.546ZM138.842 44.717h4.025v-3.546h-4.025v3.546ZM138.842 65.815h4.025v-3.546h-4.025v3.546Z" fill="#000001"/><path d="M109.734 59.586s5.961-12.385 7.325-12.385c1.365 0 6.336 6.907 7.905 6.907 1.57 0 2.729-1.284 5.39-1.694 2.66-.411 5.864 2.821 5.864 2.821v5.148h-26.484v-.797Z" fill="#43BA79" stroke="#0C0A0A" stroke-width=".53" stroke-miterlimit="10" stroke-linecap="round" stroke-linejoin="round"/><path d="M132.885 51.496a2.15 2.15 0 1 0 .001-4.299 2.15 2.15 0 0 0-.001 4.299Z" fill="#1053F3"/><path d="M206.269 156.287H26.006v1.195h180.263v-1.195Z" fill="#000"/><path d="M189.855 58.777h28.634c.616 0 1.119-.5 1.119-1.119V41.015c0-.616-.499-1.12-1.119-1.12h-28.634c-.616 0-1.119.5-1.119 1.12v16.643c.004.62.503 1.119 1.119 1.119Z" fill="#fff" stroke="#0C0A0A" stroke-width=".53" stroke-miterlimit="10" stroke-linecap="round" stroke-linejoin="round"/><path d="m191.357 42.653.68-.68.901.901.902-.901.68.68-.901.906.901.901-.68.68-.902-.901-.901.902-.68-.68.901-.902-.901-.906Z" fill="#FED964"/><path d="M199.519 54.78h15.432a.746.746 0 0 0 .745-.744v-9.733a.746.746 0 0 0-.745-.744h-15.432a.745.745 0 0 0-.744.744v9.733c0 .41.33.744.744.744Z" fill="#fff" stroke="#0C0A0A" stroke-width=".53" stroke-miterlimit="10" stroke-linecap="round" stroke-linejoin="round"/><path d="M205.215 46.525h7.426a.35.35 0 0 0 .35-.35v-.338a.35.35 0 0 0-.35-.35h-7.426a.35.35 0 0 0-.351.35v.338c0 .193.157.35.351.35ZM205.215 49.125h8.702a.35.35 0 0 0 .35-.35v-.338a.35.35 0 0 0-.35-.35h-8.702a.35.35 0 0 0-.351.35v.338c0 .193.157.35.351.35ZM201.632 51.766h12.281a.35.35 0 0 0 .35-.35v-.339a.35.35 0 0 0-.35-.35h-12.281a.35.35 0 0 0-.35.35v.338c0 .194.157.35.35.35ZM34.056 142.618c5.348 0 9.684-4.336 9.684-9.684a9.684 9.684 0 0 0-9.684-9.684 9.684 9.684 0 0 0-9.685 9.684c0 5.348 4.336 9.684 9.685 9.684Z" fill="#C7DEFD"/><g fill="#000001"><path d="m59.977 94.696 6 62.186h-1.392l-9.925-60.41 5.317-1.776ZM38.29 94.696l-6.001 62.186h1.396l9.926-60.41-5.321-1.776Z"/></g><path d="M64.215 73.601v13.48c0 6.416-5.2 11.616-11.616 11.616h-6.927a11.585 11.585 0 0 1-7.833-3.035 11.583 11.583 0 0 1-3.783-8.581V73.6h30.159Z" fill="#fff" stroke="#0C0A0A" stroke-width=".53" stroke-miterlimit="10" stroke-linecap="round" stroke-linejoin="round"/><path d="M64.215 73.601v13.48c0 6.416-5.2 11.616-11.616 11.616h-6.927a11.584 11.584 0 0 1-7.833-3.035c5.084.608 14.856 1.45 17.469-.692 3.578-2.934 5.01-5.172 5.01-12.34 0-4.907.307-7.733.504-9.033h3.393v.004Z" fill="#C7DEFD"/><path d="M32.188 92.652h33.89c.66 0 1.196-.536 1.196-1.196v-1.155c0-.66-.535-1.195-1.196-1.195h-33.89c-.66 0-1.196.535-1.196 1.195v1.155c0 .66.536 1.196 1.196 1.196Z" fill="#FED964" stroke="#0C0A0A" stroke-width=".53" stroke-miterlimit="10" stroke-linecap="round" stroke-linejoin="round"/><path d="M41.14 65.58s-1.908-4.875-6.251-2.367c-2.673-5.374-6.996-2.029-6.996-2.029s-4.572-3.96-8.63-1.473c0 5.546 5.422 7.136 5.422 7.136s1.127 4.243 8.107 2.814c3.646 1.815 9.857.87 10.187-.314.326-1.188-1.84-3.768-1.84-3.768Z" fill="#43BA79" stroke="#0C0A0A" stroke-width=".407" stroke-miterlimit="10" stroke-linecap="round" stroke-linejoin="round"/><g fill="#fff"><path d="M24.013 62.923c-.12-.06-.241-.12-.358-.185-.684-.363-1.276-.737-1.75-1.12-.476-.382-.826-.764-1.027-1.146a.114.114 0 0 0-.153-.049c-.053.029-.077.1-.049.153.254.48.705.942 1.3 1.385.548.41 1.22.805 1.98 1.187.073-.016.146-.028.222-.048a1.388 1.388 0 0 1-.165-.177ZM36.116 66.79c-.008-.015-.02-.031-.028-.047a62.002 62.002 0 0 1-2.62-.592c.008.008.012.016.02.02a.12.12 0 0 1 .032.08.12.12 0 0 1-.032.081l-.044.044c.302.073.595.145.89.214.607.14 1.195.27 1.746.382l.125-.072a.803.803 0 0 1-.089-.11ZM40.029 67.318c-.338 0-.866-.048-1.534-.145a40.589 40.589 0 0 1-2.057-.358c.004.004.008.008.012.008a.11.11 0 0 1 .057.1c0 .041-.02.081-.056.101-.013.008-.025.016-.037.02.495.097.958.182 1.38.25.987.161 1.76.25 2.23.25a.112.112 0 0 0 .113-.113.11.11 0 0 0-.108-.113ZM33.142 66.075a66.491 66.491 0 0 1-2.19-.588c.04.012.069.04.08.08.013.04 0 .08-.027.109l-.049.048c.753.214 1.498.415 2.226.596.024-.024.048-.044.069-.068a.996.996 0 0 1-.11-.177ZM30.542 65.507a.992.992 0 0 1-.137-.177 66.155 66.155 0 0 1-1.856-.58l-.535-.18h.004a.112.112 0 0 1 .077.096.118.118 0 0 1-.057.112.43.43 0 0 0-.044.024c.886.302 1.795.588 2.705.854l.016-.016a.98.98 0 0 1-.173-.133ZM27.438 64.448a1.277 1.277 0 0 1-.096-.12 32.84 32.84 0 0 1-2.79-1.144.118.118 0 0 1-.076.08l-.185.05c.596.285 1.244.563 1.92.832.483.19.982.375 1.49.552l.023-.012a1.166 1.166 0 0 1-.286-.238Z"/><path d="M24.552 63.184c0-.004.005-.008.005-.016a.118.118 0 0 0-.057-.112 1.11 1.11 0 0 1-.366-.359 2.38 2.38 0 0 1-.298-.833 5.303 5.303 0 0 1-.076-.93c0-.27.016-.507.032-.68l.02-.201c.004-.024.004-.04.008-.052v-.016c.008-.065-.032-.121-.097-.13a.111.111 0 0 0-.128.097c0 .004-.065.431-.065.986 0 .403.032.87.153 1.296.06.214.145.415.258.592.024.036.048.069.072.1.048.065.105.13.165.182l-.221.048c-.43.085-.862.117-1.26.113a8.332 8.332 0 0 1-1.856-.213c-.012-.004-.02-.004-.028-.008h-.008a.116.116 0 0 0-.14.08c-.017.06.02.125.08.141.008 0 .85.23 1.952.23a6.733 6.733 0 0 0 1.771-.23.135.135 0 0 0 .084-.085ZM28.095 64.662a.114.114 0 0 0-.077-.097h-.004a.951.951 0 0 1-.406-.27c-.161-.18-.27-.434-.335-.712a3.888 3.888 0 0 1-.088-.861c0-.282.024-.54.044-.729.012-.093.024-.169.032-.221a.847.847 0 0 1 .012-.06c0-.009.005-.013.005-.017v-.004a.114.114 0 0 0-.093-.133.114.114 0 0 0-.133.093c0 .004-.092.483-.092 1.07 0 .391.04.826.18 1.208.053.141.121.274.206.395.028.044.06.084.097.12.08.093.177.173.285.238l-.024.012c-.644.334-1.352.56-1.92.7a9.791 9.791 0 0 1-1.01.201c-.028.005-.044.008-.06.008h-.021a.114.114 0 0 0-.1.13.114.114 0 0 0 .129.1c.004 0 .47-.056 1.115-.217.631-.157 1.44-.415 2.157-.822a.443.443 0 0 0 .044-.024c.04-.02.06-.064.057-.108ZM31.029 65.567a.116.116 0 0 0-.08-.08.554.554 0 0 1-.25-.145.933.933 0 0 1-.222-.427 2.445 2.445 0 0 1-.068-.616c0-.442.076-.921.153-1.292.04-.185.076-.342.104-.45l.037-.13c.004-.015.008-.023.008-.031.004-.008.004-.013.004-.013a.11.11 0 0 0-.077-.14c-.06-.017-.124.016-.14.076 0 .004-.081.266-.158.644a6.73 6.73 0 0 0-.157 1.34c0 .314.037.62.141.874a1.15 1.15 0 0 0 .218.334.773.773 0 0 0 .173.129l-.016.016c-.805.744-1.8 1.159-2.613 1.388-.43.121-.808.19-1.078.23-.133.02-.242.032-.318.036-.036.004-.065.004-.085.008h-.028a.113.113 0 0 0-.109.12.114.114 0 0 0 .121.11 7.83 7.83 0 0 0 1.554-.286c.865-.246 1.944-.7 2.805-1.538l.049-.048c.032-.028.044-.069.032-.109ZM33.516 66.256a.12.12 0 0 0-.032-.08c-.008-.009-.012-.017-.02-.021a.909.909 0 0 1-.153-.258 2.549 2.549 0 0 1-.149-.652 6.751 6.751 0 0 1-.04-.756c0-.298.016-.572.028-.773l.02-.238c.004-.028.004-.048.008-.064 0-.016.004-.02.004-.02a.114.114 0 0 0-.1-.129.114.114 0 0 0-.13.1c0 .005-.06.516-.06 1.124 0 .338.02.704.08 1.034.033.165.073.318.126.459a1.274 1.274 0 0 0 .145.266l-.069.068a14.835 14.835 0 0 1-2.805 2.125 3.715 3.715 0 0 1-.21.117c-.024.012-.044.024-.056.028-.008.004-.012.004-.012.008l-.004.004a.11.11 0 0 0-.048.153.11.11 0 0 0 .153.048c.008-.004 1.654-.845 3.244-2.419.016-.016.032-.028.044-.044a.101.101 0 0 0 .036-.08ZM36.51 66.924c0-.04-.02-.08-.055-.1-.005-.005-.009-.005-.013-.009a.561.561 0 0 1-.132-.149 2.98 2.98 0 0 1-.282-.624c-.133-.378-.25-.817-.33-1.163a12.011 12.011 0 0 1-.117-.551c-.004-.029-.008-.045-.008-.045-.012-.06-.072-.104-.133-.092-.06.012-.104.072-.092.133 0 0 .112.583.285 1.207.089.31.19.632.306.898.049.112.1.217.153.306.008.016.02.032.028.048l.085.113a57.4 57.4 0 0 1-2.157 1.195c-.238.125-.411.213-.524.266-.056.028-.096.048-.124.06a.07.07 0 0 1-.029.012l-.008.004h-.004c-.056.028-.084.093-.056.153.028.056.093.085.153.056.004 0 .845-.386 2.962-1.61a.158.158 0 0 1 .037-.02c.032-.012.056-.048.056-.088Z"/></g><path d="M52.41 72.47s2.302-2.966 4.053-5.091c1.94-2.351 5.72-4.05 9.672-1.285 4.737-4.544 8.4 1.023 9.253 3.812 3.526-1.55 4.38 3.43 4.38 3.43s-2.987 1.211-5.853-.238c-1.55 2.705-10.135 2.39-11.52-.83-3.582 3.728-9.986.202-9.986.202Z" fill="#43BA79" stroke="#0C0A0A" stroke-width=".607" stroke-miterlimit="10" stroke-linecap="round" stroke-linejoin="round"/><g fill="#fff"><path d="M76.334 71.222a.437.437 0 0 1 .1-.173 27.46 27.46 0 0 0-1.19-.515c-.516-.21-1.071-.418-1.667-.616-.008.008-.012.016-.02.024l-.016.037c.04.12.08.23.117.326.515.177 1.002.362 1.453.543.446.181.86.362 1.24.54-.009-.029-.013-.053-.02-.081a.202.202 0 0 1 .003-.085ZM73.207 70.023v-.036c0-.065.016-.129.044-.181a28.618 28.618 0 0 0-3.236-.837 1.97 1.97 0 0 0-.1.153c.003.024.011.06.02.096.003.024.011.052.016.085 1.19.233 2.302.53 3.304.86a2.91 2.91 0 0 1-.036-.104c-.012-.012-.012-.024-.012-.036ZM56.555 70.204l.024-.024c-.503.205-1.01.427-1.517.676-.068.024-.467.157-.978.387-.56.253-1.252.623-1.787 1.102a.168.168 0 0 0-.012.242.168.168 0 0 0 .241.012c.495-.443 1.163-.801 1.703-1.047a13.07 13.07 0 0 1 .881-.354l.053-.016a.04.04 0 0 0 .012-.004h.004a.057.057 0 0 1 .024-.008c.479-.233.958-.447 1.433-.644a1.614 1.614 0 0 1-.08-.088.173.173 0 0 1 0-.234ZM69.58 69.005c.02-.037.04-.069.065-.105a25.56 25.56 0 0 0-2.766-.342.485.485 0 0 0-.044.16c.004.061.008.118.016.178.95.064 1.864.181 2.733.338a.88.88 0 0 1-.02-.12c-.012-.033-.004-.073.016-.11ZM63.16 68.719c.008-.044.016-.089.029-.133-.922.08-1.868.217-2.83.423-.004.032-.008.064-.008.092 0 .028.004.057.008.085a.61.61 0 0 0 .068.16c.95-.205 1.884-.337 2.794-.418-.016-.036-.032-.072-.053-.112-.008-.029-.012-.065-.008-.097ZM79.244 72.57c-.004-.003-.901-.611-2.46-1.356a.43.43 0 0 0-.096.069l-.008.008c.028.109.057.21.08.294a23.626 23.626 0 0 1 2.025 1.103l.198.124c.024.016.04.024.048.032.004.005.008.009.012.009l.004.004a.173.173 0 0 0 .237-.045.172.172 0 0 0-.04-.241ZM60.013 69.105v-.012c-.934.218-1.88.5-2.834.853-.044.069-.088.13-.133.19a4.18 4.18 0 0 1-.136.18c.024.025.044.049.068.073 1.05-.41 2.085-.724 3.107-.962a.692.692 0 0 1-.072-.322ZM66.489 68.699a.712.712 0 0 1 .032-.161 23.033 23.033 0 0 0-2.962.024c-.02.052-.036.109-.048.169.028.06.052.117.08.173.551-.04 1.095-.056 1.63-.056.435 0 .861.012 1.284.036-.004-.052-.012-.1-.012-.153-.004-.016-.004-.024-.004-.032Z"/><path d="M69.906 69.125c.032-.052.065-.104.1-.153a3.25 3.25 0 0 1 .411-.467c.314-.297.66-.53.93-.688.137-.08.25-.14.33-.181.04-.02.073-.036.093-.044a.068.068 0 0 0 .024-.012l.004-.004c.088-.037.125-.137.088-.226a.17.17 0 0 0-.225-.088c-.008.004-.362.157-.8.45-.218.145-.46.33-.685.544-.197.19-.386.406-.54.648-.02.032-.044.068-.064.105a.159.159 0 0 0-.02.112l.02.121c.032.165.1.487.205.85.077.26.174.547.294.808.121.262.258.503.435.685a.171.171 0 0 0 .242.004.171.171 0 0 0 .003-.242c-.132-.133-.257-.346-.366-.588a6.531 6.531 0 0 1-.37-1.123c-.032-.124-.056-.237-.077-.326-.008-.032-.012-.06-.016-.084a.47.47 0 0 0-.016-.1ZM66.875 68.558c.008-.016.016-.036.025-.052.068-.13.189-.258.334-.37.217-.17.487-.307.7-.395l.266-.105a.722.722 0 0 1 .076-.024c.008-.004.016-.004.02-.008h.004a.176.176 0 0 0 .117-.213.176.176 0 0 0-.213-.117c-.008.004-.395.117-.801.342a2.404 2.404 0 0 0-.584.43 1.442 1.442 0 0 0-.221.295c-.033.06-.06.124-.08.193a.712.712 0 0 0-.033.16v.029l.012.153c.028.23.08.463.149.684.125.407.298.781.439 1.059.14.273.253.45.253.455a.17.17 0 0 0 .238.052.17.17 0 0 0 .052-.238c-.008-.016-.197-.318-.39-.74a5.911 5.911 0 0 1-.27-.7 3.41 3.41 0 0 1-.125-.552c-.008-.06-.016-.12-.016-.177.012-.052.024-.109.048-.161ZM63.559 68.558c.036-.097.08-.185.137-.27.137-.217.326-.386.479-.503.076-.056.145-.1.193-.133.024-.016.044-.024.056-.032.008-.004.012-.004.012-.008h.004a.168.168 0 0 0 .073-.23.168.168 0 0 0-.23-.072 2.571 2.571 0 0 0-.499.358 2.16 2.16 0 0 0-.374.44 1.653 1.653 0 0 0-.246.615.194.194 0 0 0 .012.097c.017.036.033.076.053.112.39.853.724 1.32.974 1.582.129.137.237.213.318.262.08.048.137.06.157.064a.17.17 0 0 0 .064-.334s-.125-.036-.346-.282c-.201-.225-.475-.624-.801-1.316-.028-.056-.052-.113-.08-.173.004-.064.024-.12.044-.177ZM60.355 69.105a.79.79 0 0 1 .097-.362c.092-.193.233-.394.354-.54.06-.072.116-.132.153-.172a.39.39 0 0 0 .044-.049l.012-.012.004-.004a.171.171 0 0 0 .004-.241.171.171 0 0 0-.242-.004c-.003.004-.189.185-.378.442-.092.13-.189.278-.265.435a1.22 1.22 0 0 0-.13.491v.012a.697.697 0 0 0 .073.322c.02.04.04.08.065.125.1.165.245.334.402.503.238.25.515.491.733.672.217.181.374.302.378.302.077.056.181.04.238-.032a.171.171 0 0 0-.033-.237l-.004-.005c-.04-.032-.398-.305-.76-.64a5.408 5.408 0 0 1-.5-.515 2.056 2.056 0 0 1-.169-.233c-.004-.004-.004-.012-.008-.016a.61.61 0 0 1-.068-.161v-.08ZM76.688 71.283a.653.653 0 0 1 .19-.113c.132-.056.297-.097.426-.125.065-.012.12-.024.161-.028.02-.004.036-.004.044-.008h.017a.173.173 0 0 0-.045-.342c-.004 0-.241.032-.495.105a1.802 1.802 0 0 0-.378.148.783.783 0 0 0-.161.117l-.012.012a.387.387 0 0 0-.1.173.15.15 0 0 0 0 .085c.007.028.011.052.02.08.168.652.325.91.337.926a.17.17 0 0 0 .238.052.166.166 0 0 0 .052-.233s-.004-.004-.008-.012a2.843 2.843 0 0 1-.21-.54c-.027-.084-.051-.185-.08-.293 0 0 0-.004.004-.004ZM73.56 69.942a.107.107 0 0 1 .021-.024.297.297 0 0 1 .036-.04.842.842 0 0 1 .194-.12 2.15 2.15 0 0 1 .478-.166c.016-.004.029-.008.037-.008h.008a.17.17 0 0 0 .132-.201.17.17 0 0 0-.2-.133c-.005 0-.242.052-.492.157a1.47 1.47 0 0 0-.362.206.607.607 0 0 0-.161.2.445.445 0 0 0-.044.182v.036c0 .016.004.028.008.04l.036.105c.193.56.346.861.463 1.034.06.093.113.15.157.186a.252.252 0 0 0 .125.06.172.172 0 0 0 .197-.141.175.175 0 0 0-.1-.185l-.009-.008a1.105 1.105 0 0 1-.181-.278 5.798 5.798 0 0 1-.233-.535 9.15 9.15 0 0 1-.117-.326c-.004-.016-.004-.024.008-.04ZM57.046 70.132c.045-.06.085-.121.133-.19.117-.173.246-.374.37-.583a43.83 43.83 0 0 0 1.08-1.884.176.176 0 0 0-.07-.233.176.176 0 0 0-.233.068l-.016.028c-.072.129-.394.72-.76 1.345-.182.31-.375.631-.552.901a8.029 8.029 0 0 1-.25.367 2.712 2.712 0 0 1-.173.22c-.008.009-.016.021-.024.025a.172.172 0 0 0-.004.23c.028.032.057.06.08.088.516.551 1.116.946 1.595 1.212.507.277.881.41.89.41a.17.17 0 1 0 .112-.322 6.296 6.296 0 0 1-.861-.402 6.27 6.27 0 0 1-1.393-1.035c-.024-.024-.044-.048-.069-.072a.917.917 0 0 0 .145-.173Z"/></g><path d="M48.558 72.007s-16.805-4.794-7.773-15.238c-7.345-5.994-.346-12.595 3.776-14.502-2.701-4.879 4.721-7.29 4.721-7.29s2.137 4.158.246 8.75c4.242 1.68 5.373 9.415.66 12.213 5.997 4.455 5.063 13.713-1.63 16.067Z" fill="#43BA79" stroke="#0C0A0A" stroke-width=".53" stroke-miterlimit="10" stroke-linecap="round" stroke-linejoin="round"/><g fill="#fff"><path d="M48.71 35.806a.146.146 0 0 0-.2.057c-.005.004-.866 1.541-1.86 4.142.004 0 .004.003.008.003.024.02.044.033.064.037l.278-.117c.382-.986.74-1.811 1.034-2.447.222-.475.407-.846.536-1.095.064-.125.116-.221.149-.282.016-.032.032-.056.04-.072.004-.008.008-.012.008-.016l.004-.004a.156.156 0 0 0-.06-.206ZM46.714 40.35a.424.424 0 0 1-.173-.06 46.733 46.733 0 0 0-1.477 4.701h.004c.012 0 .024 0 .036-.004.109-.056.214-.104.31-.157a46.192 46.192 0 0 1 1.433-4.516l-.06.025c-.024.012-.049.016-.073.012ZM45.189 45.277a.619.619 0 0 1-.121.012c-.028 0-.052-.004-.076-.008a42.69 42.69 0 0 0-.966 5.257c.044.02.088.04.132.056.004 0 .008-.004.012-.004.037-.012.093-.032.157-.056.23-1.908.584-3.695.99-5.325l-.096.048c-.012.012-.024.016-.032.02ZM43.909 55.553h-.065c-.032 0-.06 0-.092-.004a34.71 34.71 0 0 0 .366 4.629c.044.004.089.008.137.008l.153-.097a34.517 34.517 0 0 1-.358-4.572c-.04.008-.08.02-.121.028-.008.008-.012.008-.02.008ZM45.237 65.068a31.372 31.372 0 0 0 3.196 7.016.15.15 0 0 0 .205.048.15.15 0 0 0 .048-.205 31.04 31.04 0 0 1-3.167-6.96.926.926 0 0 1-.13.061.714.714 0 0 1-.152.04ZM44.291 60.492c-.044 0-.084-.004-.125-.004a32.8 32.8 0 0 0 .982 4.298.757.757 0 0 0 .282-.108 31.093 31.093 0 0 1-.97-4.259c-.028.016-.056.037-.084.053a.216.216 0 0 1-.085.02ZM44.094 50.896c-.036-.016-.073-.028-.105-.044a37.969 37.969 0 0 0-.237 4.238v.161a.78.78 0 0 0 .096.004h.037c.056-.012.112-.024.165-.04v-.125c0-1.453.088-2.866.237-4.218l-.093.032a.173.173 0 0 1-.1-.008Z"/><path d="M44.154 50.598c-.044-.02-.088-.036-.133-.056-.724-.334-1.328-.914-1.758-1.429a7.007 7.007 0 0 1-.536-.724 10.196 10.196 0 0 1-.177-.282c-.004-.008-.008-.012-.008-.016v-.004a.147.147 0 0 0-.201-.06.147.147 0 0 0-.06.2c.003.005.273.5.756 1.075.463.556 1.127 1.192 1.952 1.55.036.016.069.032.105.044a.171.171 0 0 0 .1.004l.093-.032a15.44 15.44 0 0 0 1.332-.527c.383-.173.797-.379 1.176-.612.374-.233.716-.491.954-.773a.148.148 0 0 0-.02-.21.148.148 0 0 0-.21.021c-.205.245-.523.491-.881.712-.54.334-1.176.62-1.675.822-.25.1-.463.18-.616.233l-.02.008c-.068.024-.12.04-.157.056h-.016ZM43.844 55.255c-.032 0-.064 0-.096-.004a1.195 1.195 0 0 1-.286-.072 1.838 1.838 0 0 1-.608-.443 4.575 4.575 0 0 1-.664-.958 4.924 4.924 0 0 1-.225-.47c-.004-.013-.009-.021-.013-.029l-.003-.008a.15.15 0 0 0-.194-.085.15.15 0 0 0-.084.194c.004.004.21.535.575 1.07.185.27.407.54.672.749.133.105.278.193.431.258a1.34 1.34 0 0 0 .495.1h.065c.008 0 .016 0 .024-.004.04-.008.08-.016.12-.028.37-.089.741-.23 1.1-.395a12.066 12.066 0 0 0 2.18-1.36.152.152 0 0 0 .025-.21.152.152 0 0 0-.21-.023l-.003.004c-.049.04-.495.394-1.12.776-.31.19-.663.39-1.034.56-.31.14-.627.261-.937.342-.057.016-.113.028-.166.04-.02-.004-.032-.004-.044-.004ZM44.118 60.182a1.997 1.997 0 0 1-.612-.173 2.866 2.866 0 0 1-.833-.612 3.148 3.148 0 0 1-.225-.262l-.057-.076c-.008-.008-.012-.016-.012-.02l-.004-.004a.15.15 0 0 0-.205-.045.15.15 0 0 0-.044.206c.004.008.209.322.58.64.184.16.414.322.68.442.233.11.494.186.784.21.04.004.085.004.125.004a.183.183 0 0 0 .08-.02c.029-.017.057-.037.085-.053 1.288-.793 1.968-1.404 2.327-1.827.366-.43.406-.676.41-.712a.148.148 0 0 0-.133-.162.148.148 0 0 0-.16.13c0 .003-.037.209-.391.607-.334.378-.958.93-2.101 1.642-.048.032-.1.065-.153.097l-.141-.012ZM45.148 64.782a1.039 1.039 0 0 1-.16.013c-.182 0-.379-.045-.576-.117a4.054 4.054 0 0 1-.793-.403 6.107 6.107 0 0 1-.254-.173c-.028-.02-.052-.04-.068-.052-.008-.004-.012-.012-.016-.012l-.004-.004a.148.148 0 0 0-.21.024.148.148 0 0 0 .025.21c.004.003.257.204.616.41.18.1.386.205.603.282.218.076.447.132.676.132a1.28 1.28 0 0 0 .403-.064 1.544 1.544 0 0 0 .382-.23 5.16 5.16 0 0 0 .697-.696c.346-.406.684-.87.933-1.231.25-.363.41-.624.415-.624a.147.147 0 0 0-.048-.206.147.147 0 0 0-.206.049l-.004.008c-.044.068-.422.668-.893 1.284-.234.31-.491.62-.737.87-.12.124-.241.233-.35.321a2.08 2.08 0 0 1-.149.105.806.806 0 0 1-.145.072 1.336 1.336 0 0 1-.137.032ZM46.654 40.008c-.004 0-.004-.004-.008-.004a.44.44 0 0 1-.097-.108 1.57 1.57 0 0 1-.177-.318 3.575 3.575 0 0 1-.185-.54l-.048-.189a.346.346 0 0 0-.013-.052c0-.008-.003-.012-.003-.012v-.004a.15.15 0 0 0-.178-.117.15.15 0 0 0-.116.177c0 .004.072.342.205.697.068.177.149.358.254.507a.944.944 0 0 0 .25.245.444.444 0 0 0 .172.06.15.15 0 0 0 .073-.007l.06-.025c.998-.406 1.372-.708 1.389-.716a.152.152 0 0 0 .024-.21.152.152 0 0 0-.21-.024s-.004.005-.016.013c-.072.052-.378.265-1.034.551-.085.036-.177.076-.278.117a.238.238 0 0 1-.064-.04ZM45.068 44.991a.259.259 0 0 1-.125-.036.808.808 0 0 1-.245-.241 2.99 2.99 0 0 1-.294-.56c-.036-.088-.06-.16-.08-.217-.009-.028-.017-.048-.02-.064-.005-.009-.005-.013-.005-.017v-.004a.147.147 0 0 0-.185-.1.147.147 0 0 0-.1.185c0 .004.096.322.261.648.085.165.185.33.314.463a.86.86 0 0 0 .213.169c.057.032.121.056.19.064a.495.495 0 0 0 .197-.004.272.272 0 0 0 .032-.012l.097-.048c.853-.427 1.304-.729 1.545-.934.125-.105.197-.185.238-.25a.335.335 0 0 0 .06-.136.148.148 0 0 0-.133-.161.146.146 0 0 0-.157.108v.004c-.012.02-.08.13-.338.318-.217.161-.563.379-1.11.664-.097.049-.202.101-.31.157-.02.004-.033.004-.045.004Z"/></g><path d="M46.851 71.154s-3.783-11.37 8.118-12.168c1.136-8.355 6.4-8.404 9.524-6.307 2.326-4.391 9.088.817 9.088.817s-2.053 3.619-6.138 4.48c.616 3.953-4.42 8.585-8.432 6.484-.616 6.613-7.62 10.47-12.16 6.694Z" fill="#FED964" stroke="#0C0A0A" stroke-width=".53" stroke-miterlimit="10" stroke-linecap="round" stroke-linejoin="round"/><g fill="#fff"><path d="M56.58 59.647a.79.79 0 0 1-.069-.13 30.383 30.383 0 0 0-3.115 2.516c.02.045.04.093.064.137.053.024.1.052.15.073.212-.198.426-.387.64-.576a30.794 30.794 0 0 1 2.434-1.908l-.092-.096c-.004-.004-.008-.008-.012-.016ZM59.977 57.49c-.004-.037-.008-.073-.016-.105a33.115 33.115 0 0 0-3.204 1.96c.016.044.04.088.064.129.036.04.073.076.109.112a32.922 32.922 0 0 1 3.171-1.94l-.08-.068a.204.204 0 0 1-.044-.089ZM64.46 55.545a.46.46 0 0 1-.096-.157 35.817 35.817 0 0 0-4.114 1.843c.004.053.012.105.016.157l.121.101.004.004a36.316 36.316 0 0 1 4.19-1.872c-.028-.02-.06-.036-.088-.056a.087.087 0 0 1-.032-.02ZM68.626 54.245a.426.426 0 0 1-.032-.173 37.781 37.781 0 0 0-3.948 1.211c.008.017.016.033.028.045.092.06.185.112.265.165a38.466 38.466 0 0 1 3.792-1.147l-.056-.045a.095.095 0 0 1-.049-.056ZM50.353 65.294a29.71 29.71 0 0 0-3.635 5.796.147.147 0 0 0 .069.197.147.147 0 0 0 .197-.069 29.632 29.632 0 0 1 3.598-5.74.679.679 0 0 1-.124-.084.623.623 0 0 1-.105-.1ZM72.607 53.343c-.008 0-1.457.117-3.707.652-.008.029-.008.053-.008.073v.024c.077.056.153.113.221.161a33.905 33.905 0 0 1 1.82-.374c.535-.093.962-.153 1.251-.19.145-.016.258-.032.335-.036.036-.004.064-.008.084-.008h.028a.151.151 0 0 0 .137-.16c-.008-.085-.076-.15-.16-.142ZM53.219 62.351a1.275 1.275 0 0 1-.053-.104 29.82 29.82 0 0 0-2.624 2.809.538.538 0 0 0 .233.185 29.286 29.286 0 0 1 2.6-2.785l-.092-.048c-.028-.008-.048-.029-.064-.057Z"/><path d="M60.267 57.389a4.068 4.068 0 0 1-.028-.471c0-.673.176-1.345.354-1.848.088-.25.177-.459.245-.604.032-.072.06-.129.08-.169.009-.02.017-.032.02-.044l.005-.012v-.004a.147.147 0 0 0-.06-.201.147.147 0 0 0-.202.06c-.004.004-.19.35-.374.873-.185.524-.37 1.224-.37 1.948 0 .154.008.31.028.463.004.037.008.073.016.105a.148.148 0 0 0 .048.089l.08.068c.15.129.5.415.93.712.29.198.612.403.942.568.33.165.66.29.97.326a.15.15 0 0 0 .165-.129c.008-.08-.048-.157-.129-.165-.257-.028-.563-.14-.873-.298a8.646 8.646 0 0 1-1.296-.829c-.173-.133-.322-.25-.423-.334l-.004-.004c-.056-.04-.096-.076-.124-.1ZM56.825 59.474a.778.778 0 0 1-.064-.13 1.044 1.044 0 0 1-.065-.382c0-.201.044-.418.113-.636.1-.322.258-.636.386-.865.065-.117.125-.21.165-.274l.049-.076c.004-.008.012-.016.012-.02l.004-.004a.15.15 0 0 0-.036-.21.15.15 0 0 0-.21.037 5.862 5.862 0 0 0-.39.668 4.735 4.735 0 0 0-.27.656 2.49 2.49 0 0 0-.125.724c0 .194.032.383.117.556.02.044.044.084.069.129a2.067 2.067 0 0 0 .109.117c.47.474 1.102.848 1.63 1.11.563.278 1.014.43 1.018.43a.15.15 0 0 0 .189-.092.15.15 0 0 0-.093-.189h-.004a9.463 9.463 0 0 1-1.026-.439c-.487-.245-1.05-.583-1.465-.99-.04-.044-.077-.08-.113-.12ZM53.396 62.033a1.866 1.866 0 0 1-.133-.716c0-.294.056-.572.113-.769a3.49 3.49 0 0 1 .1-.302c.004-.008.004-.012.008-.016v-.004a.15.15 0 0 0-.076-.197.15.15 0 0 0-.197.076c-.004.004-.065.141-.125.363-.06.217-.125.519-.125.853a2.186 2.186 0 0 0 .25 1.034.155.155 0 0 0 .064.06l.093.049c1.38.688 2.161.833 2.584.833.261 0 .382-.056.406-.072a.147.147 0 0 0 .056-.202.151.151 0 0 0-.197-.06s-.004.004-.016.004a.922.922 0 0 1-.253.028c-.343 0-1.059-.116-2.351-.752-.048-.025-.1-.049-.149-.073a.96.96 0 0 0-.052-.137ZM50.542 65.056a.89.89 0 0 1-.077-.12 1.758 1.758 0 0 1-.152-.516 3.878 3.878 0 0 1-.04-.555c0-.15.007-.278.011-.367.004-.044.008-.08.008-.108 0-.012.005-.02.005-.028v-.008a.146.146 0 0 0-.13-.165.146.146 0 0 0-.164.128c0 .004-.029.238-.029.548 0 .241.017.535.085.813.032.137.077.273.14.398.041.08.09.153.15.218a.895.895 0 0 0 .109.104c.04.032.08.057.124.085l.121.06c.161.069.358.117.567.157.319.06.673.093 1.007.113.334.02.644.024.87.024.212 0 .35-.004.353-.004.08-.004.15-.073.145-.153-.004-.08-.072-.149-.153-.145h-.024c-.048 0-.16.004-.318.004-.338 0-.87-.012-1.368-.064a5.133 5.133 0 0 1-.693-.117c-.1-.024-.189-.056-.265-.089-.016-.008-.032-.012-.044-.02a.731.731 0 0 1-.13-.076.598.598 0 0 1-.108-.117ZM68.888 54.072c0-.02.004-.044.008-.073l.012-.048c.028-.084.08-.189.145-.29a3.85 3.85 0 0 1 .314-.422c.048-.057.093-.105.12-.137l.037-.036.008-.008.004-.004a.147.147 0 0 0-.004-.21.147.147 0 0 0-.21.004 5.435 5.435 0 0 0-.358.423c-.088.12-.18.254-.25.39a1.506 1.506 0 0 0-.088.206.64.64 0 0 0-.036.213c0 .056.008.117.032.173a.14.14 0 0 0 .049.06l.056.045c.708.527 1.083.66 1.099.664a.15.15 0 0 0 .189-.093.15.15 0 0 0-.093-.189c-.004 0-.281-.1-.813-.475-.068-.048-.14-.1-.221-.16.004-.017 0-.025 0-.033ZM64.642 55.283a.275.275 0 0 1-.013-.088c0-.08.029-.185.073-.298.068-.169.181-.346.27-.479.044-.068.088-.12.116-.16.017-.021.029-.037.037-.045l.008-.012.004-.004a.148.148 0 0 0-.02-.21.148.148 0 0 0-.21.02c-.004.005-.14.17-.281.4-.073.112-.141.24-.198.377a1.075 1.075 0 0 0-.096.415c0 .06.008.125.028.185 0 .004.004.004.004.008.02.056.052.113.096.157.009.008.017.016.029.024.032.02.06.036.088.057.495.31.845.487 1.095.591.266.109.419.137.515.137a.26.26 0 0 0 .133-.028.147.147 0 0 0 .056-.201.147.147 0 0 0-.177-.069h-.012c-.036 0-.16-.012-.402-.116a6.761 6.761 0 0 1-.854-.447c-.084-.053-.173-.105-.265-.165l-.024-.049Z"/></g><path d="M47.362 71.057s-3.019.153-5.228.33c-2.447.198-5.313 1.912-5.305 5.796-5.184 1.035-3.196 6.022-1.747 7.87-2.649 1.613.245 4.471.245 4.471s2.178-1.413 2.54-3.977c2.5.226 6.251-5.59 4.762-7.99 4.113-.643 4.733-6.5 4.733-6.5Z" fill="#43BA79" stroke="#0C0A0A" stroke-width=".53" stroke-miterlimit="10" stroke-linecap="round" stroke-linejoin="round"/><g fill="#fff"><path d="M41.421 74.732a.187.187 0 0 0-.028-.012 18.167 18.167 0 0 0-1.566 1.654c.037.012.073.029.11.045a.147.147 0 0 1 .064.056c.02.032.036.06.052.093.467-.56.982-1.107 1.545-1.635a.631.631 0 0 0-.076-.128.28.28 0 0 0-.1-.073ZM43.603 73.054h-.145c-.66.459-1.272.946-1.835 1.453.04.028.08.056.112.096a.54.54 0 0 1 .089.125c.62-.56 1.3-1.09 2.044-1.594-.004-.028-.012-.056-.016-.084-.068.004-.152.004-.25.004ZM36.958 81.08h-.037a22.439 22.439 0 0 0-.93 2.495l.065.012c.04.012.08.032.113.065l.024.024c.02.028.036.052.056.076a21.222 21.222 0 0 1 .946-2.556c-.048-.052-.084-.092-.113-.116h-.124ZM47.507 71.021a.149.149 0 0 0-.181-.109c-.568.137-1.131.423-1.554.677-.386.229-.656.43-.708.466-.398.222-.777.451-1.143.689.012 0 .02-.004.032-.004a.144.144 0 0 1 .165.112l.024.105a21.25 21.25 0 0 1 1.079-.648c.004-.004.012-.008.02-.012l.004-.004c.032-.024.318-.238.725-.475.406-.237.933-.5 1.433-.62a.143.143 0 0 0 .104-.177ZM35.963 83.877c-.008-.004-.016-.004-.028-.004-.008 0-.02 0-.032.004-.109.378-.205.74-.29 1.087a21.85 21.85 0 0 0-.273 1.3.357.357 0 0 1 .177.008.132.132 0 0 1 .06.044c.016.02.032.036.048.057.117-.657.282-1.417.516-2.246-.053-.073-.11-.157-.174-.246 0-.004 0-.004-.004-.004ZM38.093 78.818a20.117 20.117 0 0 0-1.035 1.964c.036 0 .073.004.105.008a.15.15 0 0 1 .093.04s.028.028.072.077c.294-.64.636-1.292 1.026-1.94a2.606 2.606 0 0 0-.116-.101.442.442 0 0 0-.145-.048ZM39.622 76.624c-.096.12-.193.241-.286.366a19.705 19.705 0 0 0-1.078 1.562.943.943 0 0 1 .133.056l.02.012c.036.028.068.057.1.089a19.29 19.29 0 0 1 1.127-1.622l.214-.274c-.029-.048-.057-.093-.085-.145a1.533 1.533 0 0 0-.145-.044ZM35.36 86.562c-.02.008-.049.02-.073.032-.221 1.36-.233 2.222-.233 2.23 0 .08.064.149.149.153.08 0 .149-.065.153-.15v-.007c0-.08.02-.862.213-2.061a10.68 10.68 0 0 0-.169-.205c-.016.004-.028.004-.04.008Z"/><path d="M37.255 80.83a.13.13 0 0 0-.092-.04c-.036-.004-.072-.004-.105-.008-.032 0-.064-.004-.096-.004-.495 0-.97.149-1.325.294a4.23 4.23 0 0 0-.595.293.15.15 0 0 0-.049.206.15.15 0 0 0 .206.048c.008-.004.233-.14.567-.278.322-.132.745-.257 1.16-.261h.036c.04 0 .084 0 .124.004.029.028.065.068.113.117.1.108.242.265.387.446.128.161.257.342.362.52.105.177.18.35.205.495.016.08.093.132.173.116a.147.147 0 0 0 .117-.173 2.061 2.061 0 0 0-.254-.608 5.58 5.58 0 0 0-.6-.805c-.108-.124-.2-.221-.261-.285-.044-.049-.073-.077-.073-.077ZM38.39 78.608a.853.853 0 0 0-.398-.097c-.165 0-.33.04-.483.093a3.12 3.12 0 0 0-.604.302c-.157.1-.257.181-.261.181a.148.148 0 0 0-.024.21.148.148 0 0 0 .209.024c.008-.004.177-.137.406-.266.117-.064.246-.129.379-.173.133-.044.261-.077.378-.077a.77.77 0 0 1 .1.008c.053.008.101.025.142.045.04.032.08.064.116.1.254.238.48.56.64.838.097.16.17.31.222.414l.056.125.016.032.004.008v.004a.15.15 0 0 0 .278-.117c0-.004-.117-.277-.318-.62-.181-.31-.43-.672-.74-.945-.033-.028-.07-.06-.101-.089-.004.008-.008.004-.016 0ZM39.936 76.419c-.036-.016-.072-.032-.108-.045a1.432 1.432 0 0 0-.472-.08 1.997 1.997 0 0 0-.877.213.152.152 0 0 0-.064.201c.04.073.129.101.2.065a1.69 1.69 0 0 1 .737-.177 1.002 1.002 0 0 1 .411.08l.085.145c.213.37.342.66.418.878.089.253.109.414.109.503 0 .04-.004.068-.008.08 0 .008-.004.008-.004.008a.147.147 0 0 0 .072.19.147.147 0 0 0 .197-.069.465.465 0 0 0 .037-.21c0-.128-.028-.321-.125-.603a6.008 6.008 0 0 0-.5-1.026c-.015-.032-.035-.06-.051-.093a.093.093 0 0 0-.057-.06ZM41.627 74.507a1.15 1.15 0 0 0-.395-.14 1.878 1.878 0 0 0-.33-.025c-.29 0-.527.048-.535.048a.147.147 0 0 0-.117.173c.016.08.093.133.173.117.008 0 .23-.04.48-.04.124 0 .257.012.37.04a.849.849 0 0 1 .12.04l.028.012a.34.34 0 0 1 .1.073.396.396 0 0 1 .077.128s0 .004.004.004c.049.113.093.27.13.44.052.257.084.543.104.76l.02.27c0 .032.004.06.004.076v.028c.004.08.072.145.153.145a.154.154 0 0 0 .145-.153c0-.004-.012-.37-.069-.789a5.025 5.025 0 0 0-.116-.624 2.417 2.417 0 0 0-.093-.273 1.912 1.912 0 0 0-.048-.093.542.542 0 0 0-.089-.125c-.036-.036-.076-.064-.116-.092ZM35.517 86.272a.342.342 0 0 0-.109-.016c-.024 0-.044.004-.068.008a.365.365 0 0 0-.089.024.884.884 0 0 0-.233.129c-.11.076-.21.169-.286.237a2.936 2.936 0 0 0-.125.125.147.147 0 0 0 .008.21c.06.056.157.052.21-.009.007-.012.116-.124.245-.233.064-.052.133-.105.197-.141.004-.004.008-.004.012-.004a.267.267 0 0 1 .073-.032c.012-.004.024-.008.036-.008.064.076.12.145.169.205a2.311 2.311 0 0 1 .241.37l.004.004c.033.077.121.113.194.08a.15.15 0 0 0 .08-.197c-.008-.016-.105-.241-.455-.648a.689.689 0 0 1-.048-.056.096.096 0 0 0-.056-.048ZM36.169 83.652a.45.45 0 0 0-.113-.065.166.166 0 0 0-.064-.012c-.02-.004-.04-.004-.057-.004a.683.683 0 0 0-.285.073c-.133.06-.254.148-.347.217a2.545 2.545 0 0 0-.153.129.147.147 0 0 0-.008.21c.057.06.15.063.21.007.008-.008.108-.1.233-.185.06-.044.129-.085.193-.113a.466.466 0 0 1 .121-.04c.012 0 .024-.004.032-.004.012 0 .024 0 .028.004a7.723 7.723 0 0 1 .177.25c.13.189.21.33.258.43.036.073.052.121.065.153.008.024.008.04.008.044a.148.148 0 0 0 .08.162.147.147 0 0 0 .197-.069.193.193 0 0 0 .016-.088c0-.073-.024-.17-.104-.335a4.723 4.723 0 0 0-.419-.664c-.02-.024-.036-.048-.056-.076.008-.008 0-.016-.012-.024ZM43.953 72.74c-.008 0-.02.004-.032.004a3.39 3.39 0 0 1-.318.012c-.41 0-1.006-.044-1.497-.089-.246-.02-.463-.044-.62-.06l-.185-.02c-.045-.004-.069-.008-.069-.008a.15.15 0 0 0-.165.133.15.15 0 0 0 .133.165s.386.044.881.088c.443.04.966.08 1.381.089h.145c.093 0 .177-.004.254-.008.004.028.012.056.016.084.048.274.068.548.068.805a5.761 5.761 0 0 1-.137 1.228l-.016.072c-.004.008-.004.016-.004.02v.004a.15.15 0 0 0 .105.186.15.15 0 0 0 .185-.105c.004-.008.173-.612.173-1.405 0-.306-.024-.64-.097-.982l-.024-.105a.166.166 0 0 0-.177-.108Z"/></g><path d="M49.805 66.827s5.036-2.097 7.85 3.526c2.813 5.623-1.703 8.803-1.703 8.803s-4.4-2.572-5.37-4.508c-.97-1.936-3.473-2.339-3.473-2.339s-.387-4.226 2.696-5.482Z" fill="#43BA79" stroke="#0C0A0A" stroke-width=".53" stroke-miterlimit="10" stroke-linecap="round" stroke-linejoin="round"/><g fill="#fff"><path d="M55.984 74.615c.314 1.212.382 2.371.378 3.144a9.71 9.71 0 0 1-.032.87c0 .02-.004.036-.004.048v.016a.152.152 0 0 0 .133.165.152.152 0 0 0 .165-.133c0-.004.04-.374.04-.966 0-.777-.069-1.94-.378-3.172l-.423-.402c.044.145.084.29.12.43ZM53.058 70.228a.148.148 0 0 1 .092-.096c.02-.008.04-.012.06-.02a3.687 3.687 0 0 0-1.614-.362 4.5 4.5 0 0 0-1.078.136l-.254.274c.032.024.065.052.093.076.394-.116.813-.189 1.243-.189.423 0 .854.073 1.285.246.072.028.144.064.217.096-.004-.012-.012-.02-.016-.028a.147.147 0 0 1-.028-.133ZM55.778 73.694l.343.326c-.343-1.083-.89-2.186-1.767-3.08a4.357 4.357 0 0 0-.793-.64c-.053.017-.105.037-.157.053.004.016.012.036.016.056.012.053.02.109.024.17.237.152.47.338.7.57.717.73 1.208 1.603 1.542 2.5.032.008.068.02.092.045ZM49.894 70.196a.149.149 0 0 1 .04-.12l.024-.029a7.251 7.251 0 0 0-1.03.467 7.003 7.003 0 0 0-1.14.769.151.151 0 0 0-.015.21c.052.06.149.068.209.015.02-.02.455-.386 1.119-.748.27-.15.58-.294.914-.415-.02-.016-.04-.028-.06-.044a.148.148 0 0 1-.061-.105Z"/><path d="m57.871 75.69-1.746-1.666-.343-.326a.149.149 0 0 0-.096-.04h-.028a.162.162 0 0 0-.109.076l-1.171 2.121a.148.148 0 0 0 .06.201c.073.04.161.013.201-.06l1.08-1.952.148.14.423.403 1.38 1.316c.06.057.153.057.21-.004a.155.155 0 0 0-.009-.209ZM53.408 70.361c.052-.02.104-.036.157-.052 1.276-.427 1.932-.507 2.238-.507.104 0 .169.008.2.016.017.004.025.008.029.008a.145.145 0 0 0 .193-.057.15.15 0 0 0-.048-.205c-.032-.02-.129-.064-.374-.064-.379 0-1.127.104-2.593.611-.02.008-.04.013-.06.02a.148.148 0 0 0-.093.097.156.156 0 0 0 .02.133c.005.008.013.016.017.028a.347.347 0 0 1 .032.093c.012.056.02.124.02.205 0 .237-.06.567-.157.918-.14.527-.358 1.103-.54 1.55-.088.22-.172.41-.229.547-.028.068-.052.12-.068.157l-.02.04c-.004.008-.008.012-.008.012a.144.144 0 0 0 .072.197c.077.036.165 0 .197-.072 0-.004.262-.564.524-1.26.128-.346.261-.728.358-1.095.096-.366.165-.708.165-.994 0-.036 0-.068-.004-.1a1.064 1.064 0 0 0-.024-.17.13.13 0 0 0-.004-.056ZM50.518 69.882l1.288-1.389a.147.147 0 0 0-.008-.209.147.147 0 0 0-.21.008l-1.63 1.76-.024.027a.164.164 0 0 0-.04.121c.004.044.028.08.064.109a.58.58 0 0 1 .06.044 1.5 1.5 0 0 1 .492.588c.104.23.14.47.14.7a2.57 2.57 0 0 1-.164.881c-.008.025-.017.045-.02.057-.005.008-.005.012-.005.012v.004a.15.15 0 0 0 .077.197.15.15 0 0 0 .197-.076 2.91 2.91 0 0 0 .217-1.075c0-.262-.04-.547-.169-.825a1.713 1.713 0 0 0-.422-.576c-.028-.028-.06-.052-.093-.076l.25-.282Z"/></g><path d="M44.223 70.792s-3.864 6.416-10.856 5.924c-1.171 3.462-3.944 3.321-5.671 2.71-.362-3.293 2.72-5.14 3.61-5.14-.338-3.02 8.304-7.471 12.917-3.494Z" fill="#FED964" stroke="#0C0A0A" stroke-width=".53" stroke-miterlimit="10" stroke-linecap="round" stroke-linejoin="round"/><g fill="#fff"><path d="M39.791 71.484c-.555.161-1.15.358-1.763.604a27.54 27.54 0 0 0-1.159.487.113.113 0 0 0 .024.004c.053 0 .1.028.13.072.027.044.027.1.003.145a.43.43 0 0 1-.024.044c.382-.169.765-.33 1.139-.478a19.747 19.747 0 0 1 2.242-.733l.016-.016-.608-.129ZM30.534 76.254c-.206.16-.399.318-.58.474a8.1 8.1 0 0 0-.813.802 3.667 3.667 0 0 0-.527.748.151.151 0 0 0 .064.201.151.151 0 0 0 .201-.064c.105-.21.27-.443.487-.688.375-.43.906-.898 1.538-1.38.02-.017.04-.029.06-.045l.009-.129-.44.08ZM36.672 72.832a4.273 4.273 0 0 1-.201-.072 36.57 36.57 0 0 0-2.713 1.384l.056.013c.04.008.073.036.093.068.02.036.024.077.016.117l-.016.06a36.231 36.231 0 0 1 2.668-1.364l.097-.206ZM33.38 74.362a27.385 27.385 0 0 0-2.303 1.485l.032-.008a.153.153 0 0 1 .13.036.142.142 0 0 1 .047.121l-.004.069a26.68 26.68 0 0 1 2.254-1.45l.057-.2-.214-.053ZM43.494 70.78c-.008 0-1.276.068-3.079.53l.31.07c.056.011.1.056.113.108 0 .008 0 .016.004.024a19.687 19.687 0 0 1 2.242-.398c.137-.016.245-.025.318-.032.036-.005.064-.005.08-.009h.028a.152.152 0 0 0 .141-.157.149.149 0 0 0-.157-.136Z"/><path d="m40.73 71.38-.31-.07-2.468-.53a.148.148 0 1 0-.064.29l1.903.41.604.129-.016.016a3.517 3.517 0 0 0-.262.334c-.12.173-.237.386-.33.636a2.46 2.46 0 0 0-.153.837c0 .08.069.149.15.149.08 0 .148-.069.148-.149 0-.27.052-.515.133-.733a2.697 2.697 0 0 1 .648-.99c.024-.024.044-.04.056-.052.008-.004.012-.012.017-.012l.003-.004a.149.149 0 0 0 .053-.125c0-.008 0-.016-.004-.024a.137.137 0 0 0-.109-.113ZM37.022 72.651a.154.154 0 0 0-.129-.072s-.008 0-.024-.004l-.016-.004c-.044-.008-.113-.032-.193-.06a7.297 7.297 0 0 1-.515-.222 23.922 23.922 0 0 1-1.127-.555c-.037-.02-.065-.033-.085-.045a.089.089 0 0 1-.028-.016.145.145 0 0 0-.201.065.145.145 0 0 0 .064.2s.439.23.918.464a12.232 12.232 0 0 0 .785.354c.072.028.14.056.2.072h.005l-.097.206c-.442.962-.595 1.759-.6 1.767a.145.145 0 0 0 .117.173.145.145 0 0 0 .173-.117v-.004c.008-.052.202-.982.729-2.012.008-.017.016-.033.024-.045a.144.144 0 0 0 0-.145ZM33.907 74.225a.143.143 0 0 0-.093-.068l-.056-.012-1.36-.318a.151.151 0 0 0-.182.112c-.02.08.032.161.113.181l1.046.246.218.052-.057.201-.237.846a.149.149 0 0 0 .105.185.15.15 0 0 0 .185-.105l.322-1.139.016-.06a.177.177 0 0 0-.02-.12ZM31.238 75.871a.15.15 0 0 0-.129-.036l-.032.008-1.372.266a.147.147 0 0 0-.117.173c.016.08.092.133.173.117l.773-.15.443-.084-.009.129-.096 1.28a.152.152 0 0 0 .137.16.152.152 0 0 0 .16-.136l.117-1.537.004-.069a.174.174 0 0 0-.052-.12Z"/></g><path d="M34.836 57.388s-.024-5.598-2.415-5.948c-1.098-2.685-4.11-2.943-4.11-2.943s-.341 3.748 1.478 4.947c-.145 2.491 3.606 3.848 5.047 3.944Z" fill="#43BA79" stroke="#0C0A0A" stroke-width=".53" stroke-miterlimit="10" stroke-linecap="round" stroke-linejoin="round"/><path d="M121.326 122.11a3.546 3.546 0 1 0 0-7.092 3.546 3.546 0 0 0 0 7.092Z" fill="#000001"/><g fill="#000001"><path d="M99.401 30.087h5.764a.333.333 0 0 0 .334-.334v-.322a.333.333 0 0 0-.334-.334h-5.764a.333.333 0 0 0-.334.334v.322a.338.338 0 0 0 .334.334ZM99.401 32.083h5.764a.333.333 0 0 0 .334-.334v-.322a.333.333 0 0 0-.334-.334h-5.764a.333.333 0 0 0-.334.334v.322a.338.338 0 0 0 .334.334ZM99.401 34.076h5.764a.333.333 0 0 0 .334-.334v-.322a.333.333 0 0 0-.334-.334h-5.764a.333.333 0 0 0-.334.334v.322a.338.338 0 0 0 .334.334Z"/></g><path d="M111.484 33.814h27.052a.998.998 0 0 0 .999-.998v-2.963a.998.998 0 0 0-.999-.998h-27.052a.998.998 0 0 0-.998.998v2.963a.993.993 0 0 0 .998.998ZM106.65 90.172h33.054a1.15 1.15 0 0 0 1.151-1.151V71.577a1.15 1.15 0 0 0-1.151-1.152H106.65a1.15 1.15 0 0 0-1.151 1.152V89.02a1.15 1.15 0 0 0 1.151 1.151Z" fill="#fff" stroke="#0C0A0A" stroke-width=".53" stroke-miterlimit="10" stroke-linecap="round" stroke-linejoin="round"/><path d="m183.802 150.612 1.565 1.501-1.396.809-.898-1.763.729-.547Z" fill="#fff" stroke="#0C0A0A" stroke-width=".481" stroke-miterlimit="10" stroke-linecap="round" stroke-linejoin="round"/><path d="m151.392 59.775 2.914-2.52 2.665 2.73-2.781 4.338c-.548-1.094-1.019-2.064-1.381-2.809-.467-.95-1.417-1.739-1.417-1.739Z" fill="#FF8DA0"/><path d="M162.409 65.398s.12.113.322.314l1.308-4.669c-.024-.028-.052-.052-.077-.08.524-1.985.938-7.873 3.494-10.506 2.781-2.861 8.062-4.713 8.062-4.713s-.426 8.412-.676 9.374c-.25.962-4.637 10.55-4.637 10.55s-.769 3.844-1.67 5.458c-.121.217-.532 2.52-1.844 3.751-1.151 1.083-3.119 1.175-4.5.596-2.97-1.248-6.411-7.551-8.601-11.922l2.781-4.34 6.038 6.187Z" fill="#25A9E1" stroke="#0C0A0A" stroke-width=".489" stroke-miterlimit="10" stroke-linecap="round" stroke-linejoin="round"/><path d="m172.383 148.41-.556 8.517-6.186.056-.741-1.437s-1.211 1.654-3.208 1.723c-1.996.068-10.267-.077-10.267-.077s-.669-1.513.322-2.934c.99-1.421 9.768-3.888 10.976-5.176 1.207-1.292 1.565-1.477 1.565-1.477l8.095.805ZM175.401 153.425c.375-.354 1.582-.829 2.838-1.095 3.192-.676 5.917-2.693 6.633-3.707 1.023-1.441 1.353-1.674 1.353-1.674l8.134-.298c1.18 2.846 1.558 6.062 1.167 9.628l-6.693.068-.415-.881s-1.493 1.07-3.461 1.408c-.455.077-10.932-.595-10.932-.595s.125-1.667 1.376-2.854ZM112.732 154.033c-.318-.302-1.34-.701-2.399-.926-2.7-.572-5.003-2.278-5.611-3.135-.865-1.22-1.143-1.417-1.143-1.417l-6.882-.254c-.995 2.407-1.317 5.128-.987 8.143l5.664.056.35-.745s1.264.906 2.926 1.192c.386.064 9.249-.503 9.249-.503s-.104-1.405-1.167-2.411Z" fill="#000001"/><path d="M167.951 77.276s-1.509 4.504-2.266 10.634c-.584 4.75-1.872 49.769-2.801 59.514 5.156 1.127 11.825 1.107 11.825 1.107l2.564-32.192c3.932-14.716 3.377-24.436 4.307-37.513l-13.629-1.55Z" fill="#FED964" stroke="#0C0A0A" stroke-width=".53" stroke-miterlimit="10" stroke-linecap="round" stroke-linejoin="round"/><path d="M176.798 93.135c.845 8.706 2.178 20.555 2.443 22.91.117 1.018.447 3.324.89 6.251.443 2.926.994 6.48 1.549 9.998a4532.376 4532.376 0 0 0 2.464 15.472l.028.173a21.972 21.972 0 0 1 1.86-.073c1.44 0 2.914.097 4.347.097.978 0 1.936-.044 2.853-.189.882-.141 1.723-.378 2.508-.761l-3.892-33.621v-.032l.012-.113.036-.33c.028-.289.072-.712.125-1.243a286 286 0 0 0 .374-4.283c.274-3.457.547-7.857.547-11.624 0-1.775-.06-3.413-.209-4.738-.378-3.376-1.195-6.806-1.94-9.446a73.433 73.433 0 0 0-1.449-4.6l-14.023 2.322h-.012l1.324 13.697a.146.146 0 0 1 .165.133Z" fill="#FED964"/><path d="m196.05 147.086-3.901-33.71c.049-.459 1.091-10.227 1.091-17.61 0-1.782-.06-3.428-.213-4.773-.395-3.51-1.256-7.068-2.021-9.744-.76-2.68-1.424-4.484-1.429-4.488a.147.147 0 0 0-.165-.097l-14.147 2.343a.151.151 0 0 0-.125.173.15.15 0 0 0 .161.125h.012l14.023-2.323c.161.451.773 2.198 1.449 4.6.741 2.641 1.558 6.07 1.94 9.448.149 1.324.209 2.962.209 4.737 0 3.767-.273 8.167-.547 11.624-.137 1.727-.274 3.22-.374 4.283-.053.531-.093.954-.125 1.243l-.036.33-.012.113v.032l3.892 33.621c-.785.383-1.626.62-2.508.761-.918.149-1.875.189-2.854.189-1.432 0-2.906-.097-4.347-.097a21.9 21.9 0 0 0-1.859.073l-.028-.173c-.246-1.53-1.357-8.437-2.464-15.472a2116.49 2116.49 0 0 1-1.549-9.998c-.443-2.927-.777-5.233-.89-6.251-.265-2.355-1.598-14.204-2.443-22.91a.148.148 0 0 0-.161-.133.149.149 0 0 0-.133.16c.845 8.711 2.182 20.56 2.443 22.915.125 1.099.496 3.647.983 6.859 1.461 9.627 3.972 25.192 3.972 25.192a.15.15 0 0 0 .161.125c.644-.06 1.3-.081 1.972-.081 1.429 0 2.902.097 4.347.097.987 0 1.961-.044 2.898-.193.938-.149 1.844-.407 2.689-.833.065-.037.097-.097.089-.157Z" fill="#0C0A0A"/><path d="m190.64 80.556.386 1.727s-4.673 1.775-13.206 1.356c-5.272-.257-10.98-2.23-10.98-2.23l.234-2.185 23.566 1.332Z" fill="#000001"/><path d="M168.728 58.037c-.716 4.322-1.147 9.374-1.401 13.52a209.407 209.407 0 0 0-.346 8.09v.056c.012.004.024.012.036.016.073.037.186.089.334.153.298.129.745.31 1.333.503 1.183.387 2.942.83 5.26 1.055 2.077.201 4.472.302 6.819.302 3.095 0 6.106-.173 8.179-.511.692-.113 1.275-.242 1.722-.387.218-.068.399-.145.544-.221-.616-7.108-.938-13.097-1.224-17.984-.29-4.906-.543-8.706-1.022-11.407-.318-1.799-.737-3.111-1.316-3.932-.331-.471-.705-.777-1.148-.946-1.433-.535-3.948-1.377-6.625-1.377-1.348 0-2.737.214-4.049.781a.15.15 0 0 1-.125-.008l-7.031 12.144c.04.04.068.096.06.153Z" fill="#25A9E1"/><path d="M189.791 55.815c-.25-2.862-.556-5.092-1.039-6.71-.241-.809-.531-1.46-.885-1.964-.354-.503-.777-.857-1.276-1.042-1.445-.54-3.989-1.393-6.722-1.393-1.376 0-2.805.217-4.158.805a.143.143 0 0 0-.072.18.146.146 0 0 0 .056.065.15.15 0 0 0 .125.008c1.312-.567 2.701-.78 4.049-.78 2.677 0 5.196.84 6.625 1.376.443.165.817.475 1.147.946.576.821.999 2.133 1.317 3.932.479 2.701.732 6.5 1.022 11.407.29 4.887.612 10.876 1.224 17.984a3.652 3.652 0 0 1-.544.221c-.447.145-1.034.274-1.722.387-2.073.334-5.084.51-8.179.51-2.347 0-4.746-.1-6.819-.301-2.314-.225-4.077-.668-5.26-1.055a13.522 13.522 0 0 1-1.703-.672v-.056c.016-.704.093-3.945.346-8.09.254-4.146.685-9.197 1.401-13.52a.142.142 0 0 0-.068-.141.09.09 0 0 0-.045-.016.137.137 0 0 0-.157.112c-.768 4.63-1.207 10.075-1.453 14.366-.245 4.29-.302 7.426-.302 7.426 0 .052.029.1.073.125.012.008 2.467 1.344 7.14 1.799 2.085.205 4.492.302 6.847.302 2.366 0 4.681-.101 6.581-.298a24.43 24.43 0 0 0 2.483-.37c.346-.073.656-.154.922-.242.265-.089.491-.181.672-.286a.137.137 0 0 0 .068-.133c-.942-10.895-1.199-19.159-1.694-24.882Z" fill="#0C0A0A"/><path d="M175.514 52.575 175.156 51l1.477-.934 1.574 1.264-1.477 1.457.547 3.208s-.692 17.34-1.256 18.193c-.752 1.135-2.845 1.65-2.845 1.65l-2.351-2.314 3.389-17.747 1.3-3.203Z" fill="#FED964" stroke="#0C0A0A" stroke-width=".53" stroke-miterlimit="10" stroke-linecap="round" stroke-linejoin="round"/><path d="m173.385 60.15.241-1.256 3.385 3.12c-.02.422-.044.856-.064 1.295l-3.562-3.16ZM173.888 57.517l.242-1.256 3.022 2.786c-.02.41-.04.849-.06 1.312l-3.204-2.842ZM174.532 55.01l.435-1.07 2.314 2.132-.056 1.329-2.693-2.391ZM175.164 51.029l1.735 1.598-.165.165.221 1.292-1.509-1.336.068-.173-.35-1.546ZM172.837 63.023l.238-1.251 3.763 3.47-.072 1.275-3.929-3.493ZM172.338 65.624l.242-1.26 4.085 3.767-.084 1.26-4.243-3.767ZM171.843 68.224l.242-1.264 4.375 4.033c-.036.447-.072.861-.113 1.236l-4.504-4.005ZM171.59 69.552l4.56 4.206c-.04.222-.084.37-.125.43-.104.162-.241.31-.39.444l-4.291-3.812.246-1.268Z" fill="#ED9118"/><path d="m176.367 45.189-.462-1.14s-2.939.556-3.655-.64c-.616-1.03-.684-3.634-.709-6.077-.028-3.196.653-6.509 4.158-7.076 6.187-1.002 7.201 4.73 6.625 7.325-.982 4.408-.144 6.34.467 7.567-3.151 4.19-4.572 5.418-6.685 4.995-1.023-.205-1.473-1.364-1.103-2.588.402-1.3 1.364-2.366 1.364-2.366Z" fill="#FF8DA0"/><path d="M171.578 37.267s-1.321 1.989-.91 2.4c.411.41 1.244.563 1.34.18.101-.382-.43-2.58-.43-2.58Z" fill="#FF8DA0"/><path d="m185.512 57.586 1.151 9.366a.154.154 0 0 1 .045.028.134.134 0 0 1 .04.105c-.036.523-.072 1.034-.072 1.477 0 .254.012.487.044.684a.138.138 0 0 1-.024.105.148.148 0 0 1-.093.052 10.68 10.68 0 0 0-.684.117c-.31.06-.701.14-1.143.237-.89.19-2.013.443-3.228.725a572.55 572.55 0 0 0-7.177 1.715l.338 5.369 7.95-.76h.012c3.558 0 6.009-.283 7.699-.661 1.039-.233 1.852-.648 2.492-1.187.644-.536 1.115-1.192 1.461-1.9.688-1.417.865-3.047.865-4.323 0-1.224-.161-2.113-.169-2.162v-.003c0-.004 0-.013-.004-.017 0 0-.004-.036-.008-.104-.004-.069-.008-.17-.016-.302l-.068-1.107c-.061-.934-.141-2.218-.246-3.623-.205-2.809-.479-6.11-.761-8.05a4.1 4.1 0 0 0-.45-1.336 7.137 7.137 0 0 0-.874-1.272c-.692-.817-1.578-1.565-2.455-2.205a25.2 25.2 0 0 0-3.691-2.194l-1.054 11.097c.06.016.112.064.12.129Z" fill="#25A9E1"/><path d="M195.285 66.537c-.008-.153-.141-2.415-.338-5.128-.205-2.813-.479-6.11-.761-8.07a4.404 4.404 0 0 0-.503-1.469c-.443-.829-1.111-1.598-1.868-2.29-1.131-1.038-2.455-1.908-3.497-2.516-1.043-.607-1.804-.958-1.808-.962a.137.137 0 1 0-.112.25l.02.008.024.012a25.2 25.2 0 0 1 3.691 2.194c.881.64 1.763 1.388 2.455 2.205.346.411.644.834.874 1.272.229.439.386.886.45 1.337.282 1.94.556 5.24.761 8.05.101 1.404.185 2.688.246 3.622l.068 1.107.016.302a2.27 2.27 0 0 0 .012.12v.005c.008.048.169.938.169 2.161 0 1.272-.173 2.902-.865 4.323-.346.708-.817 1.364-1.461 1.9-.644.535-1.457.954-2.492 1.187-1.69.378-4.141.66-7.699.66h-.013l-7.949.76-.338-5.368a523.604 523.604 0 0 1 7.177-1.715c1.215-.282 2.334-.535 3.228-.725.446-.096.833-.177 1.143-.237.31-.06.547-.1.684-.117a.139.139 0 0 0 .093-.052c.024-.028.032-.069.024-.105a4.39 4.39 0 0 1-.045-.684c0-.443.041-.954.073-1.477a.129.129 0 0 0-.04-.105.106.106 0 0 0-.045-.028l-1.151-9.366a.14.14 0 0 0-.125-.121h-.028a.136.136 0 0 0-.12.153l1.167 9.479c.004.04.028.076.06.097-.032.478-.064.945-.064 1.368 0 .21.008.407.028.588-.145.02-.334.056-.568.1-1.098.214-3.115.664-5.305 1.18a499.183 499.183 0 0 0-6.367 1.53.139.139 0 0 0-.105.14l.354 5.627a.15.15 0 0 0 .049.096.131.131 0 0 0 .1.033l8.087-.773c3.57 0 6.037-.286 7.752-.668 1.074-.242 1.932-.68 2.608-1.244 1.014-.85 1.622-1.972 1.972-3.127.35-1.152.451-2.335.451-3.309.004-1.224-.149-2.113-.169-2.21Z" fill="#0C0A0A"/><path d="M172.721 37.634a.314.314 0 1 0 0-.629.314.314 0 0 0 0 .629Z" fill="#000001"/><path d="M173.622 35.85a2.242 2.242 0 0 0-.813-.189c-.044 0-.088-.004-.132 0-.041.005-.085.005-.121.008-.314.033-.415.198-.439.315a.39.39 0 0 0 .004.164.408.408 0 0 0 .064.125c.077.1.202.194.443.17.032-.005.061-.005.097-.009.032-.004.068-.004.1-.008.069-.008.145-.012.222-.02.153-.008.31-.016.455-.02.293-.008.539 0 .587-.093.053-.092-.145-.301-.467-.442Z" fill="#0B0B0C"/><path d="M173.477 37.074a1.02 1.02 0 0 0-.756-.2.976.976 0 0 0-.306.092c-.161.08-.238.16-.226.185.017.028.121 0 .278-.032.157-.032.375-.065.596 0 .221.06.398.189.523.294.121.104.193.18.222.165.028-.017 0-.125-.105-.274a1.08 1.08 0 0 0-.226-.23Z" fill="#010102"/><path d="M172.415 39.65a.111.111 0 0 0-.153.037v.004a.644.644 0 0 1-.141.148.541.541 0 0 1-.338.121c-.024 0-.052 0-.081-.004a.109.109 0 0 0-.124.093.11.11 0 0 0 .092.125c.041.004.077.008.113.008a.752.752 0 0 0 .294-.06.892.892 0 0 0 .282-.198c.06-.064.092-.117.096-.12a.116.116 0 0 0-.04-.154Z" fill="#0C0A0A"/><path d="M174.093 40.194a.592.592 0 1 0 0-1.184.592.592 0 0 0 0 1.184Z" fill="#1053F3"/><path d="m172.483 41.578.636-.14s.226.937-.181 1.006c-.402.072-.455-.866-.455-.866Z" fill="#fff"/><path d="M189.586 89.975a7.165 7.165 0 0 1-.52.016c-.636 0-1.344-.08-1.988-.33-.644-.254-1.22-.668-1.61-1.352a.107.107 0 0 0-.149-.04.107.107 0 0 0-.04.148c.418.733 1.042 1.184 1.718 1.45.681.265 1.413.345 2.069.345.185 0 .363-.008.532-.016a.112.112 0 0 0 .104-.116.109.109 0 0 0-.116-.105Z" fill="#0C0A0A"/><path d="M199.568 27.495c-2.496 1.533-9.202 1.77-11.464 1.634-1.006 3.103-2.423 2.995-4.403 3.985.189-.19 1.075-1.131 1.385-2.093.265-.833-.037-1.675.068-2.049-1.477-.242-3.763-1.457-3.272-6.758.712-7.712 5.031-6.202 9.563-6.355 4.532-.153 9.217-.83 9.765 1.581 0-.004 1.61 8.054-1.642 10.055Z" fill="#1053F3"/><path d="m191.864 20.918 1.714.314-.314 1.715-1.714-.314.314-1.715Zm4.23 2.95 1.715.314.314-1.714-1.715-.314-.314 1.714Zm-9.837-.245 1.871.342.343-1.872-1.872-.342-.342 1.872Z" fill="#fff"/><path d="m184.248 45.474-1.984-1.428s-3.804 5.498-5.623 6.021c2.198 1.843 2.669 1.992 2.669 1.992s4.874-5.876 4.938-6.584ZM176.299 45.08s-.531 4.488.338 4.991c-1.727.773-2.334 1.264-2.334 1.264s-.435-.801-.435-2.56 1.042-2.801 1.042-2.801l1.389-.894Z" fill="#fff" stroke="#0C0A0A" stroke-width=".481" stroke-miterlimit="10" stroke-linecap="round" stroke-linejoin="round"/><path d="M174.838 76.813s-2.689 1.027-4.009 1.787c-1.32.761-5.554.761-5.554.761s-2.649.137-2.75-.137c-.032-.092-1.135-.575-.788-.732.692-.31 3.131-.347 3.131-.564 0-.302 1.63-.052 2.419-1.026.918-1.135 1.051-3.486 1.674-3.486.387 0 1.099-.04 1.872-.093 1.538-.104 3.321-.261 3.321-.261l.684 3.751Z" fill="#FF8DA0"/><path d="M176.955 71.17s1.767 5.949 1.28 6.432c-.483.483-4.854.294-4.854.294s-1.377-4.673-.246-5.8c1.131-1.127 3.82-.926 3.82-.926Z" fill="#25A9E1" stroke="#0C0A0A" stroke-width=".489" stroke-miterlimit="10" stroke-linecap="round" stroke-linejoin="round"/><path d="M182.61 40.987s-.519.334-1.199.334-1.872.016-2.109-.825c-.238-.838 1.143-2.85.563-3.43-.579-.58-1.654-.104-1.654 1.3v1.405l-1.059-.362s-.153-2.383-.153-3.329c-2.225 0-2.777-1.718-2.777-1.718s-3.82 1.271-4.633-.363c-.813-1.634.499-3.86.499-3.86s2.46-.728 4.005-1.183c1.542-.455 5.555.704 5.752 1.875 1.843-1.066 3.792 3.607 3.292 5.253 1.051 1.047.479 4.323-.527 4.903Z" fill="#000001"/><path d="M158.794 61.587s-3.393 5.292-4.254 5.292c-.866 0-3.24-3.695-2.741-5.039.499-1.344 3.216-3.856 3.216-3.856s3.558 2.689 3.779 3.602Z" fill="#25A9E1" stroke="#0C0A0A" stroke-width=".489" stroke-miterlimit="10" stroke-linecap="round" stroke-linejoin="round"/><path d="m182.683 149.847 1.569 1.501-1.4.809-.898-1.763.729-.547ZM161.318 149.078l1.57 1.497-1.401.809-.898-1.763.729-.543ZM159.797 149.843l1.569 1.501-1.4.805-.898-1.763.729-.543Z" fill="#fff" stroke="#0C0A0A" stroke-width=".481" stroke-miterlimit="10" stroke-linecap="round" stroke-linejoin="round"/><path d="M123.29 87.604h14.123c.596 0 1.075-.483 1.075-1.075V73.457c0-.595-.483-1.074-1.075-1.074H123.29c-.596 0-1.075.483-1.075 1.074V86.53c0 .592.479 1.075 1.075 1.075Z" fill="#FED964"/><path d="M137.212 74.921v10.14c0 .744-.603 1.344-1.344 1.344h-11.029c-.74 0-1.344-.604-1.344-1.345V74.921c0-.74.604-1.344 1.344-1.344h11.029c.741 0 1.344.604 1.344 1.344Z" fill="#fff" stroke="#0C0A0A" stroke-width=".53" stroke-miterlimit="10" stroke-linecap="round" stroke-linejoin="round"/><path d="M111.283 74.281h7.817a.476.476 0 0 0 .475-.475v-.458a.476.476 0 0 0-.475-.475h-7.817a.476.476 0 0 0-.475.475v.459c0 .261.214.474.475.474ZM109.778 77.828h9.322a.476.476 0 0 0 .475-.475v-.46a.476.476 0 0 0-.475-.474h-9.326a.476.476 0 0 0-.475.475v.459a.48.48 0 0 0 .479.475ZM109.778 81.374h9.322a.476.476 0 0 0 .475-.475v-.46a.476.476 0 0 0-.475-.474h-9.326a.476.476 0 0 0-.475.475v.459a.476.476 0 0 0 .479.475ZM109.778 84.92h9.322a.476.476 0 0 0 .475-.475v-.46a.476.476 0 0 0-.475-.474h-9.326a.476.476 0 0 0-.475.475v.459a.476.476 0 0 0 .479.475Z" fill="#FED964"/><path d="M74.366 108.063s-8.932 15.766 1.888 22.25c10.819 6.485 25.059-1.006 25.059-1.006l-5.514 20.222 9.306 1.022s7.881-22.492 6.553-30.006c-1.433-8.082-20.814-2.548-20.814-2.548l-16.478-9.934Z" fill="#25A9E1" stroke="#0C0A0A" stroke-width=".489" stroke-miterlimit="10" stroke-linecap="round" stroke-linejoin="round"/><path d="M57.493 146.522s-4.343-.036-5.482-1.175c-1.135-1.135-2.5-1.32-2.5-1.32s-3.103 2.733-4.121 4.351c-.105.165.406.64.35.764-.592 1.321-5.53 4.17-6.202 4.557-.673.39-.282 2.648 1.734 2.797 2.017.149 5.555-1.304 8.24-2.962 2.407-1.49 2.68-.91 2.68-.91l4.866.318.435-6.42Z" fill="#000001"/><g><path d="M72.51 112.495c-.012.02-.024.04-.036.068l-.245.475c-.21.411-.495.994-.817 1.699-.64 1.404-1.41 3.28-1.92 5.148-.343 1.243-.568 2.483-.568 3.578 0 .503.097 1.187.27 1.996.173.809.418 1.743.72 2.749.6 2.021 1.409 4.343 2.242 6.597a254.37 254.37 0 0 0 3.824 9.66l.08.189a.15.15 0 0 1-.008.125.145.145 0 0 1-.108.065l-20.137 1.131c-.222 1.517-.35 2.982-.35 4.383 0 1.272.108 2.491.346 3.635.016.004.036.004.06.008l.443.072c.386.06.95.149 1.658.254 1.413.209 3.397.487 5.683.768 4.573.56 10.345 1.115 15.15 1.115 1.594 0 3.08-.06 4.376-.205 1.3-.141 2.41-.366 3.252-.684.56-.214.998-.471 1.292-.765.27-.266.499-.656.696-1.151a9.5 9.5 0 0 0 .475-1.779c.246-1.369.346-3.079.346-4.975 0-4.593-.603-10.3-1.243-15.062-.64-4.761-1.32-8.585-1.474-9.414-.02-.113-.032-.169-.032-.169a.14.14 0 0 1 .109-.161h.012l-.415-4.959c-.016 0-.036 0-.052-.008l-13.629-4.383Z" fill="#25A9E1"/><path d="M88.123 130.611a217.338 217.338 0 0 0-1.376-8.657.14.14 0 0 0-.145-.113h-.012a.132.132 0 0 0-.109.161s.012.056.032.169c.15.833.83 4.653 1.474 9.414.64 4.762 1.243 10.469 1.243 15.062 0 1.9-.104 3.606-.346 4.975-.12.684-.278 1.284-.475 1.779-.193.495-.427.885-.696 1.151-.294.294-.733.551-1.292.765-.842.322-1.952.543-3.252.684-1.3.141-2.786.205-4.376.205-4.806 0-10.581-.559-15.15-1.115-2.286-.277-4.27-.559-5.683-.768-.708-.105-1.272-.194-1.658-.254a69.102 69.102 0 0 0-.443-.072c-.024-.004-.04-.009-.06-.009a17.93 17.93 0 0 1-.347-3.634c0-1.401.13-2.866.35-4.383l20.138-1.131a.148.148 0 0 0 .108-.065.126.126 0 0 0 .008-.125l-.08-.189a254.37 254.37 0 0 1-3.824-9.66c-.833-2.254-1.642-4.58-2.242-6.597a39.082 39.082 0 0 1-.72-2.749c-.173-.809-.27-1.493-.27-1.996 0-1.091.225-2.335.568-3.578.51-1.868 1.28-3.74 1.92-5.148.322-.705.607-1.288.817-1.699.104-.205.189-.366.245-.475.012-.024.024-.048.036-.068l13.625 4.383a.237.237 0 0 0 .052.008c.053-.004.1-.04.121-.097a.137.137 0 0 0-.088-.173l-13.734-4.419a.135.135 0 0 0-.16.064c0 .004-.919 1.679-1.836 3.913a32.319 32.319 0 0 0-1.264 3.634c-.346 1.26-.576 2.52-.576 3.651 0 .571.113 1.328.31 2.218.342 1.557.942 3.526 1.65 5.606 1.92 5.66 4.633 12.144 5.12 13.299l-20.056 1.127a.137.137 0 0 0-.129.117c-.233 1.565-.37 3.083-.37 4.532 0 1.324.112 2.588.37 3.783a.141.141 0 0 0 .113.109s3.373.56 7.949 1.119c4.577.56 10.36 1.119 15.182 1.119 2.134 0 4.078-.109 5.656-.378.788-.133 1.485-.31 2.068-.532.584-.221 1.055-.491 1.389-.825.306-.306.551-.728.757-1.244.305-.776.515-1.775.648-2.938.133-1.163.193-2.487.193-3.92.004-4.919-.684-11.093-1.373-16.036Z" fill="#0C0A0A"/></g><g><path d="M89.158 88.168c-.016-.04-.04-.105-.073-.181a59.22 59.22 0 0 0-1.018-2.427 18.027 18.027 0 0 0-.52-1.087 3.706 3.706 0 0 0-.237-.403.861.861 0 0 0-.084-.108.148.148 0 0 1-.012-.198.146.146 0 0 1 .193-.036c1.087.664 2.471 1.087 3.94 1.336 1.47.254 3.023.338 4.44.338 2.507 0 4.596-.265 5.087-.334l.652-4.624c-.052-.013-.116-.025-.193-.045a83.286 83.286 0 0 0-.917-.2c-.785-.17-1.896-.403-3.196-.665-2.604-.52-5.973-1.143-9.028-1.558-2.037-.277-3.937-.463-5.37-.463-.487 0-.921.02-1.284.069-.366.044-.66.117-.873.205a.8.8 0 0 0-.302.201 1.53 1.53 0 0 0-.262.467 3.862 3.862 0 0 0-.185.705c-.096.539-.14 1.207-.14 1.952 0 2.004.305 4.556.631 6.697.326 2.142.669 3.877.745 4.255.004.016.004.028.008.04l8.026-3.868c0-.004-.004-.008-.004-.012.004.008-.008-.012-.024-.056Z" fill="#1053F3"/><path d="M101.732 80.186s-3.272-.74-7.273-1.481c-2-.37-4.178-.74-6.223-1.019-2.045-.277-3.953-.462-5.41-.462-.66 0-1.231.036-1.682.124-.225.045-.427.101-.592.174-.169.072-.306.16-.406.277a1.894 1.894 0 0 0-.318.556c-.125.33-.21.736-.266 1.203-.056.467-.076.99-.08 1.558 0 2.17.35 4.939.7 7.168.35 2.23.7 3.92.7 3.92a.15.15 0 0 0 .177.117.151.151 0 0 0 .117-.177s-.004-.012-.008-.036c-.004-.012-.004-.024-.008-.04a89.476 89.476 0 0 1-.745-4.255c-.326-2.14-.632-4.693-.632-6.697 0-.745.04-1.413.141-1.952a3.87 3.87 0 0 1 .185-.705 1.62 1.62 0 0 1 .262-.467.849.849 0 0 1 .302-.2c.21-.093.507-.162.873-.206.367-.044.797-.069 1.284-.069 1.433 0 3.333.186 5.37.463 3.055.415 6.424 1.039 9.028 1.558 1.3.262 2.41.495 3.196.664.394.085.704.153.917.201.077.016.141.033.194.045l-.652 4.624c-.491.069-2.58.334-5.088.334-1.417 0-2.97-.084-4.44-.338-1.469-.253-2.853-.672-3.94-1.336a.145.145 0 0 0-.193.036.148.148 0 0 0 .012.198c.02.02.052.056.084.108.065.097.145.234.238.403.157.293.338.676.519 1.086.274.612.555 1.28.765 1.796.104.257.193.475.253.632.032.076.057.136.073.18.016.04.024.065.024.065 0 .004.004.008.004.012a.152.152 0 0 0 .19.077.15.15 0 0 0 .084-.194s-.375-.958-.813-1.98a33.402 33.402 0 0 0-.665-1.469c-.072-.145-.14-.278-.205-.398 1.035.523 2.25.865 3.518 1.086 1.493.258 3.06.342 4.492.342 2.898 0 5.236-.35 5.241-.35a.145.145 0 0 0 .124-.125l.689-4.874c.008-.088-.041-.157-.117-.177Z" fill="#0C0A0A"/></g><path d="m96.507 94.877 2.874-3.55s4.029 3.748 5.611-1.714c1.582-5.462 3.297-10.365-.696-11.258-3.993-.894-8.119-1.163-8.956 4.548-.837 5.711-4.31 7.692-4.31 7.692s1.702 5.115 5.477 4.282Z" fill="#FF8DA0"/><g><path d="M81.381 92.104c-2.777 3.675-5.856 8.992-7.639 13.262-.596 1.425-1.047 2.733-1.292 3.82-.14.62-.217 1.171-.217 1.626 0 .242.02.455.064.636.068.302.221.608.455.914.233.306.543.608.922.906.752.595 1.77 1.163 2.942 1.678 2.338 1.038 5.293 1.876 8.002 2.379 1.807.338 3.505.523 4.842.523.551 0 1.038-.032 1.445-.097.406-.064.728-.165.945-.289.242-.141.516-.383.797-.717.286-.334.584-.757.886-1.252.608-.99 1.24-2.27 1.851-3.715 1.224-2.89 2.363-6.436 3.08-9.652.47-2.121.756-4.097.764-5.643-.024-.024-.056-.064-.1-.108-.093-.101-.226-.246-.395-.427a50.537 50.537 0 0 0-1.437-1.477c-1.2-1.192-2.837-2.713-4.564-4.01-1.151-.864-2.347-1.63-3.474-2.136a.141.141 0 0 1-.072-.073l-7.793 3.707c.029.04.025.1-.012.145Z" fill="#1053F3"/><path d="M99.494 96.322c-.004-.004-1.373-1.553-3.32-3.36a41.263 41.263 0 0 0-3.257-2.75c-1.163-.873-2.37-1.65-3.534-2.17a.15.15 0 0 0-.197.077.136.136 0 0 0 .004.125c.016.032.04.056.072.073 1.131.507 2.323 1.271 3.474 2.137 1.727 1.296 3.36 2.817 4.564 4.009a56.417 56.417 0 0 1 1.832 1.904c.044.048.076.084.1.108-.008 1.546-.293 3.526-.764 5.643-.713 3.216-1.856 6.766-3.08 9.652-.611 1.445-1.243 2.725-1.851 3.715-.306.495-.604.918-.886 1.252-.285.334-.555.58-.796.716-.218.125-.54.226-.946.29a9.34 9.34 0 0 1-1.445.097c-1.337 0-3.035-.185-4.842-.523-2.71-.503-5.664-1.345-8.002-2.379-1.171-.519-2.186-1.087-2.942-1.679a5.153 5.153 0 0 1-.922-.905c-.234-.306-.386-.612-.455-.914a2.948 2.948 0 0 1-.064-.636c0-.455.076-1.002.217-1.626.246-1.087.696-2.395 1.292-3.82 1.783-4.27 4.862-9.587 7.64-13.262.036-.044.036-.105.016-.153a.146.146 0 0 0-.045-.056.152.152 0 0 0-.209.028c-2.133 2.817-4.427 6.58-6.198 10.115-.886 1.767-1.635 3.477-2.166 4.983a19.15 19.15 0 0 0-.62 2.093c-.145.636-.225 1.203-.225 1.69 0 .258.02.491.068.705.109.47.387.925.79 1.356.704.753 1.798 1.453 3.123 2.085 1.98.95 4.475 1.747 6.918 2.306 2.444.564 4.839.89 6.626.89.563 0 1.066-.032 1.493-.101.427-.068.78-.173 1.05-.326.383-.221.773-.62 1.176-1.159.704-.946 1.453-2.323 2.177-3.953 1.087-2.443 2.13-5.45 2.902-8.36.773-2.914 1.272-5.735 1.272-7.82a.185.185 0 0 0-.04-.097Z" fill="#0C0A0A"/></g><path d="M129.476 91.694c-.386 1.493-1.912 3.743-1.912 3.743l-3.441 3.441-2.5-2.729 2.5-4.548 2.572-2.802s.519-.796.934-.519c.414.278.35.685.35.685s.398-.23.644.016c.237.237.113.752.109.776.016-.008.273-.14.466.13.198.277.085.804.085.804s.157-.048.241.197c.085.254-.048.805-.048.805Z" fill="#FF8DA0"/><g><path d="M95.928 103.797c.036.02.088.048.157.088.137.077.338.189.592.334.51.282 1.235.681 2.1 1.139 1.731.914 4.018 2.057 6.235 2.991 1.477.62 2.926 1.147 4.158 1.445.7.169 1.332.266 1.852.266.491 0 1.062-.149 1.69-.415.628-.266 1.304-.652 2.009-1.119 1.404-.934 2.902-2.19 4.286-3.465a79.102 79.102 0 0 0 5.357-5.483 3.363 3.363 0 0 0-.483-1.646 5.217 5.217 0 0 0-1.09-1.268 7.687 7.687 0 0 0-1.602-1.054l-11.073 6.392a.147.147 0 0 1-.141.004L99.321 96.56l-3.453 7.205c.004 0 .008.004.012.004-.008 0 .012.008.048.028Z" fill="#1053F3"/><path d="M124.119 97.751c-.487-.809-1.204-1.417-1.803-1.827-.596-.41-1.075-.62-1.079-.624a.15.15 0 0 0-.137.008l-11.069 6.392-10.581-5.41a.151.151 0 0 0-.201.064.151.151 0 0 0 .064.202h.004L109.97 102a.142.142 0 0 0 .141-.004l11.073-6.391a7.8 7.8 0 0 1 1.602 1.054c.402.347.797.773 1.09 1.268.286.483.475 1.03.483 1.646a79.195 79.195 0 0 1-5.357 5.482c-1.384 1.276-2.882 2.532-4.286 3.466-.701.467-1.381.853-2.009 1.119-.628.27-1.199.415-1.69.415-.52 0-1.148-.097-1.852-.266-1.228-.298-2.677-.825-4.158-1.445-2.218-.934-4.504-2.077-6.234-2.991a84.657 84.657 0 0 1-2.693-1.473c-.069-.04-.12-.068-.157-.088-.036-.021-.053-.033-.053-.033-.003 0-.007-.004-.012-.004a.15.15 0 0 0-.193.061.152.152 0 0 0 .057.205s2.737 1.582 6.013 3.164c1.638.789 3.409 1.582 5.047 2.177.817.298 1.602.548 2.319.721.716.173 1.364.273 1.92.273.567 0 1.195-.173 1.871-.467 1.18-.515 2.496-1.408 3.812-2.455 1.976-1.574 3.956-3.497 5.442-5.031a71.915 71.915 0 0 0 2.479-2.677.145.145 0 0 0 .036-.096c0-.713-.217-1.34-.543-1.88Z" fill="#0C0A0A"/></g><path d="M108.892 80.67s-2.137 4.25-4.025 4.25c-1.887 0-.772 1.887-.978 2.093-.205.205-.817.41-.817 0 0-.411.226-2.363-.817-2.094-1.042.27-.797 3.02-.555 3.257.241.241-1.127 1.606-2.081 1.606s-3.888-1.707-4.818-2.637c-.93-.93-1.228-.636-.729-2.636.5-2 .862-4.532 1.727-5.402.87-.869.475-1.988 3.284-1.988 4.17-.43 5.02.415 5.603 1.002 2.524.004 4.206 2.548 4.206 2.548ZM99.381 91.327l-.841-1.155.326 1.795.515-.64Z" fill="#000001"/><g><path d="m71.528 22.777.981.809 2.457-2.982-.981-.809-2.457 2.982Z" fill="#000001"/><path d="M80.66 22.914c5.652 0 10.232-4.58 10.232-10.231 0-5.65-4.58-10.232-10.231-10.232-5.65 0-10.232 4.581-10.232 10.232 0 5.65 4.581 10.231 10.232 10.231Z" fill="#fff" stroke="#0C0A0A" stroke-width=".53" stroke-miterlimit="10" stroke-linecap="round" stroke-linejoin="round"/><path d="M80.66 21.32a8.638 8.638 0 1 0 0-17.275 8.638 8.638 0 0 0 0 17.276Z" fill="#C7DEFD" stroke="#0C0A0A" stroke-width=".489" stroke-miterlimit="10" stroke-linecap="round" stroke-linejoin="round"/><path d="m57.871 39.45.878.72a.993.993 0 0 0 1.4-.137L73.633 23.67a.993.993 0 0 0-.137-1.4l-.877-.721a.993.993 0 0 0-1.4.137L57.734 38.048a.992.992 0 0 0 .136 1.401Z" fill="#25A9E1" stroke="#0C0A0A" stroke-width=".489" stroke-miterlimit="10" stroke-linecap="round" stroke-linejoin="round"/></g><path d="M124.123 91.605s-.652.805-1.272.181c-.62-.62.032-1.787-.636-1.787s-.817.576-.592 1.517c.226.942.226 3.84.226 4.033 0 .194 1.473.033 1.473-.273 0-.306.801-3.671.801-3.671ZM154.306 57.26s-2.829-3.8-5.011-4.347c-2.181-.548-4.89-.5-4.89-.5s-.382.882-.109 1.792c.125.414.568 1.119 1.196 1.819.752.841 1.763 1.67 2.789 1.968 1.88.548 3.115 1.783 3.115 1.783s2.91-2.12 2.91-2.515Z" fill="#FF8DA0"/><path d="M145.625 55.883c-.584-.16-1.144-.346-1.228-.893 0 0-.499.016-.499-.508 0-.523.294-.523.294-.523s-.355-.652-.294-.91c.06-.257.334-.635.503-.635.169 0 .801.237.801.237l.423 3.232Z" fill="#FF8DA0"/><path d="m148.764 54.567-10.272-4.496-.394.765 10.396 4.395.27-.664Z" fill="#000001"/><path d="M148.277 53.492c.833 0 1.558.286 1.558.286l.841 1.453s-1.228-.592-2.294-.342c-1.067.25-1.989.093-2.21-.41-.225-.496 1.272-.987 2.105-.987Z" fill="#FF8DA0"/><path d="M138.605 50.208s-.322-1.087-1.103-1.087c-.781 0-2.351.568-2.351.568s.789.684 1.566 1.135c.777.446 1.763 0 1.763 0l.125-.616Z" fill="#1053F3"/><path d="M99.599 45.797a3.136 3.136 0 1 0 0-6.272 3.136 3.136 0 0 0 0 6.272ZM99.599 72.543a3.136 3.136 0 1 0 0-6.271 3.136 3.136 0 0 0 0 6.27Z" fill="#C7DEFD"/><g><path d="M168.43 75.598c0 .656.632 2.23-.535 2.72-1.767.745-5.953.262-9.185.262-5.37 0-9.721-1.336-9.721-2.982 0-1.647 4.351-2.983 9.721-2.983 5.369 0 9.72 1.336 9.72 2.983Z" fill="#000001"/><path d="M168.43 74.957c0 .741.713 2.339-.748 2.862-1.784.636-6.022.121-8.972.121-5.37 0-9.721-1.336-9.721-2.983 0-1.646 4.351-2.982 9.721-2.982 5.369 0 9.72 1.332 9.72 2.983Z" fill="#fff" stroke="#0C0A0A" stroke-width=".53" stroke-miterlimit="10" stroke-linecap="round" stroke-linejoin="round"/><path d="M153.844 76.213c1.327 0 2.402-.342 2.402-.764 0-.423-1.075-.765-2.402-.765-1.328 0-2.403.342-2.403.765 0 .422 1.075.764 2.403.764Z" fill="#1053F3"/><path d="M157.579 74.221c1.327 0 2.403-.342 2.403-.765 0-.422-1.076-.764-2.403-.764s-2.403.342-2.403.764c0 .423 1.076.765 2.403.765Z" fill="#000001"/><path d="M163.129 75.15c1.327 0 2.403-.342 2.403-.764s-1.076-.765-2.403-.765-2.403.343-2.403.765 1.076.765 2.403.765Z" fill="#43BA79"/><path d="M160.102 76.974c1.328 0 2.403-.342 2.403-.764 0-.423-1.075-.765-2.403-.765-1.327 0-2.403.342-2.403.765 0 .422 1.076.764 2.403.764Z" fill="#FED964"/></g><path d="M169.851 73.388s-2.298.253-2.87-.318c-.571-.572-1.199.487-.885.986.314.5 1.614 1.34 2.704 1.522 1.091.18 2.029-.162 2.029-.294 0-.133-.978-1.896-.978-1.896Z" fill="#FF8DA0"/><path d="M79.377 121.607a.108.108 0 0 0-.149.045c-.169.301-.402.539-.676.724-.407.278-.898.439-1.357.527-.458.089-.89.109-1.167.109-.104 0-.185-.004-.245-.004-.029 0-.053-.004-.065-.004h-.02a.115.115 0 0 0-.12.101c-.005.06.04.112.1.12.004 0 .133.012.35.012a6.11 6.11 0 0 0 1.699-.233c.33-.101.656-.241.954-.443.294-.201.555-.463.744-.801a.121.121 0 0 0-.048-.153Z" fill="#0C0A0A"/><path d="m90.599 88.973 2.495-1.143s5.249 3.827 5.249 4.777v2.697s-7.744-5.687-7.744-6.331Z" fill="#fff" stroke="#0C0A0A" stroke-width=".481" stroke-miterlimit="10" stroke-linecap="round" stroke-linejoin="round"/><path d="M122.932 101.317a2.934 2.934 0 0 0-.278-.781 8.5 8.5 0 0 0-.676-1.106 7.626 7.626 0 0 0-.383-.508.114.114 0 0 0-.157-.016.114.114 0 0 0-.016.157l.004.004c.032.04.322.403.62.862.149.229.298.483.423.732.12.25.213.491.245.693.008.06.065.1.125.092.06-.012.105-.068.093-.129Z" fill="#0C0A0A"/><g><path d="m158.915 104.537 2.697-2.209a6.906 6.906 0 0 0-1.481-2.496l-3.152 1.349-.563-3.442a7.035 7.035 0 0 0-2.903.032l-.406 3.405-3.26-1.231a6.918 6.918 0 0 0-1.425 2.528l2.745 2.056-2.697 2.21a6.909 6.909 0 0 0 1.481 2.496l3.152-1.349.563 3.438c.443.088.906.136 1.377.136.523 0 1.034-.06 1.53-.169l.406-3.405 3.26 1.232a6.924 6.924 0 0 0 1.425-2.528l-2.749-2.053Zm-3.876 2.351a2.352 2.352 0 1 1 .001-4.703 2.352 2.352 0 0 1-.001 4.703Z" fill="#000001"/><path d="M155.039 106.888a2.35 2.35 0 1 0 0-4.702 2.35 2.35 0 0 0 0 4.702Z" fill="#fff" stroke="#0C0A0A" stroke-width=".53" stroke-miterlimit="10" stroke-linecap="round" stroke-linejoin="round"/></g><g><path d="m57.372 133.409-2.354-1.763a6.194 6.194 0 0 0-.04-3.788l2.294-1.879-.91-1.498-2.705 1.159a6.158 6.158 0 0 0-3.3-1.859l-.48-2.93-1.75.036-.35 2.918a6.171 6.171 0 0 0-3.26 1.932l-2.778-1.05-.84 1.533 2.354 1.763a6.198 6.198 0 0 0 .04 3.788l-2.294 1.879.91 1.498 2.704-1.16a6.153 6.153 0 0 0 3.3 1.86l.48 2.93 1.75-.036.35-2.918a6.156 6.156 0 0 0 3.26-1.932l2.778 1.05.841-1.533Z" fill="#FED964" stroke="#0C0A0A" stroke-width=".53" stroke-miterlimit="10" stroke-linecap="round" stroke-linejoin="round"/><path d="M49.133 132.604a2.785 2.785 0 1 0 0-5.57 2.785 2.785 0 0 0 0 5.57Z" fill="#000001"/></g><path d="M137.212 80.077v4.987c0 .745-.603 1.345-1.344 1.345h-11.029c-.74 0-1.344-.604-1.344-1.345v-.124l.145-.121s1.304-3.031 3.727-3.031 4.094-.728 4.548-1.485c.455-.757 2.081-2.081 3.639-1.18l1.558.898.1.056Z" fill="#43BA79" stroke="#0C0A0A" stroke-width=".53" stroke-miterlimit="10" stroke-linecap="round" stroke-linejoin="round"/><g fill="#0C0A0A"><path d="M128.023 88.932a.121.121 0 0 0-.169.02l-1.763 2.194a.122.122 0 0 0 .02.17c.053.043.125.031.169-.02l1.763-2.195a.12.12 0 0 0-.02-.169ZM128.764 89.705a.117.117 0 0 0-.169.016l-1.84 2.194a.118.118 0 0 0 .016.169.117.117 0 0 0 .169-.016l1.84-2.194a.121.121 0 0 0-.016-.169ZM129.267 90.703a.117.117 0 0 0-.165.028l-1.252 1.743a.117.117 0 0 0 .028.165c.053.04.129.025.165-.028l1.252-1.743a.115.115 0 0 0-.028-.165Z"/></g><g fill="#0C0A0A"><path d="M151.155 55.88c-.004-.005-.145-.23-.37-.472a2.76 2.76 0 0 0-.391-.35 1.236 1.236 0 0 0-.491-.221 2.789 2.789 0 0 0-.435-.029c-.273 0-.599.02-.933.045-.33.02-.673.044-.966.044-.206 0-.391-.012-.536-.036a1.21 1.21 0 0 1-.406-.145.7.7 0 0 1-.282-.334.8.8 0 0 1-.06-.294c.004-.004.012-.008.02-.016a.834.834 0 0 1 .157-.085 4.29 4.29 0 0 1 .467-.169c.265-.084.563-.165.793-.221l.281-.068c.037-.008.061-.017.081-.02.02-.005.028-.009.028-.009a.12.12 0 0 0 .089-.145.12.12 0 0 0-.145-.088s-.483.109-.966.254a6.882 6.882 0 0 0-.673.229c-.092.04-.173.077-.237.12a.393.393 0 0 0-.085.073c-.012.016-.024.032-.032.053a.193.193 0 0 0-.016.072c0 .072.008.169.036.274l.113.028a.12.12 0 0 1 .089.145.123.123 0 0 1-.093.088l.016.029a.941.941 0 0 0 .29.285c.129.08.29.145.491.181.169.029.362.04.576.04.31 0 .652-.02.982-.044.334-.02.656-.044.917-.044.157 0 .294.008.395.024.129.024.266.089.394.181.194.137.371.326.495.483.065.077.113.145.149.194.016.024.033.044.041.056.004.008.008.012.008.016l.004.004a.118.118 0 0 0 .165.036.116.116 0 0 0 .04-.165Z"/><path d="M146.285 54.51a.12.12 0 0 0-.089-.144l-.113-.028-1.658-.403a.12.12 0 1 0-.056.233l1.771.431a.114.114 0 0 0 .052 0 .13.13 0 0 0 .093-.088ZM145.983 55.19l-1.047-.212a.12.12 0 0 0-.141.092.12.12 0 0 0 .093.14l1.046.214a.12.12 0 0 0 .141-.092.114.114 0 0 0-.092-.141Z"/></g></svg>