<svg width="531" height="442" fill="none" xmlns="http://www.w3.org/2000/svg"><g filter="url(#a)"><rect x="60" y="40" width="371" height="282" rx="20" fill="#fff"/><path d="M91.36 97V83h5.18c1.12 0 2.047.187 2.78.56.733.373 1.28.887 1.64 1.54.36.653.54 1.387.54 2.2a4.49 4.49 0 0 1-.52 2.14c-.347.64-.887 1.16-1.62 1.56-.733.387-1.673.58-2.82.58h-2.62V97h-2.56Zm2.56-7.5h2.46c.893 0 1.533-.193 1.92-.58.4-.4.6-.94.6-1.62 0-.693-.2-1.233-.6-1.62-.387-.4-1.027-.6-1.92-.6h-2.46v4.42Zm8.528 7.5v-9.92h2.28l.24 1.86a4.1 4.1 0 0 1 1.46-1.52c.627-.387 1.36-.58 2.2-.58v2.7h-.72c-.56 0-1.06.087-1.5.26a2.07 2.07 0 0 0-1.04.9c-.24.427-.36 1.02-.36 1.78V97h-2.56Zm11.514.24c-.96 0-1.826-.22-2.6-.66a4.97 4.97 0 0 1-1.82-1.82c-.44-.787-.66-1.693-.66-2.72 0-1.027.227-1.927.68-2.7a4.925 4.925 0 0 1 1.82-1.84c.774-.44 1.64-.66 2.6-.66.947 0 1.8.22 2.56.66a4.73 4.73 0 0 1 1.82 1.84c.454.773.68 1.673.68 2.7 0 1.027-.226 1.933-.68 2.72a4.768 4.768 0 0 1-1.82 1.82c-.773.44-1.633.66-2.58.66Zm0-2.22c.667 0 1.247-.247 1.74-.74.494-.507.74-1.253.74-2.24 0-.987-.246-1.727-.74-2.22-.493-.507-1.066-.76-1.72-.76-.68 0-1.266.253-1.76.76-.48.493-.72 1.233-.72 2.22 0 .987.24 1.733.72 2.24.494.493 1.074.74 1.74.74Zm10.929 2.22c-.933 0-1.766-.227-2.5-.68a4.876 4.876 0 0 1-1.74-1.86c-.426-.787-.64-1.68-.64-2.68 0-1 .214-1.887.64-2.66a4.727 4.727 0 0 1 1.74-1.84c.734-.453 1.567-.68 2.5-.68.747 0 1.4.14 1.96.42.56.28 1.014.673 1.36 1.18V82.6h2.56V97h-2.28l-.28-1.42a4.5 4.5 0 0 1-1.28 1.16c-.52.333-1.2.5-2.04.5Zm.54-2.24c.827 0 1.5-.273 2.02-.82.534-.56.8-1.273.8-2.14 0-.867-.266-1.573-.8-2.12-.52-.56-1.193-.84-2.02-.84-.813 0-1.486.273-2.02.82-.533.547-.8 1.253-.8 2.12 0 .867.267 1.58.8 2.14.534.56 1.207.84 2.02.84Zm10.667 2.24c-1.24 0-2.2-.387-2.88-1.16-.667-.773-1-1.907-1-3.4v-5.6h2.54v5.36c0 .853.173 1.507.52 1.96.347.453.893.68 1.64.68.707 0 1.287-.253 1.74-.76.467-.507.7-1.213.7-2.12v-5.12h2.56V97h-2.26l-.2-1.68a3.469 3.469 0 0 1-1.34 1.4c-.573.347-1.247.52-2.02.52Zm12.308 0c-1.013 0-1.907-.22-2.68-.66a4.876 4.876 0 0 1-1.84-1.84c-.44-.787-.66-1.687-.66-2.7 0-1.013.22-1.913.66-2.7a4.876 4.876 0 0 1 1.84-1.84c.773-.44 1.667-.66 2.68-.66 1.267 0 2.333.333 3.2 1 .867.653 1.42 1.56 1.66 2.72h-2.7c-.133-.48-.4-.853-.8-1.12-.387-.28-.847-.42-1.38-.42-.707 0-1.307.267-1.8.8-.493.533-.74 1.273-.74 2.22 0 .947.247 1.687.74 2.22.493.533 1.093.8 1.8.8.533 0 .993-.133 1.38-.4.4-.267.667-.647.8-1.14h2.7c-.24 1.12-.793 2.02-1.66 2.7-.867.68-1.933 1.02-3.2 1.02Zm10.416-.24c-1.04 0-1.874-.253-2.5-.76-.627-.507-.94-1.407-.94-2.7v-4.32h-1.7v-2.14h1.7l.3-2.66h2.26v2.66h2.68v2.14h-2.68v4.34c0 .48.1.813.3 1 .213.173.573.26 1.08.26h1.24V97h-1.74Zm9.443 0-3.64-9.92h2.68l2.52 7.5 2.52-7.5h2.68l-3.66 9.92h-3.1Zm8.755-11.46c-.467 0-.853-.14-1.16-.42a1.404 1.404 0 0 1-.44-1.06c0-.427.147-.773.44-1.04.307-.28.693-.42 1.16-.42.467 0 .847.14 1.14.42.307.267.46.613.46 1.04 0 .427-.153.78-.46 1.06-.293.28-.673.42-1.14.42ZM175.74 97v-9.92h2.56V97h-2.56Zm9.052.24c-1 0-1.887-.213-2.66-.64a4.635 4.635 0 0 1-1.82-1.8c-.44-.773-.66-1.667-.66-2.68 0-1.027.213-1.94.64-2.74a4.74 4.74 0 0 1 1.8-1.86c.773-.453 1.68-.68 2.72-.68.973 0 1.833.213 2.58.64a4.501 4.501 0 0 1 1.74 1.76c.427.733.64 1.553.64 2.46 0 .147-.007.3-.02.46a6.7 6.7 0 0 1-.02.5h-7.54c.053.773.32 1.38.8 1.82.493.44 1.087.66 1.78.66.52 0 .953-.113 1.3-.34.36-.24.627-.547.8-.92h2.6c-.187.627-.5 1.2-.94 1.72-.427.507-.96.907-1.6 1.2-.627.293-1.34.44-2.14.44Zm.02-8.32c-.627 0-1.18.18-1.66.54-.48.347-.787.88-.92 1.6h4.94c-.04-.653-.28-1.173-.72-1.56-.44-.387-.987-.58-1.64-.58Zm7.662 8.08-2.9-9.92h2.54l1.72 7.14 2-7.14h2.84l2 7.14 1.74-7.14h2.54l-2.92 9.92h-2.66l-2.12-7.42-2.12 7.42h-2.66Zm17.196.24c-.88 0-1.654-.14-2.32-.42-.667-.293-1.2-.693-1.6-1.2a3.445 3.445 0 0 1-.72-1.76h2.58c.08.387.293.72.64 1 .36.267.82.4 1.38.4.56 0 .966-.113 1.22-.34.266-.227.4-.487.4-.78 0-.427-.187-.713-.56-.86-.374-.16-.894-.313-1.56-.46-.427-.093-.86-.207-1.3-.34-.44-.133-.847-.3-1.22-.5a2.82 2.82 0 0 1-.88-.8c-.227-.333-.34-.74-.34-1.22 0-.88.346-1.62 1.04-2.22.706-.6 1.693-.9 2.96-.9 1.173 0 2.106.273 2.8.82.706.547 1.126 1.3 1.26 2.26h-2.42c-.147-.733-.7-1.1-1.66-1.1-.48 0-.854.093-1.12.28-.254.187-.38.42-.38.7 0 .293.193.527.58.7.386.173.9.333 1.54.48a18.3 18.3 0 0 1 1.9.54c.586.187 1.053.473 1.4.86.346.373.52.913.52 1.62a2.79 2.79 0 0 1-.48 1.66c-.334.493-.814.88-1.44 1.16-.627.28-1.367.42-2.22.42Z" fill="#1D1E25"/><rect x="90" y="242" width="34" height="30" rx="2" fill="#B5E4CA"/><path d="M97.777 299v-9.8h2.128l3.122 6.216 3.08-6.216h2.128v9.8h-1.792v-6.762l-2.73 5.362h-1.414l-2.73-5.362V299h-1.792Zm15.15.168a3.614 3.614 0 0 1-1.82-.462 3.475 3.475 0 0 1-1.274-1.274c-.308-.551-.462-1.185-.462-1.904 0-.719.158-1.349.476-1.89a3.44 3.44 0 0 1 1.274-1.288 3.614 3.614 0 0 1 1.82-.462c.662 0 1.26.154 1.792.462.541.308.966.737 1.274 1.288.317.541.476 1.171.476 1.89 0 .719-.159 1.353-.476 1.904a3.346 3.346 0 0 1-1.274 1.274 3.59 3.59 0 0 1-1.806.462Zm0-1.554a1.67 1.67 0 0 0 1.218-.518c.345-.355.518-.877.518-1.568 0-.691-.173-1.209-.518-1.554-.346-.355-.747-.532-1.204-.532a1.66 1.66 0 0 0-1.232.532c-.336.345-.504.863-.504 1.554 0 .691.168 1.213.504 1.568.345.345.751.518 1.218.518Z" fill="#808D9E"/><rect x="136.167" y="141" width="34" height="131" rx="2" fill="#2A85FF"/><path d="M148.605 299v-8.358h-2.856V289.2h7.518v1.442h-2.87V299h-1.792Zm7.354.168c-.868 0-1.54-.271-2.016-.812-.467-.541-.7-1.335-.7-2.38v-3.92h1.778v3.752c0 .597.121 1.055.364 1.372.243.317.625.476 1.148.476.495 0 .901-.177 1.218-.532.327-.355.49-.849.49-1.484v-3.584h1.792V299h-1.582l-.14-1.176a2.428 2.428 0 0 1-.938.98c-.401.243-.873.364-1.414.364Z" fill="#808D9E"/><rect x="182.333" y="192" width="34" height="80" rx="2" fill="#B1E5FC"/><path d="m191.641 299-2.59-9.8h1.918l1.764 7.798 2.072-7.798h1.974l2.016 7.798 1.764-7.798h1.932l-2.66 9.8h-2.128l-1.946-7.266-2.002 7.266h-2.114Zm14.242.168c-.7 0-1.321-.149-1.862-.448a3.25 3.25 0 0 1-1.274-1.26c-.308-.541-.462-1.167-.462-1.876 0-.719.149-1.358.448-1.918.308-.56.728-.994 1.26-1.302.541-.317 1.176-.476 1.904-.476.681 0 1.283.149 1.806.448a3.15 3.15 0 0 1 1.218 1.232c.299.513.448 1.087.448 1.722 0 .103-.005.21-.014.322 0 .112-.005.229-.014.35h-5.278c.037.541.224.966.56 1.274.345.308.761.462 1.246.462.364 0 .667-.079.91-.238.252-.168.439-.383.56-.644h1.82c-.131.439-.35.84-.658 1.204a3.159 3.159 0 0 1-1.12.84c-.439.205-.938.308-1.498.308Zm.014-5.824c-.439 0-.826.126-1.162.378-.336.243-.551.616-.644 1.12h3.458c-.028-.457-.196-.821-.504-1.092-.308-.271-.691-.406-1.148-.406Z" fill="#808D9E"/><rect x="228.5" y="253" width="34" height="19" rx="2" fill="#FFBC99"/><path d="M240.589 299v-8.358h-2.856V289.2h7.518v1.442h-2.87V299h-1.792Zm5.448 0v-10.08h1.792v4.2c.233-.383.546-.681.938-.896a2.767 2.767 0 0 1 1.372-.336c.859 0 1.521.271 1.988.812.476.541.714 1.335.714 2.38V299h-1.778v-3.752c0-.597-.121-1.055-.364-1.372-.233-.317-.607-.476-1.12-.476-.504 0-.924.177-1.26.532-.327.355-.49.849-.49 1.484V299h-1.792Z" fill="#808D9E"/><rect x="274.667" y="228" width="34" height="44" rx="2" fill="#B5E4CA"/><path d="M286.238 299v-9.8h6.328v1.442h-4.536v2.744h3.668v1.414h-3.668v4.2h-1.792Zm7.169 0v-6.944h1.596l.168 1.302a2.861 2.861 0 0 1 1.022-1.064c.438-.271.952-.406 1.54-.406v1.89h-.504c-.392 0-.742.061-1.05.182a1.443 1.443 0 0 0-.728.63c-.168.299-.252.714-.252 1.246V299h-1.792Z" fill="#808D9E"/><rect x="320.833" y="202" width="34" height="70" rx="2" fill="#2A85FF"/><path d="M334.165 299.168c-.719 0-1.354-.121-1.904-.364a3.128 3.128 0 0 1-1.302-1.064c-.318-.467-.481-1.031-.49-1.694h1.89c.018.457.182.845.49 1.162.317.308.751.462 1.302.462.476 0 .854-.112 1.134-.336.28-.233.42-.541.42-.924 0-.401-.126-.714-.378-.938-.243-.224-.57-.406-.98-.546l-1.316-.448c-.756-.261-1.335-.597-1.736-1.008-.392-.411-.588-.957-.588-1.638-.01-.579.126-1.073.406-1.484.289-.42.681-.742 1.176-.966.494-.233 1.064-.35 1.708-.35.653 0 1.227.117 1.722.35.504.233.896.56 1.176.98.289.42.443.919.462 1.498h-1.918a1.305 1.305 0 0 0-.406-.91c-.252-.271-.607-.406-1.064-.406-.392-.009-.724.089-.994.294-.262.196-.392.485-.392.868 0 .327.102.588.308.784.205.187.485.345.84.476.354.131.76.271 1.218.42.485.168.928.364 1.33.588.401.224.723.523.966.896.242.364.364.835.364 1.414 0 .513-.131.989-.392 1.428-.262.439-.649.793-1.162 1.064-.514.261-1.144.392-1.89.392Zm6.859 0c-.597 0-1.087-.093-1.47-.28-.383-.196-.667-.453-.854-.77a2.028 2.028 0 0 1-.28-1.05c0-.644.252-1.167.756-1.568s1.26-.602 2.268-.602h1.764v-.168c0-.476-.135-.826-.406-1.05-.271-.224-.607-.336-1.008-.336-.364 0-.681.089-.952.266a1.09 1.09 0 0 0-.504.756h-1.75c.047-.504.215-.943.504-1.316a2.861 2.861 0 0 1 1.148-.854 3.859 3.859 0 0 1 1.568-.308c.989 0 1.769.247 2.338.742.569.495.854 1.195.854 2.1V299h-1.526l-.168-1.12a2.573 2.573 0 0 1-.868.924c-.364.243-.835.364-1.414.364Zm.406-1.4c.513 0 .91-.168 1.19-.504.289-.336.471-.751.546-1.246h-1.526c-.476 0-.817.089-1.022.266a.783.783 0 0 0-.308.63c0 .271.103.481.308.63.205.149.476.224.812.224Z" fill="#808D9E"/><rect x="367" y="220" width="34" height="52" rx="2" fill="#B5E4CA"/><path d="M380.112 299.168c-.718 0-1.353-.121-1.904-.364a3.14 3.14 0 0 1-1.302-1.064c-.317-.467-.48-1.031-.49-1.694h1.89c.019.457.182.845.49 1.162.318.308.752.462 1.302.462.476 0 .854-.112 1.134-.336.28-.233.42-.541.42-.924 0-.401-.126-.714-.378-.938-.242-.224-.569-.406-.98-.546l-1.316-.448c-.756-.261-1.334-.597-1.736-1.008-.392-.411-.588-.957-.588-1.638-.009-.579.126-1.073.406-1.484a2.8 2.8 0 0 1 1.176-.966c.495-.233 1.064-.35 1.708-.35.654 0 1.228.117 1.722.35.504.233.896.56 1.176.98.29.42.444.919.462 1.498h-1.918a1.297 1.297 0 0 0-.406-.91c-.252-.271-.606-.406-1.064-.406-.392-.009-.723.089-.994.294-.261.196-.392.485-.392.868 0 .327.103.588.308.784.206.187.486.345.84.476.355.131.761.271 1.218.42.486.168.929.364 1.33.588.402.224.724.523.966.896.243.364.364.835.364 1.414 0 .513-.13.989-.392 1.428-.261.439-.648.793-1.162 1.064-.513.261-1.143.392-1.89.392Zm7.07 0c-.868 0-1.54-.271-2.016-.812-.467-.541-.7-1.335-.7-2.38v-3.92h1.778v3.752c0 .597.121 1.055.364 1.372.243.317.625.476 1.148.476.495 0 .901-.177 1.218-.532.327-.355.49-.849.49-1.484v-3.584h1.792V299h-1.582l-.14-1.176a2.428 2.428 0 0 1-.938.98c-.401.243-.873.364-1.414.364Z" fill="#808D9E"/><rect x="158" y="148" width="71" height="48" rx="8" fill="#1D1E25"/><path d="M168.82 166v-7.368h-2.484V157.6h6.228v1.032h-2.472V166h-1.272Zm6.365.144c-.72 0-1.288-.224-1.704-.672-.408-.448-.612-1.116-.612-2.004v-3.42h1.272v3.288c0 1.152.472 1.728 1.416 1.728a1.5 1.5 0 0 0 1.164-.504c.304-.336.456-.816.456-1.44v-3.072h1.272V166h-1.128l-.096-1.044a2.1 2.1 0 0 1-.816.876 2.36 2.36 0 0 1-1.224.312Zm7.546 0c-.584 0-1.104-.128-1.56-.384a2.828 2.828 0 0 1-1.056-1.092c-.256-.464-.384-1.004-.384-1.62 0-.624.124-1.172.372-1.644.256-.472.608-.84 1.056-1.104.456-.264.984-.396 1.584-.396.584 0 1.092.132 1.524.396.432.256.768.6 1.008 1.032.24.432.36.908.36 1.428 0 .08-.004.168-.012.264 0 .088-.004.188-.012.3h-4.632c.04.576.228 1.016.564 1.32.344.296.74.444 1.188.444.36 0 .66-.08.9-.24.248-.168.432-.392.552-.672h1.272c-.16.56-.48 1.028-.96 1.404-.472.376-1.06.564-1.764.564Zm0-5.196c-.424 0-.8.128-1.128.384-.328.248-.528.624-.6 1.128h3.36c-.024-.464-.188-.832-.492-1.104-.304-.272-.684-.408-1.14-.408Zm6.48 5.196c-.752 0-1.372-.184-1.86-.552a2.067 2.067 0 0 1-.84-1.464h1.284c.064.272.216.508.456.708.24.192.556.288.948.288.384 0 .664-.08.84-.24.176-.16.264-.344.264-.552 0-.304-.124-.508-.372-.612-.24-.112-.576-.212-1.008-.3a7.945 7.945 0 0 1-1.008-.288 2.325 2.325 0 0 1-.828-.504c-.216-.224-.324-.524-.324-.9 0-.52.2-.952.6-1.296.4-.352.96-.528 1.68-.528.664 0 1.2.16 1.608.48.416.32.66.772.732 1.356h-1.224a.874.874 0 0 0-.36-.6c-.192-.144-.452-.216-.78-.216-.32 0-.568.068-.744.204a.595.595 0 0 0-.264.504c0 .208.12.372.36.492.248.12.572.228.972.324a9.1 9.1 0 0 1 1.104.312c.344.112.62.28.828.504.208.224.312.552.312.984.008.544-.204.996-.636 1.356-.424.36-1.004.54-1.74.54Zm6.356 0c-.576 0-1.084-.136-1.524-.408a2.835 2.835 0 0 1-1.032-1.116c-.248-.472-.372-1.008-.372-1.608 0-.6.124-1.132.372-1.596a2.75 2.75 0 0 1 1.032-1.104 2.9 2.9 0 0 1 1.536-.408c.472 0 .884.092 1.236.276.36.184.64.444.84.78v-3.6h1.272V166h-1.14l-.132-.924c-.192.28-.456.528-.792.744-.336.216-.768.324-1.296.324Zm.228-1.104c.544 0 .988-.188 1.332-.564.352-.376.528-.86.528-1.452 0-.6-.176-1.084-.528-1.452-.344-.376-.788-.564-1.332-.564s-.992.188-1.344.564c-.352.368-.528.852-.528 1.452 0 .392.08.74.24 1.044.16.304.38.544.66.72.288.168.612.252.972.252Zm6.632 1.104c-.504 0-.92-.084-1.248-.252a1.74 1.74 0 0 1-.732-.66c-.16-.28-.24-.584-.24-.912 0-.576.224-1.032.672-1.368.448-.336 1.088-.504 1.92-.504h1.56v-.108c0-.464-.128-.812-.384-1.044-.248-.232-.572-.348-.972-.348-.352 0-.66.088-.924.264-.256.168-.412.42-.468.756h-1.272c.04-.432.184-.8.432-1.104.256-.312.576-.548.96-.708.392-.168.82-.252 1.284-.252.832 0 1.476.22 1.932.66.456.432.684 1.024.684 1.776V166h-1.104l-.108-1.02a2.261 2.261 0 0 1-.732.828c-.32.224-.74.336-1.26.336Zm.252-1.032c.344 0 .632-.08.864-.24.24-.168.424-.388.552-.66.136-.272.22-.572.252-.9h-1.416c-.504 0-.864.088-1.08.264a.83.83 0 0 0-.312.66c0 .272.1.488.3.648.208.152.488.228.84.228Zm4.824 3.528 1.428-3.132h-.348l-2.352-5.46h1.38l1.824 4.404 1.908-4.404h1.344l-3.84 8.592h-1.344Z" fill="#EFEFEF"/><rect x="166" y="176" width="12" height="12" rx="4" fill="#2A85FF"/><path d="M185.828 186.144c-.616 0-1.148-.108-1.596-.324a2.641 2.641 0 0 1-1.044-.888 2.774 2.774 0 0 1-.432-1.296h1.5c.072.344.248.632.528.864.28.224.628.336 1.044.336.448 0 .812-.164 1.092-.492.288-.328.432-.736.432-1.224 0-.504-.144-.904-.432-1.2-.28-.296-.636-.444-1.068-.444-.36 0-.672.088-.936.264a1.486 1.486 0 0 0-.564.66h-1.476l.72-4.8h4.656v1.344h-3.504l-.384 1.944c.176-.192.416-.348.72-.468a2.604 2.604 0 0 1 1.02-.192c.6 0 1.1.136 1.5.408.4.264.704.616.912 1.056.208.432.312.904.312 1.416 0 .584-.128 1.104-.384 1.56a2.74 2.74 0 0 1-1.056 1.08c-.448.264-.968.396-1.56.396Zm7.321 0c-.616 0-1.148-.108-1.596-.324a2.641 2.641 0 0 1-1.044-.888 2.774 2.774 0 0 1-.432-1.296h1.5c.072.344.248.632.528.864.28.224.628.336 1.044.336.448 0 .812-.164 1.092-.492.288-.328.432-.736.432-1.224 0-.504-.144-.904-.432-1.2-.28-.296-.636-.444-1.068-.444-.36 0-.672.088-.936.264a1.486 1.486 0 0 0-.564.66h-1.476l.72-4.8h4.656v1.344h-3.504l-.384 1.944c.176-.192.416-.348.72-.468a2.604 2.604 0 0 1 1.02-.192c.6 0 1.1.136 1.5.408.4.264.704.616.912 1.056.208.432.312.904.312 1.416 0 .584-.128 1.104-.384 1.56a2.74 2.74 0 0 1-1.056 1.08c-.448.264-.968.396-1.56.396Zm7.754 0c-.776 0-1.44-.18-1.992-.54-.552-.368-.98-.876-1.284-1.524-.296-.656-.444-1.416-.444-2.28 0-.856.148-1.612.444-2.268.304-.656.732-1.164 1.284-1.524.552-.368 1.216-.552 1.992-.552s1.44.184 1.992.552c.552.36.976.868 1.272 1.524.304.656.456 1.412.456 2.268 0 .864-.152 1.624-.456 2.28-.296.648-.72 1.156-1.272 1.524-.552.36-1.216.54-1.992.54Zm0-1.38c.632 0 1.148-.264 1.548-.792.4-.528.6-1.252.6-2.172 0-.92-.2-1.644-.6-2.172-.4-.528-.916-.792-1.548-.792-.64 0-1.16.264-1.56.792-.392.528-.588 1.252-.588 2.172 0 .92.196 1.644.588 2.172.4.528.92.792 1.56.792Zm4.919 1.236v-8.64h1.536v5.1l2.112-2.412h1.824l-2.436 2.712 2.832 3.24h-1.92l-2.412-2.988V186h-1.536Z" fill="#F9FAFF"/></g><defs><filter id="a" x="0" y="0" width="531" height="442" filterUnits="userSpaceOnUse" color-interpolation-filters="sRGB"><feFlood flood-opacity="0" result="BackgroundImageFix"/><feColorMatrix in="SourceAlpha" values="0 0 0 0 0 0 0 0 0 0 0 0 0 0 0 0 0 0 127 0" result="hardAlpha"/><feOffset dx="20" dy="40"/><feGaussianBlur stdDeviation="40"/><feColorMatrix values="0 0 0 0 0.176471 0 0 0 0 0.2 0 0 0 0 0.317647 0 0 0 0.12 0"/><feBlend in2="BackgroundImageFix" result="effect1_dropShadow_19_529"/><feBlend in="SourceGraphic" in2="effect1_dropShadow_19_529" result="shape"/></filter></defs></svg>