<svg width="531" height="442" viewBox="0 0 531 442" fill="none" xmlns="http://www.w3.org/2000/svg">
<g filter="url(#filter0_d_19_529)">
<rect x="60" y="40" width="371" height="282" rx="20" fill="white"/>
<path d="M91.36 97V83H96.54C97.66 83 98.5867 83.1867 99.32 83.56C100.053 83.9333 100.6 84.4467 100.96 85.1C101.32 85.7533 101.5 86.4867 101.5 87.3C101.5 88.0733 101.327 88.7867 100.98 89.44C100.633 90.08 100.093 90.6 99.36 91C98.6267 91.3867 97.6867 91.58 96.54 91.58H93.92V97H91.36ZM93.92 89.5H96.38C97.2733 89.5 97.9133 89.3067 98.3 88.92C98.7 88.52 98.9 87.98 98.9 87.3C98.9 86.6067 98.7 86.0667 98.3 85.68C97.9133 85.28 97.2733 85.08 96.38 85.08H93.92V89.5ZM102.448 97V87.08H104.728L104.968 88.94C105.328 88.3 105.815 87.7933 106.428 87.42C107.055 87.0333 107.788 86.84 108.628 86.84V89.54H107.908C107.348 89.54 106.848 89.6267 106.408 89.8C105.968 89.9733 105.622 90.2733 105.368 90.7C105.128 91.1267 105.008 91.72 105.008 92.48V97H102.448ZM113.962 97.24C113.002 97.24 112.136 97.02 111.362 96.58C110.602 96.14 109.996 95.5333 109.542 94.76C109.102 93.9733 108.882 93.0667 108.882 92.04C108.882 91.0133 109.109 90.1133 109.562 89.34C110.016 88.5533 110.622 87.94 111.382 87.5C112.156 87.06 113.022 86.84 113.982 86.84C114.929 86.84 115.782 87.06 116.542 87.5C117.316 87.94 117.922 88.5533 118.362 89.34C118.816 90.1133 119.042 91.0133 119.042 92.04C119.042 93.0667 118.816 93.9733 118.362 94.76C117.922 95.5333 117.316 96.14 116.542 96.58C115.769 97.02 114.909 97.24 113.962 97.24ZM113.962 95.02C114.629 95.02 115.209 94.7733 115.702 94.28C116.196 93.7733 116.442 93.0267 116.442 92.04C116.442 91.0533 116.196 90.3133 115.702 89.82C115.209 89.3133 114.636 89.06 113.982 89.06C113.302 89.06 112.716 89.3133 112.222 89.82C111.742 90.3133 111.502 91.0533 111.502 92.04C111.502 93.0267 111.742 93.7733 112.222 94.28C112.716 94.7733 113.296 95.02 113.962 95.02ZM124.891 97.24C123.958 97.24 123.125 97.0133 122.391 96.56C121.658 96.1067 121.078 95.4867 120.651 94.7C120.225 93.9133 120.011 93.02 120.011 92.02C120.011 91.02 120.225 90.1333 120.651 89.36C121.078 88.5733 121.658 87.96 122.391 87.52C123.125 87.0667 123.958 86.84 124.891 86.84C125.638 86.84 126.291 86.98 126.851 87.26C127.411 87.54 127.865 87.9333 128.211 88.44V82.6H130.771V97H128.491L128.211 95.58C127.891 96.02 127.465 96.4067 126.931 96.74C126.411 97.0733 125.731 97.24 124.891 97.24ZM125.431 95C126.258 95 126.931 94.7267 127.451 94.18C127.985 93.62 128.251 92.9067 128.251 92.04C128.251 91.1733 127.985 90.4667 127.451 89.92C126.931 89.36 126.258 89.08 125.431 89.08C124.618 89.08 123.945 89.3533 123.411 89.9C122.878 90.4467 122.611 91.1533 122.611 92.02C122.611 92.8867 122.878 93.6 123.411 94.16C123.945 94.72 124.618 95 125.431 95ZM136.098 97.24C134.858 97.24 133.898 96.8533 133.218 96.08C132.551 95.3067 132.218 94.1733 132.218 92.68V87.08H134.758V92.44C134.758 93.2933 134.931 93.9467 135.278 94.4C135.625 94.8533 136.171 95.08 136.918 95.08C137.625 95.08 138.205 94.8267 138.658 94.32C139.125 93.8133 139.358 93.1067 139.358 92.2V87.08H141.918V97H139.658L139.458 95.32C139.151 95.9067 138.705 96.3733 138.118 96.72C137.545 97.0667 136.871 97.24 136.098 97.24ZM148.406 97.24C147.393 97.24 146.499 97.02 145.726 96.58C144.953 96.14 144.339 95.5267 143.886 94.74C143.446 93.9533 143.226 93.0533 143.226 92.04C143.226 91.0267 143.446 90.1267 143.886 89.34C144.339 88.5533 144.953 87.94 145.726 87.5C146.499 87.06 147.393 86.84 148.406 86.84C149.673 86.84 150.739 87.1733 151.606 87.84C152.473 88.4933 153.026 89.4 153.266 90.56H150.566C150.433 90.08 150.166 89.7067 149.766 89.44C149.379 89.16 148.919 89.02 148.386 89.02C147.679 89.02 147.079 89.2867 146.586 89.82C146.093 90.3533 145.846 91.0933 145.846 92.04C145.846 92.9867 146.093 93.7267 146.586 94.26C147.079 94.7933 147.679 95.06 148.386 95.06C148.919 95.06 149.379 94.9267 149.766 94.66C150.166 94.3933 150.433 94.0133 150.566 93.52H153.266C153.026 94.64 152.473 95.54 151.606 96.22C150.739 96.9 149.673 97.24 148.406 97.24ZM158.822 97C157.782 97 156.948 96.7467 156.322 96.24C155.695 95.7333 155.382 94.8333 155.382 93.54V89.22H153.682V87.08H155.382L155.682 84.42H157.942V87.08H160.622V89.22H157.942V93.56C157.942 94.04 158.042 94.3733 158.242 94.56C158.455 94.7333 158.815 94.82 159.322 94.82H160.562V97H158.822ZM168.265 97L164.625 87.08H167.305L169.825 94.58L172.345 87.08H175.025L171.365 97H168.265ZM177.02 85.54C176.553 85.54 176.167 85.4 175.86 85.12C175.567 84.84 175.42 84.4867 175.42 84.06C175.42 83.6333 175.567 83.2867 175.86 83.02C176.167 82.74 176.553 82.6 177.02 82.6C177.487 82.6 177.867 82.74 178.16 83.02C178.467 83.2867 178.62 83.6333 178.62 84.06C178.62 84.4867 178.467 84.84 178.16 85.12C177.867 85.4 177.487 85.54 177.02 85.54ZM175.74 97V87.08H178.3V97H175.74ZM184.792 97.24C183.792 97.24 182.905 97.0267 182.132 96.6C181.359 96.1733 180.752 95.5733 180.312 94.8C179.872 94.0267 179.652 93.1333 179.652 92.12C179.652 91.0933 179.865 90.18 180.292 89.38C180.732 88.58 181.332 87.96 182.092 87.52C182.865 87.0667 183.772 86.84 184.812 86.84C185.785 86.84 186.645 87.0533 187.392 87.48C188.139 87.9067 188.719 88.4933 189.132 89.24C189.559 89.9733 189.772 90.7933 189.772 91.7C189.772 91.8467 189.765 92 189.752 92.16C189.752 92.32 189.745 92.4867 189.732 92.66H182.192C182.245 93.4333 182.512 94.04 182.992 94.48C183.485 94.92 184.079 95.14 184.772 95.14C185.292 95.14 185.725 95.0267 186.072 94.8C186.432 94.56 186.699 94.2533 186.872 93.88H189.472C189.285 94.5067 188.972 95.08 188.532 95.6C188.105 96.1067 187.572 96.5067 186.932 96.8C186.305 97.0933 185.592 97.24 184.792 97.24ZM184.812 88.92C184.185 88.92 183.632 89.1 183.152 89.46C182.672 89.8067 182.365 90.34 182.232 91.06H187.172C187.132 90.4067 186.892 89.8867 186.452 89.5C186.012 89.1133 185.465 88.92 184.812 88.92ZM192.474 97L189.574 87.08H192.114L193.834 94.22L195.834 87.08H198.674L200.674 94.22L202.414 87.08H204.954L202.034 97H199.374L197.254 89.58L195.134 97H192.474ZM209.67 97.24C208.79 97.24 208.016 97.1 207.35 96.82C206.683 96.5267 206.15 96.1267 205.75 95.62C205.35 95.1133 205.11 94.5267 205.03 93.86H207.61C207.69 94.2467 207.903 94.58 208.25 94.86C208.61 95.1267 209.07 95.26 209.63 95.26C210.19 95.26 210.596 95.1467 210.85 94.92C211.116 94.6933 211.25 94.4333 211.25 94.14C211.25 93.7133 211.063 93.4267 210.69 93.28C210.316 93.12 209.796 92.9667 209.13 92.82C208.703 92.7267 208.27 92.6133 207.83 92.48C207.39 92.3467 206.983 92.18 206.61 91.98C206.25 91.7667 205.956 91.5 205.73 91.18C205.503 90.8467 205.39 90.44 205.39 89.96C205.39 89.08 205.736 88.34 206.43 87.74C207.136 87.14 208.123 86.84 209.39 86.84C210.563 86.84 211.496 87.1133 212.19 87.66C212.896 88.2067 213.316 88.96 213.45 89.92H211.03C210.883 89.1867 210.33 88.82 209.37 88.82C208.89 88.82 208.516 88.9133 208.25 89.1C207.996 89.2867 207.87 89.52 207.87 89.8C207.87 90.0933 208.063 90.3267 208.45 90.5C208.836 90.6733 209.35 90.8333 209.99 90.98C210.683 91.14 211.316 91.32 211.89 91.52C212.476 91.7067 212.943 91.9933 213.29 92.38C213.636 92.7533 213.81 93.2933 213.81 94C213.823 94.6133 213.663 95.1667 213.33 95.66C212.996 96.1533 212.516 96.54 211.89 96.82C211.263 97.1 210.523 97.24 209.67 97.24Z" fill="#1D1E25"/>
<rect x="90" y="242" width="34" height="30" rx="2" fill="#B5E4CA"/>
<path d="M97.7772 299V289.2H99.9052L103.027 295.416L106.107 289.2H108.235V299H106.443V292.238L103.713 297.6H102.299L99.5692 292.238V299H97.7772ZM112.927 299.168C112.255 299.168 111.648 299.014 111.107 298.706C110.575 298.398 110.15 297.973 109.833 297.432C109.525 296.881 109.371 296.247 109.371 295.528C109.371 294.809 109.529 294.179 109.847 293.638C110.164 293.087 110.589 292.658 111.121 292.35C111.662 292.042 112.269 291.888 112.941 291.888C113.603 291.888 114.201 292.042 114.733 292.35C115.274 292.658 115.699 293.087 116.007 293.638C116.324 294.179 116.483 294.809 116.483 295.528C116.483 296.247 116.324 296.881 116.007 297.432C115.699 297.973 115.274 298.398 114.733 298.706C114.191 299.014 113.589 299.168 112.927 299.168ZM112.927 297.614C113.393 297.614 113.799 297.441 114.145 297.096C114.49 296.741 114.663 296.219 114.663 295.528C114.663 294.837 114.49 294.319 114.145 293.974C113.799 293.619 113.398 293.442 112.941 293.442C112.465 293.442 112.054 293.619 111.709 293.974C111.373 294.319 111.205 294.837 111.205 295.528C111.205 296.219 111.373 296.741 111.709 297.096C112.054 297.441 112.46 297.614 112.927 297.614Z" fill="#808D9E"/>
<rect x="136.167" y="141" width="34" height="131" rx="2" fill="#2A85FF"/>
<path d="M148.605 299V290.642H145.749V289.2H153.267V290.642H150.397V299H148.605ZM155.959 299.168C155.091 299.168 154.419 298.897 153.943 298.356C153.476 297.815 153.243 297.021 153.243 295.976V292.056H155.021V295.808C155.021 296.405 155.142 296.863 155.385 297.18C155.628 297.497 156.01 297.656 156.533 297.656C157.028 297.656 157.434 297.479 157.751 297.124C158.078 296.769 158.241 296.275 158.241 295.64V292.056H160.033V299H158.451L158.311 297.824C158.096 298.235 157.784 298.561 157.373 298.804C156.972 299.047 156.5 299.168 155.959 299.168Z" fill="#808D9E"/>
<rect x="182.333" y="192" width="34" height="80" rx="2" fill="#B1E5FC"/>
<path d="M191.641 299L189.051 289.2H190.969L192.733 296.998L194.805 289.2H196.779L198.795 296.998L200.559 289.2H202.491L199.831 299H197.703L195.757 291.734L193.755 299H191.641ZM205.883 299.168C205.183 299.168 204.562 299.019 204.021 298.72C203.48 298.421 203.055 298.001 202.747 297.46C202.439 296.919 202.285 296.293 202.285 295.584C202.285 294.865 202.434 294.226 202.733 293.666C203.041 293.106 203.461 292.672 203.993 292.364C204.534 292.047 205.169 291.888 205.897 291.888C206.578 291.888 207.18 292.037 207.703 292.336C208.226 292.635 208.632 293.045 208.921 293.568C209.22 294.081 209.369 294.655 209.369 295.29C209.369 295.393 209.364 295.5 209.355 295.612C209.355 295.724 209.35 295.841 209.341 295.962H204.063C204.1 296.503 204.287 296.928 204.623 297.236C204.968 297.544 205.384 297.698 205.869 297.698C206.233 297.698 206.536 297.619 206.779 297.46C207.031 297.292 207.218 297.077 207.339 296.816H209.159C209.028 297.255 208.809 297.656 208.501 298.02C208.202 298.375 207.829 298.655 207.381 298.86C206.942 299.065 206.443 299.168 205.883 299.168ZM205.897 293.344C205.458 293.344 205.071 293.47 204.735 293.722C204.399 293.965 204.184 294.338 204.091 294.842H207.549C207.521 294.385 207.353 294.021 207.045 293.75C206.737 293.479 206.354 293.344 205.897 293.344Z" fill="#808D9E"/>
<rect x="228.5" y="253" width="34" height="19" rx="2" fill="#FFBC99"/>
<path d="M240.589 299V290.642H237.733V289.2H245.251V290.642H242.381V299H240.589ZM246.037 299V288.92H247.829V293.12C248.062 292.737 248.375 292.439 248.767 292.224C249.168 292 249.626 291.888 250.139 291.888C250.998 291.888 251.66 292.159 252.127 292.7C252.603 293.241 252.841 294.035 252.841 295.08V299H251.063V295.248C251.063 294.651 250.942 294.193 250.699 293.876C250.466 293.559 250.092 293.4 249.579 293.4C249.075 293.4 248.655 293.577 248.319 293.932C247.992 294.287 247.829 294.781 247.829 295.416V299H246.037Z" fill="#808D9E"/>
<rect x="274.667" y="228" width="34" height="44" rx="2" fill="#B5E4CA"/>
<path d="M286.238 299V289.2H292.566V290.642H288.03V293.386H291.698V294.8H288.03V299H286.238ZM293.407 299V292.056H295.003L295.171 293.358C295.423 292.91 295.763 292.555 296.193 292.294C296.631 292.023 297.145 291.888 297.733 291.888V293.778H297.229C296.837 293.778 296.487 293.839 296.179 293.96C295.871 294.081 295.628 294.291 295.451 294.59C295.283 294.889 295.199 295.304 295.199 295.836V299H293.407Z" fill="#808D9E"/>
<rect x="320.833" y="202" width="34" height="70" rx="2" fill="#2A85FF"/>
<path d="M334.165 299.168C333.446 299.168 332.811 299.047 332.261 298.804C331.71 298.552 331.276 298.197 330.959 297.74C330.641 297.273 330.478 296.709 330.469 296.046H332.359C332.377 296.503 332.541 296.891 332.849 297.208C333.166 297.516 333.6 297.67 334.151 297.67C334.627 297.67 335.005 297.558 335.285 297.334C335.565 297.101 335.705 296.793 335.705 296.41C335.705 296.009 335.579 295.696 335.327 295.472C335.084 295.248 334.757 295.066 334.347 294.926C333.936 294.786 333.497 294.637 333.031 294.478C332.275 294.217 331.696 293.881 331.295 293.47C330.903 293.059 330.707 292.513 330.707 291.832C330.697 291.253 330.833 290.759 331.113 290.348C331.402 289.928 331.794 289.606 332.289 289.382C332.783 289.149 333.353 289.032 333.997 289.032C334.65 289.032 335.224 289.149 335.719 289.382C336.223 289.615 336.615 289.942 336.895 290.362C337.184 290.782 337.338 291.281 337.357 291.86H335.439C335.429 291.515 335.294 291.211 335.033 290.95C334.781 290.679 334.426 290.544 333.969 290.544C333.577 290.535 333.245 290.633 332.975 290.838C332.713 291.034 332.583 291.323 332.583 291.706C332.583 292.033 332.685 292.294 332.891 292.49C333.096 292.677 333.376 292.835 333.731 292.966C334.085 293.097 334.491 293.237 334.949 293.386C335.434 293.554 335.877 293.75 336.279 293.974C336.68 294.198 337.002 294.497 337.245 294.87C337.487 295.234 337.609 295.705 337.609 296.284C337.609 296.797 337.478 297.273 337.217 297.712C336.955 298.151 336.568 298.505 336.055 298.776C335.541 299.037 334.911 299.168 334.165 299.168ZM341.024 299.168C340.427 299.168 339.937 299.075 339.554 298.888C339.171 298.692 338.887 298.435 338.7 298.118C338.513 297.801 338.42 297.451 338.42 297.068C338.42 296.424 338.672 295.901 339.176 295.5C339.68 295.099 340.436 294.898 341.444 294.898H343.208V294.73C343.208 294.254 343.073 293.904 342.802 293.68C342.531 293.456 342.195 293.344 341.794 293.344C341.43 293.344 341.113 293.433 340.842 293.61C340.571 293.778 340.403 294.03 340.338 294.366H338.588C338.635 293.862 338.803 293.423 339.092 293.05C339.391 292.677 339.773 292.392 340.24 292.196C340.707 291.991 341.229 291.888 341.808 291.888C342.797 291.888 343.577 292.135 344.146 292.63C344.715 293.125 345 293.825 345 294.73V299H343.474L343.306 297.88C343.101 298.253 342.811 298.561 342.438 298.804C342.074 299.047 341.603 299.168 341.024 299.168ZM341.43 297.768C341.943 297.768 342.34 297.6 342.62 297.264C342.909 296.928 343.091 296.513 343.166 296.018H341.64C341.164 296.018 340.823 296.107 340.618 296.284C340.413 296.452 340.31 296.662 340.31 296.914C340.31 297.185 340.413 297.395 340.618 297.544C340.823 297.693 341.094 297.768 341.43 297.768Z" fill="#808D9E"/>
<rect x="367" y="220" width="34" height="52" rx="2" fill="#B5E4CA"/>
<path d="M380.112 299.168C379.394 299.168 378.759 299.047 378.208 298.804C377.658 298.552 377.224 298.197 376.906 297.74C376.589 297.273 376.426 296.709 376.416 296.046H378.306C378.325 296.503 378.488 296.891 378.796 297.208C379.114 297.516 379.548 297.67 380.098 297.67C380.574 297.67 380.952 297.558 381.232 297.334C381.512 297.101 381.652 296.793 381.652 296.41C381.652 296.009 381.526 295.696 381.274 295.472C381.032 295.248 380.705 295.066 380.294 294.926C379.884 294.786 379.445 294.637 378.978 294.478C378.222 294.217 377.644 293.881 377.242 293.47C376.85 293.059 376.654 292.513 376.654 291.832C376.645 291.253 376.78 290.759 377.06 290.348C377.35 289.928 377.742 289.606 378.236 289.382C378.731 289.149 379.3 289.032 379.944 289.032C380.598 289.032 381.172 289.149 381.666 289.382C382.17 289.615 382.562 289.942 382.842 290.362C383.132 290.782 383.286 291.281 383.304 291.86H381.386C381.377 291.515 381.242 291.211 380.98 290.95C380.728 290.679 380.374 290.544 379.916 290.544C379.524 290.535 379.193 290.633 378.922 290.838C378.661 291.034 378.53 291.323 378.53 291.706C378.53 292.033 378.633 292.294 378.838 292.49C379.044 292.677 379.324 292.835 379.678 292.966C380.033 293.097 380.439 293.237 380.896 293.386C381.382 293.554 381.825 293.75 382.226 293.974C382.628 294.198 382.95 294.497 383.192 294.87C383.435 295.234 383.556 295.705 383.556 296.284C383.556 296.797 383.426 297.273 383.164 297.712C382.903 298.151 382.516 298.505 382.002 298.776C381.489 299.037 380.859 299.168 380.112 299.168ZM387.182 299.168C386.314 299.168 385.642 298.897 385.166 298.356C384.699 297.815 384.466 297.021 384.466 295.976V292.056H386.244V295.808C386.244 296.405 386.365 296.863 386.608 297.18C386.851 297.497 387.233 297.656 387.756 297.656C388.251 297.656 388.657 297.479 388.974 297.124C389.301 296.769 389.464 296.275 389.464 295.64V292.056H391.256V299H389.674L389.534 297.824C389.319 298.235 389.007 298.561 388.596 298.804C388.195 299.047 387.723 299.168 387.182 299.168Z" fill="#808D9E"/>
<rect x="158" y="148" width="71" height="48" rx="8" fill="#1D1E25"/>
<path d="M168.82 166V158.632H166.336V157.6H172.564V158.632H170.092V166H168.82ZM175.185 166.144C174.465 166.144 173.897 165.92 173.481 165.472C173.073 165.024 172.869 164.356 172.869 163.468V160.048H174.141V163.336C174.141 164.488 174.613 165.064 175.557 165.064C176.029 165.064 176.417 164.896 176.721 164.56C177.025 164.224 177.177 163.744 177.177 163.12V160.048H178.449V166H177.321L177.225 164.956C177.041 165.324 176.769 165.616 176.409 165.832C176.057 166.04 175.649 166.144 175.185 166.144ZM182.731 166.144C182.147 166.144 181.627 166.016 181.171 165.76C180.723 165.496 180.371 165.132 180.115 164.668C179.859 164.204 179.731 163.664 179.731 163.048C179.731 162.424 179.855 161.876 180.103 161.404C180.359 160.932 180.711 160.564 181.159 160.3C181.615 160.036 182.143 159.904 182.743 159.904C183.327 159.904 183.835 160.036 184.267 160.3C184.699 160.556 185.035 160.9 185.275 161.332C185.515 161.764 185.635 162.24 185.635 162.76C185.635 162.84 185.631 162.928 185.623 163.024C185.623 163.112 185.619 163.212 185.611 163.324H180.979C181.019 163.9 181.207 164.34 181.543 164.644C181.887 164.94 182.283 165.088 182.731 165.088C183.091 165.088 183.391 165.008 183.631 164.848C183.879 164.68 184.063 164.456 184.183 164.176H185.455C185.295 164.736 184.975 165.204 184.495 165.58C184.023 165.956 183.435 166.144 182.731 166.144ZM182.731 160.948C182.307 160.948 181.931 161.076 181.603 161.332C181.275 161.58 181.075 161.956 181.003 162.46H184.363C184.339 161.996 184.175 161.628 183.871 161.356C183.567 161.084 183.187 160.948 182.731 160.948ZM189.211 166.144C188.459 166.144 187.839 165.96 187.351 165.592C186.863 165.224 186.583 164.736 186.511 164.128H187.795C187.859 164.4 188.011 164.636 188.251 164.836C188.491 165.028 188.807 165.124 189.199 165.124C189.583 165.124 189.863 165.044 190.039 164.884C190.215 164.724 190.303 164.54 190.303 164.332C190.303 164.028 190.179 163.824 189.931 163.72C189.691 163.608 189.355 163.508 188.923 163.42C188.587 163.348 188.251 163.252 187.915 163.132C187.587 163.012 187.311 162.844 187.087 162.628C186.871 162.404 186.763 162.104 186.763 161.728C186.763 161.208 186.963 160.776 187.363 160.432C187.763 160.08 188.323 159.904 189.043 159.904C189.707 159.904 190.243 160.064 190.651 160.384C191.067 160.704 191.311 161.156 191.383 161.74H190.159C190.119 161.484 189.999 161.284 189.799 161.14C189.607 160.996 189.347 160.924 189.019 160.924C188.699 160.924 188.451 160.992 188.275 161.128C188.099 161.256 188.011 161.424 188.011 161.632C188.011 161.84 188.131 162.004 188.371 162.124C188.619 162.244 188.943 162.352 189.343 162.448C189.743 162.536 190.111 162.64 190.447 162.76C190.791 162.872 191.067 163.04 191.275 163.264C191.483 163.488 191.587 163.816 191.587 164.248C191.595 164.792 191.383 165.244 190.951 165.604C190.527 165.964 189.947 166.144 189.211 166.144ZM195.567 166.144C194.991 166.144 194.483 166.008 194.043 165.736C193.603 165.464 193.259 165.092 193.011 164.62C192.763 164.148 192.639 163.612 192.639 163.012C192.639 162.412 192.763 161.88 193.011 161.416C193.259 160.944 193.603 160.576 194.043 160.312C194.491 160.04 195.003 159.904 195.579 159.904C196.051 159.904 196.463 159.996 196.815 160.18C197.175 160.364 197.455 160.624 197.655 160.96V157.36H198.927V166H197.787L197.655 165.076C197.463 165.356 197.199 165.604 196.863 165.82C196.527 166.036 196.095 166.144 195.567 166.144ZM195.795 165.04C196.339 165.04 196.783 164.852 197.127 164.476C197.479 164.1 197.655 163.616 197.655 163.024C197.655 162.424 197.479 161.94 197.127 161.572C196.783 161.196 196.339 161.008 195.795 161.008C195.251 161.008 194.803 161.196 194.451 161.572C194.099 161.94 193.923 162.424 193.923 163.024C193.923 163.416 194.003 163.764 194.163 164.068C194.323 164.372 194.543 164.612 194.823 164.788C195.111 164.956 195.435 165.04 195.795 165.04ZM202.427 166.144C201.923 166.144 201.507 166.06 201.179 165.892C200.851 165.724 200.607 165.504 200.447 165.232C200.287 164.952 200.207 164.648 200.207 164.32C200.207 163.744 200.431 163.288 200.879 162.952C201.327 162.616 201.967 162.448 202.799 162.448H204.359V162.34C204.359 161.876 204.231 161.528 203.975 161.296C203.727 161.064 203.403 160.948 203.003 160.948C202.651 160.948 202.343 161.036 202.079 161.212C201.823 161.38 201.667 161.632 201.611 161.968H200.339C200.379 161.536 200.523 161.168 200.771 160.864C201.027 160.552 201.347 160.316 201.731 160.156C202.123 159.988 202.551 159.904 203.015 159.904C203.847 159.904 204.491 160.124 204.947 160.564C205.403 160.996 205.631 161.588 205.631 162.34V166H204.527L204.419 164.98C204.251 165.308 204.007 165.584 203.687 165.808C203.367 166.032 202.947 166.144 202.427 166.144ZM202.679 165.112C203.023 165.112 203.311 165.032 203.543 164.872C203.783 164.704 203.967 164.484 204.095 164.212C204.231 163.94 204.315 163.64 204.347 163.312H202.931C202.427 163.312 202.067 163.4 201.851 163.576C201.643 163.752 201.539 163.972 201.539 164.236C201.539 164.508 201.639 164.724 201.839 164.884C202.047 165.036 202.327 165.112 202.679 165.112ZM207.503 168.64L208.931 165.508H208.583L206.231 160.048H207.611L209.435 164.452L211.343 160.048H212.687L208.847 168.64H207.503Z" fill="#EFEFEF"/>
<rect x="166" y="176" width="12" height="12" rx="4" fill="#2A85FF"/>
<path d="M185.828 186.144C185.212 186.144 184.68 186.036 184.232 185.82C183.792 185.604 183.444 185.308 183.188 184.932C182.94 184.548 182.796 184.116 182.756 183.636H184.256C184.328 183.98 184.504 184.268 184.784 184.5C185.064 184.724 185.412 184.836 185.828 184.836C186.276 184.836 186.64 184.672 186.92 184.344C187.208 184.016 187.352 183.608 187.352 183.12C187.352 182.616 187.208 182.216 186.92 181.92C186.64 181.624 186.284 181.476 185.852 181.476C185.492 181.476 185.18 181.564 184.916 181.74C184.652 181.916 184.464 182.136 184.352 182.4H182.876L183.596 177.6H188.252V178.944H184.748L184.364 180.888C184.54 180.696 184.78 180.54 185.084 180.42C185.388 180.292 185.728 180.228 186.104 180.228C186.704 180.228 187.204 180.364 187.604 180.636C188.004 180.9 188.308 181.252 188.516 181.692C188.724 182.124 188.828 182.596 188.828 183.108C188.828 183.692 188.7 184.212 188.444 184.668C188.196 185.124 187.844 185.484 187.388 185.748C186.94 186.012 186.42 186.144 185.828 186.144ZM193.149 186.144C192.533 186.144 192.001 186.036 191.553 185.82C191.113 185.604 190.765 185.308 190.509 184.932C190.261 184.548 190.117 184.116 190.077 183.636H191.577C191.649 183.98 191.825 184.268 192.105 184.5C192.385 184.724 192.733 184.836 193.149 184.836C193.597 184.836 193.961 184.672 194.241 184.344C194.529 184.016 194.673 183.608 194.673 183.12C194.673 182.616 194.529 182.216 194.241 181.92C193.961 181.624 193.605 181.476 193.173 181.476C192.813 181.476 192.501 181.564 192.237 181.74C191.973 181.916 191.785 182.136 191.673 182.4H190.197L190.917 177.6H195.573V178.944H192.069L191.685 180.888C191.861 180.696 192.101 180.54 192.405 180.42C192.709 180.292 193.049 180.228 193.425 180.228C194.025 180.228 194.525 180.364 194.925 180.636C195.325 180.9 195.629 181.252 195.837 181.692C196.045 182.124 196.149 182.596 196.149 183.108C196.149 183.692 196.021 184.212 195.765 184.668C195.517 185.124 195.165 185.484 194.709 185.748C194.261 186.012 193.741 186.144 193.149 186.144ZM200.903 186.144C200.127 186.144 199.463 185.964 198.911 185.604C198.359 185.236 197.931 184.728 197.627 184.08C197.331 183.424 197.183 182.664 197.183 181.8C197.183 180.944 197.331 180.188 197.627 179.532C197.931 178.876 198.359 178.368 198.911 178.008C199.463 177.64 200.127 177.456 200.903 177.456C201.679 177.456 202.343 177.64 202.895 178.008C203.447 178.368 203.871 178.876 204.167 179.532C204.471 180.188 204.623 180.944 204.623 181.8C204.623 182.664 204.471 183.424 204.167 184.08C203.871 184.728 203.447 185.236 202.895 185.604C202.343 185.964 201.679 186.144 200.903 186.144ZM200.903 184.764C201.535 184.764 202.051 184.5 202.451 183.972C202.851 183.444 203.051 182.72 203.051 181.8C203.051 180.88 202.851 180.156 202.451 179.628C202.051 179.1 201.535 178.836 200.903 178.836C200.263 178.836 199.743 179.1 199.343 179.628C198.951 180.156 198.755 180.88 198.755 181.8C198.755 182.72 198.951 183.444 199.343 183.972C199.743 184.5 200.263 184.764 200.903 184.764ZM205.822 186V177.36H207.358V182.46L209.47 180.048H211.294L208.858 182.76L211.69 186H209.77L207.358 183.012V186H205.822Z" fill="#F9FAFF"/>
</g>
<defs>
<filter id="filter0_d_19_529" x="0" y="0" width="531" height="442" filterUnits="userSpaceOnUse" color-interpolation-filters="sRGB">
<feFlood flood-opacity="0" result="BackgroundImageFix"/>
<feColorMatrix in="SourceAlpha" type="matrix" values="0 0 0 0 0 0 0 0 0 0 0 0 0 0 0 0 0 0 127 0" result="hardAlpha"/>
<feOffset dx="20" dy="40"/>
<feGaussianBlur stdDeviation="40"/>
<feColorMatrix type="matrix" values="0 0 0 0 0.176471 0 0 0 0 0.2 0 0 0 0 0.317647 0 0 0 0.12 0"/>
<feBlend mode="normal" in2="BackgroundImageFix" result="effect1_dropShadow_19_529"/>
<feBlend mode="normal" in="SourceGraphic" in2="effect1_dropShadow_19_529" result="shape"/>
</filter>
</defs>
</svg>
