<svg width="717" height="537" viewBox="0 0 717 537" fill="none" xmlns="http://www.w3.org/2000/svg">
<g clip-path="url(#clip0_12_1454)">
<path fill-rule="evenodd" clip-rule="evenodd" d="M133.765 365.25C176.113 404.853 275.014 423.335 450.007 383.463C483.706 375.766 513.282 365.205 537.929 350.974C593.317 324.348 631.318 266.665 630.377 200.614C629.212 118.856 568.805 52.447 491.235 42.602C471.92 39.8275 450.724 39.8723 427.735 43.1838C375.394 50.7465 331.702 77.1938 289.534 110.398C264.707 129.954 226.303 133.445 194.845 139.889C144.7 150.181 103.024 187.368 91.1486 238.562C80.1247 286.534 98.0497 334.372 133.765 365.25Z" stroke="#B2B2B2" stroke-width="0.945" stroke-miterlimit="10" stroke-linecap="round" stroke-linejoin="round"/>
<path fill-rule="evenodd" clip-rule="evenodd" d="M200.984 169.065C210.663 169.065 218.506 176.897 218.506 186.563C218.506 196.229 210.663 204.06 200.984 204.06C191.304 204.06 183.462 196.229 183.462 186.563C183.462 176.897 191.304 169.065 200.984 169.065Z" fill="#1053F3"/>
<path fill-rule="evenodd" clip-rule="evenodd" d="M184.583 192.872C181.177 185.533 171.184 149.823 171.049 145.885C170.736 137.875 177.054 131.117 185.165 130.804C193.276 130.491 200.133 136.711 200.446 144.721C200.715 150.763 216.31 171.124 218.147 182.938C220.791 199.943 186.42 196.766 184.583 192.872Z" fill="#1053F3"/>
<path fill-rule="evenodd" clip-rule="evenodd" d="M200.984 169.065C210.663 169.065 218.506 176.897 218.506 186.563C218.506 196.229 210.663 204.06 200.984 204.06C191.304 204.06 183.462 196.229 183.462 186.563C183.462 176.897 191.304 169.065 200.984 169.065Z" fill="#1053F3"/>
<path fill-rule="evenodd" clip-rule="evenodd" d="M233.473 194.931C222.808 224.242 191.573 202.494 189.198 199.585C182.969 189.561 187.451 191.888 186.778 185.578C186.644 184.773 186.599 183.922 186.599 183.117C186.599 174.48 193.321 167.41 201.835 166.828C205.779 166.291 214.024 165.485 219.895 167.141C220.253 167.231 220.612 167.32 220.926 167.41C231.546 170.721 237.73 183.206 233.473 194.931Z" fill="#1053F3"/>
<path fill-rule="evenodd" clip-rule="evenodd" d="M216.086 181.461C209.722 181.193 204.524 185.086 204.479 190.232C204.435 195.334 209.588 199.719 215.951 199.988C222.315 200.256 227.513 196.363 227.558 191.217C227.603 186.115 222.494 181.73 216.086 181.461Z" fill="#1053F3"/>
<path d="M204.479 190.188C204.435 195.289 209.588 199.674 215.951 199.943C222.315 200.211 227.513 196.318 227.558 191.172" stroke="#555EC2" stroke-width="0.945" stroke-miterlimit="10" stroke-linecap="round" stroke-linejoin="round"/>
<path fill-rule="evenodd" clip-rule="evenodd" d="M217.52 172.735C211.156 172.467 205.958 176.36 205.913 181.506C205.869 186.608 211.022 190.993 217.385 191.262C223.749 191.53 228.947 187.637 228.992 182.491C228.992 177.434 223.883 173.048 217.52 172.735Z" fill="black"/>
<path fill-rule="evenodd" clip-rule="evenodd" d="M227.827 182.49C227.782 187.1 223.121 190.59 217.385 190.366C211.649 190.098 207.034 186.16 207.079 181.595C207.079 181.193 207.123 180.835 207.168 180.477L206.003 159.713L221.015 153.269L227.334 179.94C227.648 180.7 227.827 181.595 227.827 182.49Z" fill="#DE7C62"/>
<path fill-rule="evenodd" clip-rule="evenodd" d="M217.609 165.441C214.473 169.021 210.215 170.811 206.63 170.363L206.048 159.668L220.881 153.269C222.046 156.849 220.926 161.637 217.609 165.441Z" fill="black"/>
<path fill-rule="evenodd" clip-rule="evenodd" d="M212.232 149.286C212.232 149.286 199.864 159.758 208.199 162.935C214.159 165.217 225.855 156.67 226.796 146.556C227.513 138.054 212.232 149.286 212.232 149.286Z" fill="#DE7C62"/>
<path fill-rule="evenodd" clip-rule="evenodd" d="M218.864 156.714C212.277 160.921 207.93 160.697 205.286 159.489C205.286 158.146 205.913 156.67 206.855 155.238C214.697 153.448 228.14 150.807 218.864 156.714Z" fill="black"/>
<path fill-rule="evenodd" clip-rule="evenodd" d="M214.293 117.782L228.32 117.558C229.037 117.558 229.44 118.095 229.216 118.722L218.237 155.596C218.058 156.267 217.296 156.804 216.624 156.804L202.597 157.028C201.88 157.028 201.477 156.491 201.701 155.864L212.725 119.035C212.859 118.364 213.621 117.782 214.293 117.782Z" fill="black"/>
<path fill-rule="evenodd" clip-rule="evenodd" d="M208.871 153.627C203.807 154.298 203.583 149.868 205.779 149.241C202.463 148.883 202.06 145.437 206.541 143.782C212.725 141.499 220.209 141.276 220.209 141.276L219.671 139.709C219.671 139.709 216.982 140.783 215.279 141.365C211.381 142.618 209.274 138.456 216.22 134.474C220.164 132.236 223.256 131.431 225.228 134.921C227.289 138.591 230.291 145.795 222.763 155.059C220.836 161.368 212.098 158.37 210.484 157.296C208.199 155.775 208.333 154.656 208.871 153.627Z" fill="#DE7C62"/>
<path fill-rule="evenodd" clip-rule="evenodd" d="M225.945 129.775C225.945 129.775 226.841 132.236 227.11 134.116C227.961 139.933 227.379 144.901 227.334 145.617L223.838 136.711L225.945 129.775Z" fill="#DE7C62"/>
<path d="M205.107 149.331C205.107 149.331 217.251 145.795 224.824 148.122" stroke="black" stroke-width="0.945" stroke-miterlimit="10" stroke-linecap="round" stroke-linejoin="round"/>
<path d="M208.916 153.806C212.366 153.492 218.685 153.179 222.494 154.924" stroke="black" stroke-width="0.945" stroke-miterlimit="10" stroke-linecap="round" stroke-linejoin="round"/>
<path d="M215.503 141.41C215.369 141.41 223.838 140.426 226.438 143.021" stroke="black" stroke-width="0.945" stroke-miterlimit="10" stroke-linecap="round" stroke-linejoin="round"/>
<path d="M215.772 141.32L222.673 138.635" stroke="black" stroke-width="0.945" stroke-miterlimit="10" stroke-linecap="round" stroke-linejoin="round"/>
<path fill-rule="evenodd" clip-rule="evenodd" d="M195.203 156.446C195.472 156.804 195.741 157.162 196.01 157.475C198.116 160.294 198.923 163.874 198.116 167.275C197.354 170.363 195.696 174.391 192.066 179.045C194.755 186.07 197.668 199.63 189.512 205.134C186.375 207.237 150.884 209.609 138.919 206.969C131.794 205.402 131.345 200.122 135.02 192.291C136.992 188.129 129.956 164.232 126.864 154.208C122.876 152.105 120.187 147.899 120.187 143.066C120.187 136.085 125.833 130.446 132.824 130.446C133.362 130.446 133.855 130.491 134.348 130.536C158.188 130.536 176.068 131.117 185.165 130.759C193.276 130.446 200.133 136.666 200.446 144.677C200.626 149.42 198.564 153.671 195.203 156.446Z" fill="#1053F3"/>
<path d="M176.023 151.3C177.099 154.343 177.906 157.162 178.13 159.131C178.802 165.172 177.682 177.568 175.172 200.972" stroke="#555EC2" stroke-width="0.945" stroke-miterlimit="10" stroke-linecap="round" stroke-linejoin="round"/>
<path d="M189.512 205.179C197.623 199.674 194.71 186.115 192.066 179.089C195.651 174.391 197.354 170.363 198.116 167.32C198.967 163.919 198.116 160.339 196.01 157.52C194.038 154.88 190.677 150.405 185.389 143.468" stroke="#555EC2" stroke-width="0.945" stroke-miterlimit="10" stroke-linecap="round" stroke-linejoin="round"/>
<path fill-rule="evenodd" clip-rule="evenodd" d="M143.445 149.957C137.664 162.04 131.838 170.318 131.301 189.024C130.987 200.39 137.081 203.12 132.69 215.426C127.76 229.254 93.0307 229.075 94.3303 208.132C95.7194 185.712 116.781 146.288 121.352 138.054C123.324 133.668 127.76 130.58 132.869 130.58C139.86 130.58 145.506 136.219 145.506 143.2C145.461 145.661 144.7 147.988 143.445 149.957Z" fill="#1053F3"/>
<path d="M139.725 157.878C132.555 172.287 131.256 178.06 131.032 188.263" stroke="#555EC2" stroke-width="0.945" stroke-miterlimit="10" stroke-linecap="round" stroke-linejoin="round"/>
<path fill-rule="evenodd" clip-rule="evenodd" d="M99.3941 231.134C99.3941 231.134 99.4389 231.536 99.4389 231.76C99.4389 233.416 105.22 234.758 112.345 234.758C119.47 234.758 125.251 233.416 125.251 231.76C125.251 231.626 127.536 218.246 127.536 218.246H127.492C127.492 218.201 127.492 218.201 127.492 218.156C127.492 216.5 121.711 215.158 114.586 215.158C107.46 215.158 101.68 216.5 101.68 218.156C101.68 218.246 101.724 218.335 101.724 218.425L99.3941 231.134Z" fill="#1053F3"/>
<path d="M127.492 218.29H127.447C127.447 218.246 127.447 218.246 127.447 218.201C127.447 216.545 121.666 215.203 114.541 215.203C107.416 215.203 101.635 216.545 101.635 218.201C101.635 218.29 101.68 218.38 101.68 218.469" stroke="#555EC2" stroke-width="0.945" stroke-miterlimit="10" stroke-linecap="round" stroke-linejoin="round"/>
<path fill-rule="evenodd" clip-rule="evenodd" d="M112.3 229.388C118.753 229.388 124.041 230.641 124.041 232.163C124.041 233.684 118.798 234.937 112.3 234.937C105.847 234.937 100.559 233.684 100.559 232.163C100.559 230.641 105.802 229.388 112.3 229.388Z" fill="black"/>
<path fill-rule="evenodd" clip-rule="evenodd" d="M108.312 269.708C105.354 271.856 97.4671 275.347 92.6722 278.39L91.0589 279.643C90.1627 280.359 88.9079 280.269 88.2805 279.419C87.698 278.658 87.8324 277.495 88.5942 276.779C88.5942 276.779 93.2547 273.154 96.4812 267.56L85.054 267.471L84.6955 267.605C84.6059 267.65 84.5163 267.694 84.3819 267.739C84.2026 267.829 83.9785 267.963 83.7993 268.052C83.4408 268.276 83.0823 268.589 82.7686 268.903C82.4549 269.216 82.186 269.619 81.962 270.021L81.8724 270.2L81.7379 270.424L81.5139 270.916L81.0209 271.856L75.5986 284.073C75.016 285.192 73.6717 285.729 72.5514 285.281C71.5207 284.834 71.1174 283.67 71.5207 282.596L76.0915 270.066L76.45 269.082L76.6293 268.589L76.7189 268.321L76.8534 268.008C77.2119 267.113 77.7048 266.307 78.2874 265.502C78.8699 264.741 79.5421 264.025 80.3039 263.354C80.7072 263.04 81.0657 262.727 81.5139 262.459C81.7379 262.324 81.9172 262.19 82.1412 262.056L82.7238 261.743L104.144 250.242C104.189 250.197 104.189 250.152 104.189 250.152C103.83 250.152 110.373 247.646 110.508 247.512C122.741 259.237 108.312 269.663 108.312 269.708Z" fill="#DE7C62"/>
<path fill-rule="evenodd" clip-rule="evenodd" d="M121.666 232.566L115.258 260.311H98.9012L102.352 232.61V232.566C102.352 231.313 106.654 230.328 111.986 230.328C117.364 230.328 121.666 231.313 121.666 232.566Z" fill="#DE7C62"/>
<path d="M67.0394 277.808L74.8816 267.023L75.509 266.173L75.8227 265.77L76.0019 265.546L76.226 265.278C76.8085 264.517 77.5255 263.846 78.2873 263.264C79.0492 262.682 79.9006 262.19 80.8417 261.787C81.2898 261.608 81.7379 261.429 82.2308 261.25C82.4549 261.161 82.7238 261.116 82.9478 261.071L83.62 260.937L108.177 255.522C112.39 254.583 113.376 264.025 105.175 268.724L84.2474 266.978L83.8441 267.023C83.7545 267.023 83.62 267.068 83.5304 267.068C83.3063 267.113 83.0823 267.157 82.903 267.202C82.4997 267.336 82.0516 267.515 81.6483 267.739C81.245 267.963 80.8865 268.231 80.5728 268.589L80.4383 268.724L80.2591 268.903L79.9006 269.305L79.1836 270.066L70.6244 280.359C69.773 281.298 68.2942 281.433 67.3979 280.672C66.4568 279.956 66.3672 278.703 67.0394 277.808Z" fill="#DE7C62"/>
<path d="M97.8258 267.65C92.045 267.605 84.9646 267.515 84.9646 267.515L84.6061 267.65C84.5165 267.694 84.4268 267.739 84.2924 267.784C84.1131 267.873 83.8891 268.008 83.7098 268.097C83.3513 268.321 82.9928 268.634 82.6791 268.947C82.3655 269.261 82.0966 269.663 81.8725 270.066L81.7829 270.245L81.6485 270.469L81.4244 270.961L80.9315 271.901L75.5091 284.118C74.9266 285.236 73.5822 285.773 72.4619 285.326C71.4312 284.878 71.0279 283.715 71.4312 282.641L76.0021 270.111L76.3606 269.126L76.5398 268.634L76.6295 268.366L76.7639 268.052C77.1224 267.157 77.6153 266.352 78.1979 265.546C78.7805 264.786 79.4526 264.07 80.2145 263.398C80.6178 263.085 80.9763 262.772 81.4244 262.503C81.6485 262.369 81.8277 262.235 82.0518 262.101L82.6343 261.787" stroke="black" stroke-width="0.945" stroke-miterlimit="10" stroke-linecap="round" stroke-linejoin="round"/>
<path fill-rule="evenodd" clip-rule="evenodd" d="M161.818 123.868C170.063 124.897 176.651 127.493 176.472 129.73C176.337 131.968 169.526 132.952 161.235 131.968C152.99 130.938 146.402 128.343 146.582 126.105C146.716 123.823 153.572 122.839 161.818 123.868Z" fill="black"/>
<path d="M152.273 96.1677C151.197 96.8837 150.884 98.3157 151.511 99.3002C152.138 100.285 153.572 100.508 154.603 99.7925" stroke="black" stroke-width="0.945" stroke-miterlimit="10" stroke-linecap="round" stroke-linejoin="round"/>
<path fill-rule="evenodd" clip-rule="evenodd" d="M180.415 100.329C183.552 89.9922 169.302 97.4654 163.745 101.896C158.188 106.326 159.129 116.753 165.851 125.21C172.573 133.668 192.111 141.097 193.814 134.205C198.295 115.544 176.113 114.291 180.415 100.329Z" fill="#FFB750"/>
<path fill-rule="evenodd" clip-rule="evenodd" d="M176.158 112.278L174.32 128.701C174.365 128.835 174.365 128.925 174.365 129.059C174.231 130.938 168.54 131.699 161.594 130.759C154.693 129.82 149.181 127.537 149.315 125.658C149.315 125.479 149.405 125.3 149.539 125.121L156.754 101.224L176.158 112.278Z" fill="#DE7C62"/>
<path fill-rule="evenodd" clip-rule="evenodd" d="M175.127 122.839C160.429 118.229 160.025 104.044 160.025 104.044L176.158 112.009L175.127 122.839Z" fill="black"/>
<path fill-rule="evenodd" clip-rule="evenodd" d="M155.903 102.925C123.906 111.562 154.424 70.7049 164.551 69.8099C164.551 69.8099 179.653 69.9889 183.731 79.1179C184.627 82.3847 184.448 84.3089 185.613 89.4552C187.451 97.2417 186.375 111.338 177.144 114.247C171.766 115.902 161.997 114.828 155.903 102.925Z" fill="#DE7C62"/>
<path d="M169.346 100.508C169.346 100.508 173.29 105.789 178.757 103.372" stroke="#BD4040" stroke-width="0.945" stroke-miterlimit="10" stroke-linecap="round" stroke-linejoin="round"/>
<path fill-rule="evenodd" clip-rule="evenodd" d="M170.87 102.03C170.87 102.03 172.08 100.374 174.545 100.732C176.068 100.956 176.427 101.94 176.427 101.94C176.427 101.94 178.847 100.553 179.16 103.372C177.592 104.939 172.483 104.044 170.87 102.03Z" fill="#BD4040"/>
<path d="M177.502 84.8907C177.502 84.8907 180.236 82.7427 184.359 84.5327" stroke="black" stroke-width="0.945" stroke-miterlimit="10" stroke-linecap="round" stroke-linejoin="round"/>
<path d="M180.415 88.426L182.566 87.0835" stroke="black" stroke-width="0.945" stroke-miterlimit="10" stroke-linecap="round" stroke-linejoin="round"/>
<path d="M167.195 88.6496L169.615 87.5309" stroke="black" stroke-width="0.945" stroke-miterlimit="10" stroke-linecap="round" stroke-linejoin="round"/>
<path d="M163.386 86.4122C164.686 85.3382 168.45 83.0112 172.752 85.025" stroke="black" stroke-width="0.945" stroke-miterlimit="10" stroke-linecap="round" stroke-linejoin="round"/>
<path d="M176.158 87.71C176.158 87.71 175.486 90.9767 178.399 93.438C181.267 95.8545 180.146 99.6582 176.158 99.1212" stroke="black" stroke-width="0.945" stroke-miterlimit="10" stroke-linecap="round" stroke-linejoin="round"/>
<path d="M155.365 97.555L150.301 94.9595" stroke="black" stroke-width="0.945" stroke-miterlimit="10" stroke-linecap="round" stroke-linejoin="round"/>
<path fill-rule="evenodd" clip-rule="evenodd" d="M167.016 88.5154C167.688 88.3812 168.316 89.2314 168.45 90.3502C168.54 91.4689 168.092 92.4982 167.419 92.5877C166.747 92.7219 166.12 91.8717 165.985 90.7529C165.896 89.6342 166.344 88.6497 167.016 88.5154Z" fill="black"/>
<path fill-rule="evenodd" clip-rule="evenodd" d="M180.684 87.889C181.356 87.7547 181.983 88.605 182.118 89.7237C182.208 90.8425 181.759 91.8717 181.087 91.9612C180.415 92.0955 179.788 91.2452 179.653 90.1265C179.519 89.0525 180.012 88.0232 180.684 87.889Z" fill="black"/>
<path fill-rule="evenodd" clip-rule="evenodd" d="M129.239 131.028C129.239 131.028 136.409 131.028 142.145 131.028C151.87 135.727 152.004 149.957 145.999 153.627H170.287C174.724 146.377 174.814 140.604 172.797 136.085C178.533 141.589 178.892 147.317 171.453 153.537C205.779 143.468 174.321 127.537 155.499 122.928C153.035 122.078 151.332 121.675 151.332 121.675C151.332 121.675 162.087 113.128 155.768 102.298C153.438 103.82 150.301 102.209 149.405 101.09C147.299 98.4947 147.388 94.4224 149.808 92.8562C152.228 91.2899 155.051 92.6772 156.709 94.3329C156.665 94.2882 156.665 94.2882 156.709 94.3329C156.799 94.4224 156.978 94.6014 157.023 94.6909C155.006 86.2779 170.87 81.4897 168.585 73.4347C168.585 73.4347 177.906 72.2264 183.552 78.8047C183.597 75.8512 180.774 68.6912 168.853 66.4537C154.962 63.8582 141.921 71.5552 142.549 85.8304C142.459 86.8597 142.773 88.1127 141.876 89.9027C139.322 95.1832 102.979 118.453 129.239 131.028ZM171.318 153.627C171.363 153.582 171.363 153.582 171.408 153.537C171.363 153.582 171.318 153.582 171.273 153.627H171.318Z" fill="#FFB750"/>
<path fill-rule="evenodd" clip-rule="evenodd" d="M147.478 475.961C156.889 477.08 168.405 474.977 171.005 473.589C172.573 472.784 174.903 471.934 175.351 467.861C175.486 466.743 177.771 464.953 178.802 464.237C180.55 463.028 177.771 447.634 173.917 443.741C170.915 443.204 163.252 456.629 158.278 459.806C145.82 462.805 143.714 466.966 143.714 466.966C142.19 469.428 142.056 475.335 147.478 475.961Z" fill="black"/>
<path fill-rule="evenodd" clip-rule="evenodd" d="M147.478 473.186C156.889 474.305 168.405 472.202 171.005 470.815C172.573 470.009 174.903 469.159 175.351 465.087C175.486 463.968 177.771 462.178 178.802 461.462C180.55 460.254 177.771 444.86 173.917 440.966C170.915 440.429 163.252 453.854 158.278 457.032C145.82 460.03 143.714 464.192 143.714 464.192C142.19 466.653 142.056 472.56 147.478 473.186Z" fill="#1053F3"/>
<path fill-rule="evenodd" clip-rule="evenodd" d="M237.865 476.409C226.93 476.588 223.435 475.156 219.133 473.142C214.383 470.949 217.251 466.071 212.815 465.176C208.288 464.281 207.796 462.76 207.796 462.76C206.72 457.927 209.364 458.509 212.232 455.108C237.327 471.173 238.985 458.867 240.285 462.805C240.285 462.805 253.191 464.058 258.254 470.278C259.106 471.307 258.658 472.56 258.344 473.679C259.688 473.545 253.011 476.14 237.865 476.409Z" fill="black"/>
<path fill-rule="evenodd" clip-rule="evenodd" d="M237.865 473.41C226.931 473.589 223.435 472.157 219.133 470.144C214.383 467.951 217.251 463.073 212.815 462.178C208.289 461.283 207.796 459.762 207.796 459.762C206.72 454.929 208.109 447.992 211.022 444.636C236.117 460.701 239.03 455.913 240.285 459.851C240.285 459.851 255.252 461.283 258.389 470.681C259.689 470.591 253.011 473.142 237.865 473.41Z" fill="#1053F3"/>
<path fill-rule="evenodd" clip-rule="evenodd" d="M166.344 311.505C165.627 326.854 169.078 324.527 171.005 344.575C172.842 363.773 174.5 410.537 174.679 436.76C174.321 438.684 175.127 442.533 175.127 442.533C175.127 442.533 172.304 446.157 172.17 448.082C171.229 461.551 169.705 463.61 147.209 461.686C151.108 457.166 158.412 442.041 156.665 432.688C148.598 360.551 145.327 349.855 145.417 329.047C145.506 304.613 134.572 277.137 130.718 256.104C126.416 232.879 145.551 208.267 144.744 214.218C154.11 213.144 144.924 235.743 151.959 236.146C152.766 236.235 167.778 235.251 167.778 235.251C167.778 235.251 169.122 251.271 166.344 311.505Z" fill="#DE7C62"/>
<path fill-rule="evenodd" clip-rule="evenodd" d="M224.197 458.553C217.072 446.963 213.218 446.739 210.529 446.068C205.734 418.905 198.295 374.2 194.621 356.031C190.632 336.296 195.651 333.388 190.408 318.486C169.884 259.998 168.361 242.858 168.361 242.858C168.361 242.858 179.653 232.969 180.415 232.834C187.316 231.805 181.401 219.096 191.08 219.365C189.109 214.89 204.793 229.836 208.647 261.743C216.758 328.778 230.784 438.371 230.784 438.371C230.784 438.371 234.369 446.784 239.568 452.646C242.48 455.913 245.214 459.896 247.589 461.82C233.697 465.445 226.662 462.491 224.197 458.553Z" fill="#DE7C62"/>
<path fill-rule="evenodd" clip-rule="evenodd" d="M174.231 413.58C165.851 413.893 158.323 410.85 153.886 408.568C153.438 404.764 152.99 401.229 152.587 397.872C159.174 395.545 171.542 397.514 171.542 397.514C171.542 397.514 172.528 398.499 173.828 399.976C174.007 404.585 174.141 409.149 174.231 413.58Z" fill="black"/>
<path fill-rule="evenodd" clip-rule="evenodd" d="M229.53 403.377C229.395 404.63 221.777 405.659 212.322 405.659C202.821 405.659 195.114 404.63 195.114 403.332H195.069L170.332 260.893L177.726 403.466H177.502C177.054 404.674 169.526 405.659 160.339 405.659C150.839 405.659 143.131 404.63 143.131 403.332C142.235 395.68 138.247 354.644 137.037 344.396C132.6 307.388 126.909 260.132 126.909 260.132C126.909 260.132 125.923 249.884 127.402 241.382C127.985 238.07 128.746 235.072 129.598 232.342C130.808 226.077 135.379 218.783 138.65 214.442V201.554V201.509C138.65 199.272 150.032 198.243 164.103 199.138C178.175 200.077 189.557 202.628 189.557 204.821C189.557 204.955 189.512 205.045 189.467 205.179L190.408 216.411C206.899 224.958 210.843 248.586 210.888 248.631L229.664 403.332L229.53 403.377Z" fill="#555EC2"/>
<path d="M176.516 254.717L203.359 400.468" stroke="#3E48B3" stroke-width="0.945" stroke-miterlimit="10" stroke-linecap="round" stroke-linejoin="round"/>
<path d="M186.823 215.606C186.823 215.606 192.425 231.179 206.989 237.22" stroke="#3E48B3" stroke-width="0.945" stroke-miterlimit="10" stroke-linecap="round" stroke-linejoin="round"/>
<path d="M169.526 200.212V211.981L170.691 252.882C170.691 252.882 182.432 247.781 178.757 230.194C175.62 215.292 176.427 213.144 176.427 213.144" stroke="#3E48B3" stroke-width="0.945" stroke-miterlimit="10" stroke-linecap="round" stroke-linejoin="round"/>
<path d="M154.513 211.399C154.513 211.399 154.513 232.253 134.169 238.831" stroke="#3E48B3" stroke-width="0.945" stroke-miterlimit="10" stroke-linecap="round" stroke-linejoin="round"/>
<path d="M145.596 199.406V211.533C142.325 215.874 137.709 223.168 136.544 229.433C135.692 232.118 134.93 235.161 134.348 238.473C132.914 246.975 133.855 257.223 133.855 257.223C133.855 257.223 139.546 304.479 143.983 341.487C145.372 353.212 149.584 397.38 150.525 405.256" stroke="#3E48B3" stroke-width="0.945" stroke-miterlimit="10" stroke-linecap="round" stroke-linejoin="round"/>
<path d="M138.426 214.174V214.129C138.426 211.846 150.122 210.773 164.551 211.712C178.981 212.652 190.677 215.292 190.677 217.575" stroke="#3E48B3" stroke-width="0.945" stroke-miterlimit="10" stroke-linecap="round" stroke-linejoin="round"/>
<path fill-rule="evenodd" clip-rule="evenodd" d="M170.556 253.33L177.861 253.061C177.861 253.061 178.399 256.731 176.83 261.832C175.441 266.352 172.035 270.514 172.035 270.514L170.377 260.893L170.556 253.33Z" fill="black"/>
<path fill-rule="evenodd" clip-rule="evenodd" d="M616.575 430.629H593.497L597.44 451.527H620.518L616.575 430.629Z" fill="#D8D1D1"/>
<path fill-rule="evenodd" clip-rule="evenodd" d="M516.419 418.77L539.139 418.726L538.512 447.992L513.686 446.694L516.419 418.77Z" fill="#D8D1D1"/>
<path fill-rule="evenodd" clip-rule="evenodd" d="M543.396 466.742C543.396 466.742 537.75 467.682 532.552 467.995C528.115 468.264 528.205 473.679 520.766 476.498C515.254 478.556 506.605 478.601 495.985 477.124C485.947 475.737 482.272 473.723 481.6 472.918H481.51V472.784C481.465 472.694 481.465 472.605 481.51 472.56L481.376 467.727H484.692C485.723 467.19 487.112 466.877 488.994 466.921C497.284 466.116 511.803 449.648 513.954 439.624C516.15 438.058 520.766 440.698 524.978 442.801C529.504 449.245 534.434 445.352 534.434 445.352C534.434 445.352 536.316 442.935 538.691 440.877C543.531 447.5 544.606 464.818 543.396 466.742Z" fill="black"/>
<path fill-rule="evenodd" clip-rule="evenodd" d="M638.309 471.307L638.22 475.469H638.13C638.13 475.514 638.13 475.558 638.13 475.558C634.814 476.901 631.677 478.109 619.129 478.601C608.733 479.049 602.056 477.483 598.292 475.066C594.124 472.426 597.53 466.743 593.317 466.027C590.763 465.579 590.181 463.834 590.181 463.834C590.763 455.421 591.659 445.352 594.931 441.459C594.931 444.278 597.126 446.605 597.126 446.605C597.126 446.605 598.202 447.634 602.056 441.056C607.03 438.908 612.542 438.55 617.74 441.146C621.684 456.003 628.002 463.968 633.245 469.383C634.545 469.383 635.531 470.188 636.293 471.262H638.309V471.307Z" fill="black"/>
<path fill-rule="evenodd" clip-rule="evenodd" d="M543.262 462.223C543.262 462.223 537.615 463.162 532.417 463.476C527.981 463.744 528.07 469.159 520.631 471.978C515.12 474.037 506.471 474.081 495.85 472.605C482.989 470.815 480.569 468.04 481.555 467.995C481.555 467.995 481.465 462.223 488.904 462.402C497.195 461.596 511.848 445.62 513.999 435.596C516.195 434.03 523.679 436.223 524.889 438.281C529.415 444.725 533.672 442.935 533.672 442.935C533.672 442.935 538.243 441.861 538.736 436.402C543.62 443.025 544.472 460.298 543.262 462.223Z" fill="#555EC2"/>
<path fill-rule="evenodd" clip-rule="evenodd" d="M590.315 459.672C590.315 459.672 590.853 461.417 593.452 461.865C597.664 462.581 594.258 468.264 598.426 470.904C602.19 473.321 608.867 474.887 619.264 474.439C631.811 473.902 634.948 472.739 638.264 471.396C638.264 471.396 636.92 465.266 633.38 465.266C628.181 459.851 621.818 451.885 617.875 437.028C614.514 434.522 607.164 434.746 602.19 436.939C598.381 443.517 597.216 442.13 597.216 442.13C597.216 442.13 595.02 440.295 594.751 437.476C592.197 442.801 590.942 451.259 590.315 459.672Z" fill="#555EC2"/>
<path fill-rule="evenodd" clip-rule="evenodd" d="M617.471 433.046C617.471 433.135 617.471 433.09 617.471 433.18C617.382 434.343 609.988 435.283 601.07 435.283C592.6 435.283 585.744 434.433 585.206 433.359H585.161C585.161 433.359 572.704 417.383 571.001 386.192C567.236 316.785 539.587 246.125 539.587 246.125C539.587 246.125 536.898 228.225 583.369 239.054L617.471 432.911V433.046Z" fill="#1053F3"/>
<path fill-rule="evenodd" clip-rule="evenodd" d="M545.009 229.746C523.634 229.746 506.381 233.505 506.516 238.159C506.65 242.813 524.082 246.572 545.458 246.572C566.833 246.572 584.086 242.813 583.952 238.159C583.862 233.505 566.43 229.746 545.009 229.746Z" fill="#1053F3"/>
<path fill-rule="evenodd" clip-rule="evenodd" d="M582.831 210.996C582.831 210.996 571.807 203.97 554.241 203.702C519.108 203.21 504.096 210.817 504.096 210.817L504.857 238.07L583.414 231.357L582.831 210.996Z" fill="#1053F3"/>
<path fill-rule="evenodd" clip-rule="evenodd" d="M544.337 382.881C548.953 415.683 542.5 433.225 542.186 434.03C541.917 434.97 535.33 435.686 527.129 435.686C519.063 435.686 512.431 434.97 511.983 434.03H511.938L504.454 229.925C504.454 229.925 514.806 227.688 524.172 229.925C535.061 232.521 544.472 244.648 544.472 244.648C544.472 244.648 536.809 329.449 544.337 382.881Z" fill="#1053F3"/>
<path d="M514.448 218.111C514.448 218.111 513.955 232.118 505.306 241.918" stroke="#555EC2" stroke-width="0.945" stroke-miterlimit="10" stroke-linecap="round" stroke-linejoin="round"/>
<path d="M558.857 215.919C558.857 215.919 559.125 235.743 577.319 242.276" stroke="#555EC2" stroke-width="0.945" stroke-miterlimit="10" stroke-linecap="round" stroke-linejoin="round"/>
<path d="M617.382 432.374L575.751 231.492C575.975 227.688 576.782 218.335 576.782 218.335" stroke="#555EC2" stroke-width="0.945" stroke-miterlimit="10" stroke-linecap="round" stroke-linejoin="round"/>
<path d="M535.106 247.825C535.106 247.825 531.969 329.315 537.122 388.34C539.453 414.743 535.151 434.97 535.151 434.97" stroke="#555EC2" stroke-width="0.945" stroke-miterlimit="10" stroke-linecap="round" stroke-linejoin="round"/>
<path fill-rule="evenodd" clip-rule="evenodd" d="M543.262 261.609L543.575 256.999L540.439 246.573L528.16 244.29C528.115 244.29 530.58 258.208 543.262 261.609Z" fill="black"/>
<path fill-rule="evenodd" clip-rule="evenodd" d="M502.662 160.921C502.572 196.094 492.893 212.562 503.782 222.452C503.603 228.628 503.334 238.159 503.334 238.159C503.334 238.159 503.334 238.875 503.827 239.457C504.409 240.084 504.902 240.352 504.902 240.352C504.902 240.352 504.589 237.757 504.858 237.712C507.681 237.085 516.285 236.056 543.307 236.504C563.741 236.817 575.527 238.786 583.459 239.681C583.817 241.426 583.907 241.963 583.907 241.963C583.907 241.963 587.357 241.292 587.537 239.994C587.537 239.994 587.716 228.314 587.671 224.913C596.365 219.499 596.813 204.373 587.492 163.293C594.303 159.713 599.009 152.374 599.009 143.961C599.009 132.191 589.957 122.66 578.664 122.257H578.126C578.081 122.257 578.036 122.257 577.947 122.257C577.902 122.257 577.812 122.257 577.768 122.257L512.834 122.391C502.482 123.734 494.595 133.042 494.595 144.05C494.595 150.673 498.001 156.938 502.662 160.921Z" fill="#783140"/>
<path d="M503.603 222.363C514.448 220.17 559.081 216.769 587.626 224.824" stroke="#571F2B" stroke-width="0.945" stroke-miterlimit="10" stroke-linecap="round" stroke-linejoin="round"/>
<path d="M526.502 134.429L539.856 146.243L556.078 133.981" stroke="#571F2B" stroke-width="0.945" stroke-miterlimit="10" stroke-linecap="round" stroke-linejoin="round"/>
<path fill-rule="evenodd" clip-rule="evenodd" d="M531.342 154.701C524.485 165.217 506.829 183.922 492.176 192.156C489.039 196.676 483.841 199.63 477.925 199.63C468.38 199.63 460.628 191.888 460.628 182.401C460.628 175.644 464.526 169.826 470.173 167.007C470.307 166.917 470.397 166.873 470.531 166.783C485.992 159.623 494.147 140.604 495.581 136.98C498.091 128.656 505.799 122.615 514.94 122.615C526.099 122.615 535.196 131.654 535.196 142.797C535.196 147.272 533.762 151.344 531.342 154.701Z" fill="#783140"/>
<path d="M496.254 185.175L507.546 143.424" stroke="#571F2B" stroke-width="0.945" stroke-miterlimit="10" stroke-linecap="round" stroke-linejoin="round"/>
<path fill-rule="evenodd" clip-rule="evenodd" d="M637.727 188.353C637.727 198.824 629.212 207.282 618.771 207.282C612.632 207.282 607.164 204.373 603.669 199.809L575.84 165.441C565.22 164.322 556.93 155.103 556.93 143.826C556.93 131.833 566.34 122.123 577.992 122.123C584.758 122.123 590.718 125.389 594.572 130.491L594.662 130.401L633.604 176.36L633.559 176.404C636.113 179.716 637.727 183.833 637.727 188.353Z" fill="#783140"/>
<path d="M570.015 157.833L597.754 195.02" stroke="#571F2B" stroke-width="0.945" stroke-miterlimit="10" stroke-linecap="round" stroke-linejoin="round"/>
<path fill-rule="evenodd" clip-rule="evenodd" d="M637.727 188.353C637.727 198.824 629.212 207.282 618.771 207.282C617.068 207.282 615.41 207.058 613.842 206.611L582.876 201.509L586.103 173.138C586.103 173.138 592.466 173.809 596.723 174.301C602.773 161.458 622.49 168.931 624.641 170.274C632.17 172.735 637.727 179.895 637.727 188.353Z" fill="#783140"/>
<path fill-rule="evenodd" clip-rule="evenodd" d="M587.806 173.854C584.4 171.616 580.187 175.778 578.44 183.206C576.692 190.59 578.036 198.645 581.442 200.883C584.848 203.12 589.06 198.735 590.808 191.351C592.6 183.922 591.211 176.091 587.806 173.854Z" fill="black"/>
<path fill-rule="evenodd" clip-rule="evenodd" d="M587.133 175.107C584.086 173.093 580.322 176.852 578.753 183.475C577.185 190.098 578.395 197.303 581.442 199.316C584.489 201.33 588.254 197.392 589.822 190.769C591.435 184.101 590.225 177.076 587.133 175.107Z" fill="#657DEA"/>
<path fill-rule="evenodd" clip-rule="evenodd" d="M577.768 173.854L585.699 174.659L583.145 200.032L574.317 199.182L577.768 173.854Z" fill="#657DEA"/>
<path fill-rule="evenodd" clip-rule="evenodd" d="M578.843 174.212C575.796 172.198 572.032 175.957 570.463 182.58C568.895 189.203 570.105 196.408 573.152 198.421C576.199 200.435 579.963 196.497 581.532 189.874C583.1 183.206 581.89 176.181 578.843 174.212Z" fill="black"/>
<path fill-rule="evenodd" clip-rule="evenodd" d="M577.902 175.062C575.348 173.361 572.166 176.539 570.866 182.088C569.567 187.681 570.553 193.723 573.107 195.378C575.661 197.079 578.843 193.767 580.143 188.174C581.487 182.625 580.456 176.718 577.902 175.062Z" fill="#E99670"/>
<path fill-rule="evenodd" clip-rule="evenodd" d="M550.611 171.84L555.227 181.416L550.611 171.84Z" fill="#E99670"/>
<path fill-rule="evenodd" clip-rule="evenodd" d="M558.453 190.769C552.941 187.726 551.104 182.714 546.802 178.597L545.144 177.299C544.203 176.583 543.979 175.286 544.606 174.346C545.234 173.496 546.399 173.317 547.295 173.854C547.295 173.854 551.956 177.165 558.319 178.776C568.536 176.897 579.56 199.988 558.453 190.769Z" fill="#E99670"/>
<path d="M540.08 156.133L552.538 159.936L553.524 160.25L554.017 160.429L554.241 160.518L554.555 160.652C555.451 160.966 556.257 161.413 557.064 161.95C557.871 162.487 558.588 163.114 559.26 163.83C559.574 164.188 559.887 164.546 560.201 164.948C560.335 165.127 560.47 165.351 560.604 165.53L560.963 166.112L573.69 187.055C575.885 190.68 567.461 194.528 560.515 188.442L555.54 168.573L555.361 168.215C555.316 168.126 555.272 168.036 555.227 167.947C555.137 167.768 555.003 167.589 554.868 167.41C554.599 167.052 554.331 166.738 553.972 166.425C553.614 166.157 553.255 165.888 552.852 165.664L552.673 165.575L552.448 165.485L551.955 165.262L551.014 164.859L538.781 160.205C537.66 159.713 537.033 158.415 537.436 157.296C537.884 156.267 539.005 155.775 540.08 156.133Z" fill="#E99670"/>
<path fill-rule="evenodd" clip-rule="evenodd" d="M559.798 180.924L556.123 170.721L555.854 170.453C555.765 170.363 555.72 170.318 555.63 170.229C555.496 170.095 555.316 169.96 555.137 169.826C554.779 169.558 554.42 169.334 554.017 169.2C553.614 169.021 553.21 168.886 552.762 168.842L552.583 168.797L552.314 168.752L551.821 168.707L550.835 168.573L538.288 166.738C537.078 166.604 536.181 165.575 536.226 164.411C536.271 163.382 537.167 162.621 538.288 162.621L550.835 163.606H551.821H552.314H552.583H552.897C553.793 163.651 554.689 163.83 555.585 164.098C556.482 164.367 557.333 164.725 558.14 165.217C558.543 165.441 558.946 165.709 559.305 165.978C559.484 166.112 559.663 166.246 559.843 166.425L560.335 166.828L569.343 177.434C573.197 185.399 568.402 184.459 559.798 180.924Z" fill="#E99670"/>
<path d="M540.08 156.133L552.538 159.936L553.524 160.25L554.017 160.429L554.241 160.518L554.555 160.652C555.451 160.966 556.257 161.413 557.064 161.95C557.871 162.487 558.588 163.114 559.26 163.83C559.574 164.188 559.887 164.546 560.201 164.948C560.335 165.127 560.47 165.351 560.604 165.53L560.963 166.112L573.69 187.055C575.885 190.68 567.461 194.528 560.515 188.442L555.54 168.573L555.361 168.215C555.316 168.126 555.272 168.036 555.227 167.947C555.137 167.768 555.003 167.589 554.868 167.41C554.599 167.052 554.331 166.738 553.972 166.425C553.614 166.157 553.255 165.888 552.852 165.664L552.673 165.575L552.448 165.485L551.955 165.262L551.014 164.859L538.781 160.205C537.66 159.713 537.033 158.415 537.436 157.296C537.884 156.267 539.005 155.775 540.08 156.133Z" fill="#E99670"/>
<path fill-rule="evenodd" clip-rule="evenodd" d="M564.503 181.372L558.677 172.243L558.364 172.019C558.274 171.974 558.184 171.885 558.095 171.84C557.916 171.75 557.736 171.616 557.557 171.571C557.154 171.392 556.75 171.258 556.347 171.169C555.944 171.079 555.496 171.034 555.048 171.079H554.868L554.599 171.124L554.107 171.169L553.121 171.258L543.934 172.243C542.724 172.377 541.604 171.571 541.425 170.453C541.245 169.423 541.962 168.484 543.038 168.26L552.045 166.425L553.031 166.201L553.524 166.112L553.748 166.067L554.062 166.022C554.958 165.888 555.854 165.843 556.795 165.888C557.736 165.933 558.633 166.112 559.529 166.38C559.977 166.515 560.425 166.694 560.828 166.873C561.052 166.962 561.277 167.052 561.456 167.186L562.038 167.499L568.939 180.656C574.317 187.592 573.69 182.938 564.503 181.372Z" fill="#E99670"/>
<path fill-rule="evenodd" clip-rule="evenodd" d="M548.863 168.305L561.501 167.991V183.743L556.93 184.952L548.863 168.305Z" fill="#E99670"/>
<path fill-rule="evenodd" clip-rule="evenodd" d="M576.692 174.614L565.758 175.241L563.696 192.738L574.183 195.781C578.44 191.396 579.246 181.998 576.692 174.614Z" fill="#E99670"/>
<path d="M561.187 189.158C561.187 189.158 559.215 187.323 558.901 183.967C557.691 172.153 558.14 171.482 555.854 171.124C556.033 171.169 553.076 171.258 553.076 171.258L543.889 172.243C542.679 172.377 541.559 171.571 541.38 170.453C541.2 169.423 541.917 168.484 542.993 168.26L552 166.425C552 166.425 557.423 164.859 559.842 166.604C562.845 168.797 567.371 175.017 567.371 175.017" stroke="black" stroke-width="0.945" stroke-miterlimit="10" stroke-linecap="round" stroke-linejoin="round"/>
<path d="M545.727 167.812C542.276 167.32 538.377 166.738 538.377 166.738C537.167 166.604 536.271 165.575 536.316 164.411C536.361 163.382 537.257 162.621 538.377 162.621L550.925 163.606H551.911H552.404H552.673H552.986C553.882 163.651 554.779 163.83 555.675 164.098C556.571 164.367 557.423 164.725 558.229 165.217C558.633 165.441 559.036 165.709 559.394 165.978C559.574 166.112 559.753 166.246 559.932 166.425" stroke="black" stroke-width="0.945" stroke-miterlimit="10" stroke-linecap="round" stroke-linejoin="round"/>
<path d="M588.433 201.778C592.152 204.06 596.678 199.585 598.605 191.977C600.488 184.37 599.412 176.583 595.693 174.301" stroke="#571F2B" stroke-width="0.945" stroke-miterlimit="10" stroke-linecap="round" stroke-linejoin="round"/>
<path d="M586.058 173.138C586.058 173.138 592.421 173.809 596.678 174.301C602.728 161.458 622.445 168.931 624.596 170.274" stroke="#571F2B" stroke-width="0.945" stroke-miterlimit="10" stroke-linecap="round" stroke-linejoin="round"/>
<path fill-rule="evenodd" clip-rule="evenodd" d="M557.96 112.725C561.321 115.365 554.241 123.913 546.13 125.568C537.436 127.314 529.908 124.539 530.356 120.333C531.118 113.978 548.729 105.476 557.96 112.725Z" fill="black"/>
<path fill-rule="evenodd" clip-rule="evenodd" d="M557.243 122.257L556.93 94.6909L536.092 95.0489L531.521 124.673C531.521 124.673 531.431 125.076 531.431 125.3C531.386 126.553 533.941 127.403 537.75 127.627L539.677 139.486L542.59 127.582C543.127 127.537 543.71 127.493 544.292 127.448C551.418 126.732 557.288 124.584 557.333 122.66C557.333 122.525 557.333 122.391 557.243 122.257Z" fill="#E99670"/>
<path fill-rule="evenodd" clip-rule="evenodd" d="M557.109 111.83C559.215 113.396 560.38 119.438 546.354 125.031C544.472 125.255 543.352 126.866 542.231 130.222L539.722 138.993L538.153 130.222C538.153 130.222 537.795 128.567 537.302 127.627C536.63 126.374 535.823 125.747 535.823 125.747C535.823 125.747 531.297 123.331 530.849 121.72C529.997 118.722 531.969 117.021 533.089 116.081C533.134 115.768 533.179 115.455 533.224 115.142C532.014 115.723 530.132 117.155 528.877 120.243C525.651 125.837 526.099 134.563 526.099 134.563L531.207 132.281L539.722 139.888L550.432 131.968C550.432 131.968 553.031 132.907 556.706 134.339C560.111 131.386 563.562 126.598 564.324 122.167L558.364 112.591L557.154 111.785L557.109 111.83Z" fill="#657DEA"/>
<path d="M557.288 112.054C558.005 112.725 558.408 113.531 558.408 114.56C558.408 118.274 553.076 123.152 546.399 124.987C544.92 125.389 543.71 126.374 543.083 127.761C541.962 130.133 540.573 134.25 539.766 139.53C539.005 133.981 538.422 126.463 534.747 124.942C534.075 124.673 533.403 124.36 532.865 123.868C531.835 122.928 531.073 121.72 531.073 120.556" stroke="black" stroke-width="0.945" stroke-miterlimit="10" stroke-linecap="round" stroke-linejoin="round"/>
<path fill-rule="evenodd" clip-rule="evenodd" d="M526.054 134.563L538.467 131.61C538.467 131.61 537.526 127.403 536.406 125.658C535.285 123.957 530.177 127 526.054 134.563Z" fill="black"/>
<path fill-rule="evenodd" clip-rule="evenodd" d="M556.616 134.339L541.469 132.326C541.604 132.236 542.052 126.642 545.144 125.21C546.981 124.36 554.017 129.148 556.616 134.339Z" fill="black"/>
<path fill-rule="evenodd" clip-rule="evenodd" d="M532.103 121.093C550.88 114.649 550.342 100.329 550.342 100.329L534.747 103.73L532.103 121.093Z" fill="black"/>
<path fill-rule="evenodd" clip-rule="evenodd" d="M531.342 108.832C532.596 110.04 534.165 110.846 535.868 111.204C537.571 111.562 539.318 111.517 540.976 110.98C545.637 109.458 552.18 105.789 555.63 96.7047C562.307 98.7632 567.147 88.6944 563.114 85.9647C560.604 84.3089 557.199 86.0989 555.451 87.9784C555.361 88.0679 555.182 88.2917 555.137 88.3812C555.182 82.9217 561.366 77.1489 558.229 74.0612C541.649 57.7722 530.132 70.2127 527.667 72.5844C526.726 76.1197 526.412 79.8787 525.471 85.4277C523.455 96.9732 527.264 105.028 531.342 108.832ZM555.406 87.9784C555.451 87.9337 555.451 87.9337 555.406 87.9784V87.9784Z" fill="#E99670"/>
<path d="M534.165 97.7788C534.165 97.7788 538.781 98.4948 541.783 95.3175" stroke="black" stroke-width="0.945" stroke-miterlimit="10" stroke-linecap="round" stroke-linejoin="round"/>
<path d="M533.179 77.9991C530.67 77.1936 527.219 78.1334 526.502 79.0731" stroke="black" stroke-width="0.945" stroke-miterlimit="10" stroke-linecap="round" stroke-linejoin="round"/>
<path d="M548.415 79.4312C546.713 78.1782 543.262 76.9252 539.453 77.9992" stroke="black" stroke-width="0.945" stroke-miterlimit="10" stroke-linecap="round" stroke-linejoin="round"/>
<path d="M534.837 82.7875C534.837 82.7875 534.882 85.1145 532.865 88.963C531.028 92.4535 533.269 94.1987 537.257 93.08" stroke="black" stroke-width="0.945" stroke-miterlimit="10" stroke-linecap="round" stroke-linejoin="round"/>
<path fill-rule="evenodd" clip-rule="evenodd" d="M543.71 82.4742C543.038 82.4294 542.411 83.3692 542.366 84.5327C542.321 85.6962 542.859 86.6359 543.531 86.6807C544.203 86.7254 544.83 85.7857 544.875 84.6222C544.92 83.4587 544.382 82.5189 543.71 82.4742Z" fill="black"/>
<path fill-rule="evenodd" clip-rule="evenodd" d="M530.177 81.8924C529.505 81.8477 528.877 82.7874 528.832 83.9509C528.788 85.1144 529.325 86.0542 529.997 86.0989C530.67 86.1437 531.297 85.2039 531.342 84.0404C531.387 82.8769 530.849 81.9372 530.177 81.8924Z" fill="black"/>
<path fill-rule="evenodd" clip-rule="evenodd" d="M524.441 73.032C525.203 85.025 527.04 75.0457 527.04 75.0457C529.191 76.612 537.929 73.9717 545.01 70.4365C552.045 66.9012 556.437 66.3195 555.765 75.4037C555.317 81.5345 566.161 63.8135 559.619 64.1267C561.59 51.5072 545.906 58.8462 545.906 58.8462C545.906 58.8462 541.873 52.984 535.733 52.8945C529.997 52.805 525.516 57.4142 526.278 62.8737C522.021 62.7842 518.705 63.6792 524.441 73.032Z" fill="#F69029"/>
<path fill-rule="evenodd" clip-rule="evenodd" d="M528.205 75.1799C530.625 76.0749 536.182 74.7324 544.92 71.1077C552.224 68.1094 555.182 70.7944 554.824 79.8787C554.734 81.9819 554.375 87.0834 554.151 89.9922C555.137 87.8889 557.468 85.5619 561.501 85.2487C559.798 79.6102 569.388 63.6792 559.574 64.1267C559.843 62.4262 559.887 61.4417 559.708 60.0544C559.394 59.0699 556.482 53.9237 548.102 64.3952C542.142 71.8684 533.448 75.8959 528.205 75.1799ZM524.441 73.0319C524.217 79.1179 525.695 83.8614 525.695 83.8614L527.533 75.1799C525.695 74.2849 524.844 73.5242 524.441 73.0319Z" fill="#C13C2B"/>
<path fill-rule="evenodd" clip-rule="evenodd" d="M495.178 182.401C495.178 172.869 487.425 165.172 477.88 165.172C468.335 165.172 460.583 172.914 460.583 182.401C460.583 191.082 466.991 198.242 475.326 199.451L483.706 201.285L483.84 198.556C490.517 196.139 495.178 189.829 495.178 182.401Z" fill="#783140"/>
<path fill-rule="evenodd" clip-rule="evenodd" d="M487.022 173.272C494.864 173.272 501.272 179.626 501.272 187.502C501.272 195.378 494.909 201.733 487.022 201.733C479.18 201.733 472.772 195.378 472.772 187.502C472.772 179.626 479.18 173.272 487.022 173.272Z" fill="#783140"/>
<path fill-rule="evenodd" clip-rule="evenodd" d="M490.876 176.494C498.136 176.494 504.006 182.356 504.006 189.606C504.006 196.855 498.136 202.717 490.876 202.717C483.616 202.717 477.746 196.855 477.746 189.606C477.746 182.356 483.616 176.494 490.876 176.494Z" fill="black"/>
<path fill-rule="evenodd" clip-rule="evenodd" d="M478.866 189.65C478.866 196.184 484.154 201.464 490.697 201.464C496.881 201.464 501.9 196.766 502.483 190.769L503.065 185.31C503.155 184.773 503.244 184.236 503.244 183.699C503.244 179.134 499.525 175.42 494.954 175.42C493.386 175.42 491.907 175.867 490.697 176.628L485.275 179.089L485.364 179.134C481.51 181.103 478.866 185.041 478.866 189.65Z" fill="#E99670"/>
<path fill-rule="evenodd" clip-rule="evenodd" d="M494.954 175.42C499.525 175.42 503.244 179.134 503.244 183.699C503.244 184.236 503.2 184.773 503.065 185.31L502.483 190.769C501.945 196.766 496.881 201.464 490.697 201.464C490.518 201.464 490.293 201.464 490.114 201.42C485.812 195.378 485.409 183.743 488.591 177.568L490.652 176.628C491.907 175.867 493.386 175.42 494.954 175.42Z" fill="black"/>
<path fill-rule="evenodd" clip-rule="evenodd" d="M489.397 148.48H525.875C527.488 148.48 529.28 149.778 529.908 151.389L547.788 198.287C548.415 199.898 547.609 201.196 545.995 201.196H509.518C507.905 201.196 506.112 199.898 505.485 198.287L487.56 151.344C486.977 149.778 487.784 148.48 489.397 148.48Z" fill="black"/>
<path fill-rule="evenodd" clip-rule="evenodd" d="M506.919 151.523C507.681 151.523 508.711 152.508 509.159 153.761C509.608 155.014 509.384 155.998 508.622 155.998C507.86 155.998 506.829 155.014 506.381 153.761C505.888 152.553 506.112 151.523 506.919 151.523Z" fill="#555EC2"/>
<path fill-rule="evenodd" clip-rule="evenodd" d="M492.355 189.292C495.178 196.766 500.645 196.094 503.244 193.723C501.99 190.366 499.704 186.07 503.827 183.699C498.001 186.742 495.044 170.855 489.935 171.124C486.35 171.348 487.829 177.389 492.355 189.292Z" fill="#E99670"/>
<path d="M506.112 159.757L493.878 166.694L492.937 167.275L492.444 167.544L492.22 167.678L491.907 167.857C491.055 168.394 490.786 168.752 490.069 169.513C485.678 173.138 489.621 181.685 494.864 172.735L494.999 172.601L495.223 172.422L495.671 172.108L496.567 171.437L508.308 163.695C509.384 162.89 509.697 161.413 509.025 160.339C508.442 159.355 507.143 159.131 506.112 159.757Z" fill="#E99670"/>
<path d="M511.131 166.291L497.956 171.079L496.926 171.482L496.388 171.661L496.119 171.75L495.805 171.885C494.864 172.287 493.968 172.332 493.161 172.959C489.531 175.644 495.357 178.15 495.357 178.15L499.659 175.912L512.744 170.542C513.954 169.916 514.492 168.484 513.999 167.365C513.461 166.291 512.251 165.843 511.131 166.291Z" fill="#E99670"/>
<path d="M511.131 171.437L497.956 176.225L496.926 176.628C496.926 176.628 494.192 177.434 493.61 178.731C493.61 183.475 498.808 181.909 498.808 181.909L499.794 181.416L512.655 175.733C513.865 175.107 514.403 173.675 513.91 172.556C513.462 171.437 512.252 170.99 511.131 171.437Z" fill="#E99670"/>
<path d="M509.07 177.389L496.119 182.535L496.746 187.86L497.732 187.368L510.593 181.685C511.803 181.058 512.341 179.626 511.848 178.508C511.445 177.434 510.19 176.986 509.07 177.389Z" fill="#E99670"/>
<path d="M510.549 181.685C511.759 181.058 512.296 179.626 511.804 178.508C511.355 177.434 510.101 176.986 508.98 177.434L496.433 182.222L494.73 183.341" stroke="black" stroke-width="0.945" stroke-miterlimit="10" stroke-linecap="round" stroke-linejoin="round"/>
<path d="M512.655 170.542C513.865 169.916 514.403 168.484 513.91 167.365C513.462 166.291 512.207 165.843 511.086 166.291L497.912 171.079L495.716 172.377C495.716 172.377 492.982 173.182 492.4 174.48" stroke="black" stroke-width="0.945" stroke-miterlimit="10" stroke-linecap="round" stroke-linejoin="round"/>
<path d="M512.655 175.688C513.865 175.062 514.403 173.63 513.91 172.511C513.462 171.437 512.207 170.99 511.086 171.437L497.912 176.225L497.508 176.628C497.508 176.628 494.237 177.523 493.654 178.821" stroke="black" stroke-width="0.945" stroke-miterlimit="10" stroke-linecap="round" stroke-linejoin="round"/>
<path d="M626.12 304.747C626.12 304.747 628.809 382.568 547.34 410.76" stroke="#555EC2" stroke-width="0.945" stroke-miterlimit="10" stroke-linecap="round" stroke-linejoin="round"/>
<path fill-rule="evenodd" clip-rule="evenodd" d="M545.099 425.483C544.965 424.991 544.741 424.185 544.517 423.022C543.486 424.991 544.382 425.707 544.92 425.931C544.965 425.752 545.054 425.617 545.099 425.483ZM570.06 365.921C570.06 365.921 562.083 364.668 567.55 356.389C587.537 326.138 580.591 312.624 575.93 315.174C574.9 315.711 572.838 318.173 572.838 318.173C545.547 353.749 542.007 411.387 544.517 422.977C545.099 421.858 551.507 429.913 553.748 427.855C615.41 381.315 570.06 365.921 570.06 365.921Z" fill="black"/>
<path fill-rule="evenodd" clip-rule="evenodd" d="M606.044 392.86C606.044 392.86 625.896 418.144 584.758 414.653C551.597 411.879 556.168 389.862 606.044 392.86Z" fill="black"/>
<path fill-rule="evenodd" clip-rule="evenodd" d="M502.886 438.908L508.174 477.706H508.263C509.204 479.228 519.87 480.704 532.955 481.107C546.668 481.51 557.781 480.57 557.781 478.959C557.781 478.87 557.736 478.78 557.647 478.691H557.871L562.8 441.011C562.935 440.877 563.024 440.743 563.024 440.608C563.069 438.684 549.625 436.715 533 436.223C516.374 435.731 502.931 436.894 502.886 438.818C502.931 438.863 502.931 438.863 502.886 438.908Z" fill="#CABEC4"/>
<path fill-rule="evenodd" clip-rule="evenodd" d="M533.537 431.435C518.57 430.987 504.723 437.163 504.723 438.908C504.723 440.653 516.822 442.398 531.745 442.846C546.712 443.293 558.857 442.264 558.857 440.519C558.857 438.774 548.46 431.882 533.537 431.435Z" fill="black"/>
<path fill-rule="evenodd" clip-rule="evenodd" d="M539.677 432.553C552.852 424.006 538.781 423.782 539.408 411.387C541.469 370.664 518.66 313.339 502.841 325.556C487.022 337.818 515.926 387.087 515.926 387.087C499.659 382.657 468.784 389.012 539.677 432.553Z" fill="#555EC2"/>
<path fill-rule="evenodd" clip-rule="evenodd" d="M533.941 429.466C533.941 429.466 545.458 405.703 587.089 389.728C611.511 380.375 624.059 379.748 632.439 380.106C645.748 380.643 644.538 391.07 619.622 399.259C602.146 404.987 590.001 399.125 590.001 399.125C590.001 399.125 604.297 427.944 585.61 438.46C562.621 451.348 533.941 429.466 533.941 429.466Z" fill="#555EC2"/>
<path fill-rule="evenodd" clip-rule="evenodd" d="M563.696 355.673C563.696 355.673 581.129 347.394 579.56 367.263C578.485 381.136 555.048 407.359 555.048 407.359C555.048 407.359 573.107 404.361 562.262 420.202C550.835 436.939 539.274 428.392 538.915 431.479C538.915 431.479 525.471 398.006 552.583 343.859C557.288 334.461 568.088 319.157 576.244 315.04C561.142 328.152 563.696 355.673 563.696 355.673Z" fill="#555EC2"/>
<path fill-rule="evenodd" clip-rule="evenodd" d="M485.633 410.536C450.59 412.998 458.969 462.446 510.459 440.161C534.658 429.689 547.026 432.643 550.97 433.672C485.319 309.938 425.315 380.509 485.633 410.536Z" fill="#555EC2"/>
<path fill-rule="evenodd" clip-rule="evenodd" d="M612.721 299.064C607.926 299.02 604.341 307.433 609.54 312.668C613.214 316.383 623.7 320.142 623.028 329.136C625.269 322.379 624.776 315.398 622.67 308.641C620.519 301.794 616.62 299.154 612.721 299.064Z" fill="#555EC2"/>
<path fill-rule="evenodd" clip-rule="evenodd" d="M613.349 298.572C614.917 302.644 624.776 322.558 622.67 330.703C628.226 317.009 627.151 301.705 625.896 297.006C622.132 282.775 609.181 287.877 613.349 298.572Z" fill="#555EC2"/>
<path fill-rule="evenodd" clip-rule="evenodd" d="M298.272 284.879H263.408L263.453 284.923H171.094L134.438 221.871H226.796L261.391 281.433H298.272V284.879Z" fill="black"/>
<path fill-rule="evenodd" clip-rule="evenodd" d="M254.311 280.583L254.356 280.627H173.917L142.28 226.167H222.718L254.311 280.583Z" fill="#D8D1D1"/>
<path fill-rule="evenodd" clip-rule="evenodd" d="M165 265.278H245.393L254.266 280.538L254.311 280.583H173.917L165 265.278Z" fill="#1053F3"/>
<path fill-rule="evenodd" clip-rule="evenodd" d="M187.227 232.074C194.128 232.074 203.538 238.741 208.199 246.931C212.904 255.12 211.112 261.788 204.211 261.788C197.309 261.788 187.899 255.12 183.238 246.931C178.533 238.741 180.326 232.074 187.227 232.074Z" fill="#1053F3"/>
<path d="M199.864 239.323L199.326 253.777L191.349 248.407" stroke="white" stroke-width="0.945" stroke-miterlimit="10" stroke-linecap="round" stroke-linejoin="round"/>
<path fill-rule="evenodd" clip-rule="evenodd" d="M171.094 294.276H157.74L109.074 477.259H117.14L171.094 294.276Z" fill="#F69028"/>
<path fill-rule="evenodd" clip-rule="evenodd" d="M367.597 294.276H380.951L429.617 477.259H421.551L367.597 294.276Z" fill="#F69028"/>
<path fill-rule="evenodd" clip-rule="evenodd" d="M125.475 284.476H416.308V294.366H125.475V284.476Z" fill="black"/>
<path fill-rule="evenodd" clip-rule="evenodd" d="M327.176 142.797L319.558 183.654H319.468C317.766 190.501 311.581 195.558 304.187 195.558C295.494 195.558 288.458 188.532 288.458 179.85C288.458 178.732 288.593 177.658 288.817 176.584L293.836 154.522C289.578 150.807 286.89 145.348 286.89 139.217C286.89 127.985 295.987 118.901 307.235 118.901C318.482 118.901 327.579 127.985 327.579 139.217C327.49 140.426 327.4 141.634 327.176 142.797Z" fill="#D8D1D1"/>
<path fill-rule="evenodd" clip-rule="evenodd" d="M305.128 221.199L332.061 214.71L319.782 179.492L288.772 176.539L305.128 221.199Z" fill="#D8D1D1"/>
<path fill-rule="evenodd" clip-rule="evenodd" d="M304.187 164.143C312.881 164.143 319.916 171.169 319.916 179.85C319.916 188.532 312.881 195.558 304.187 195.558C295.494 195.558 288.458 188.532 288.458 179.85C288.458 171.169 295.494 164.143 304.187 164.143Z" fill="#D8D1D1"/>
<path fill-rule="evenodd" clip-rule="evenodd" d="M319.916 214.576C313.374 215.65 308.265 217.843 308.579 219.454C308.848 221.065 314.405 221.512 320.947 220.438C327.49 219.364 332.598 217.172 332.285 215.561C332.016 213.95 326.459 213.502 319.916 214.576Z" fill="black"/>
<path fill-rule="evenodd" clip-rule="evenodd" d="M338.066 250.197L319.737 251.898L309.206 220.394C308.982 218.962 313.553 216.993 319.423 216.053C325.339 215.068 330.313 215.471 330.582 216.948C330.582 217.037 330.582 217.127 330.582 217.261L338.066 250.197Z" fill="#E5936F"/>
<path d="M355.094 284.431L352.63 270.603L352.406 269.529L352.316 268.992L352.271 268.724L352.181 268.366C351.957 267.381 351.599 266.441 351.151 265.502C350.703 264.607 350.12 263.712 349.448 262.906C349.089 262.503 348.731 262.145 348.372 261.787C348.193 261.608 347.969 261.429 347.79 261.25L333.45 242.903L328.028 242.813C324.443 239.994 317.586 250.108 323.188 258.342L343.846 266.307L344.205 266.531C344.294 266.576 344.384 266.665 344.474 266.71C344.653 266.844 344.832 266.978 345.011 267.157C345.37 267.471 345.684 267.829 345.953 268.231C346.221 268.634 346.445 269.082 346.625 269.529L346.67 269.708L346.759 269.977L346.938 270.514L347.252 271.588L350.658 285.281C351.061 286.579 352.361 287.384 353.571 287.071C354.646 286.758 355.318 285.639 355.094 284.431Z" fill="#E5936F"/>
<path fill-rule="evenodd" clip-rule="evenodd" d="M329.82 272.035L332.105 276.018C332.598 277.182 333.988 277.808 335.063 277.45C336.273 277.047 337.124 275.75 336.632 274.004C336.632 274.004 334.794 266.621 333.047 260.579C334.346 249.258 321.395 240.442 319.334 249.616C317.138 259.505 325.115 265.547 329.82 272.035Z" fill="#E5936F"/>
<path fill-rule="evenodd" clip-rule="evenodd" d="M331.254 262.951L342.412 267.874L342.681 268.187C342.771 268.276 342.816 268.366 342.905 268.455C343.04 268.634 343.174 268.813 343.309 269.037C343.577 269.44 343.802 269.843 343.936 270.29C344.115 270.738 344.205 271.23 344.25 271.722V271.901V272.17L344.294 272.707L344.339 273.825L345.46 285.639C345.549 286.982 346.625 288.101 347.879 288.101C349.045 288.145 349.986 287.206 350.03 285.997L349.986 274.318L350.03 273.199L350.075 272.662V272.393V272.035C350.075 271.051 349.986 270.022 349.762 269.037C349.538 268.053 349.179 267.068 348.686 266.128C348.462 265.681 348.193 265.189 347.924 264.786C347.79 264.562 347.611 264.338 347.476 264.159L347.028 263.578L331.164 243.261C331.164 243.216 331.164 243.172 331.164 243.172C324.891 240.487 319.558 254.851 331.254 262.951Z" fill="#E5936F"/>
<path d="M332.912 263.757C338.11 266.084 342.457 267.874 342.457 267.874L342.726 268.187C342.816 268.276 342.861 268.366 342.95 268.455C343.085 268.634 343.219 268.813 343.353 269.037C343.622 269.44 343.846 269.843 343.981 270.29C344.16 270.738 344.25 271.23 344.295 271.722V271.901V272.17L344.339 272.707L344.384 273.825L345.504 285.639C345.594 286.982 346.67 288.101 347.924 288.101C349.089 288.145 350.031 287.206 350.075 285.997L349.986 274.318L350.031 273.199L350.075 272.662V272.393V272.035C350.075 271.051 349.986 270.022 349.762 269.037C349.538 268.053 349.179 267.068 348.686 266.128C348.462 265.681 348.193 265.189 347.924 264.786C347.79 264.562 347.611 264.338 347.476 264.159L347.028 263.578" stroke="black" stroke-width="0.945" stroke-miterlimit="10" stroke-linecap="round" stroke-linejoin="round"/>
<path fill-rule="evenodd" clip-rule="evenodd" d="M319.648 155.954C319.917 173.004 323.009 190.814 320.185 202.941C319.961 209.564 320.275 211.712 320.275 211.712C320.275 211.712 307.862 206.745 276.762 207.327C256.462 207.685 242.346 210.907 241.091 212.563C241.091 212.563 241.002 203.389 241.091 200.704C238.806 174.122 239.254 177.702 234.728 158.191C227.916 154.701 223.211 147.63 223.211 139.441C223.211 128.075 232.263 118.811 243.556 118.453C243.556 118.453 296.883 118.722 309.251 118.722C319.603 120.064 327.624 128.88 327.624 139.575C327.669 146.064 324.263 152.105 319.648 155.954Z" fill="#D8D1D1"/>
<path d="M283.798 135.995C283.798 135.995 285.277 145.258 286.576 161.234C288.279 181.909 290.878 206.79 290.878 206.79" stroke="#9D9797" stroke-width="0.945" stroke-miterlimit="10" stroke-linecap="round" stroke-linejoin="round"/>
<path fill-rule="evenodd" clip-rule="evenodd" d="M278.958 106.908C287.069 108.519 293.029 113.217 292.267 117.379C291.505 121.541 284.291 123.644 276.18 122.033C268.068 120.422 262.108 115.723 262.87 111.562C263.632 107.355 270.847 105.297 278.958 106.908Z" fill="black"/>
<path fill-rule="evenodd" clip-rule="evenodd" d="M290.833 123.51C290.878 124.763 288.503 125.658 284.873 125.882L283.932 134.698L280.482 125.882C279.675 125.837 278.868 125.792 278.062 125.703C270.937 124.942 265.066 122.749 265.021 120.78C265.021 120.646 265.066 120.467 265.111 120.333L265.425 91.8718L286.262 92.2298L290.833 122.839H290.654C290.744 123.063 290.833 123.286 290.833 123.51Z" fill="#E5936F"/>
<path fill-rule="evenodd" clip-rule="evenodd" d="M296.255 130.849L291.147 128.746L283.663 135.727L271.922 128.433C271.922 128.433 269.861 129.328 266.142 130.76C262.736 127.806 258.792 123.331 257.986 118.901C257.986 118.901 260.854 109.369 265.156 107.937C265.156 108.071 265.156 108.161 265.156 108.295C263.049 109.861 261.884 115.858 275.911 121.452C277.793 121.675 279.899 123.6 281.064 126.956L283.708 134.921L284.425 126.687C284.425 126.687 284.47 125.076 284.963 124.137C285.635 122.884 286.442 122.257 286.442 122.257C286.442 122.257 290.564 119.975 291.012 118.409C291.864 115.41 290.34 113.531 289.22 112.591C289.175 112.278 289.086 111.562 289.041 111.249C290.251 111.83 292.222 113.665 293.477 116.753C296.659 122.302 296.255 130.849 296.255 130.849Z" fill="#D8D1D1"/>
<path d="M294.418 118.766C296.569 124.181 296.256 130.849 296.256 130.849M266.186 130.804C262.781 127.851 258.837 123.376 258.031 118.945" stroke="black" stroke-width="0.945" stroke-miterlimit="10" stroke-linecap="round" stroke-linejoin="round"/>
<path fill-rule="evenodd" clip-rule="evenodd" d="M290.206 119.125C289.937 119.08 289.713 118.99 289.444 118.946C270.847 114.068 271.967 97.6893 271.967 97.6893L287.562 101.225L290.206 119.125Z" fill="black"/>
<path d="M319.648 155.954C319.917 173.004 323.009 190.814 320.185 202.941C319.961 209.564 320.275 211.712 320.275 211.712" stroke="#9D9797" stroke-width="0.945" stroke-miterlimit="10" stroke-linecap="round" stroke-linejoin="round"/>
<path fill-rule="evenodd" clip-rule="evenodd" d="M296.256 131.252L284.335 128.209C284.335 128.209 284.425 123.6 285.904 122.168C287.786 120.243 292.088 123.689 296.256 131.252Z" fill="black"/>
<path fill-rule="evenodd" clip-rule="evenodd" d="M266.186 131.252L281.647 128.567C281.512 128.477 280.347 122.794 277.524 121.451C275.731 120.601 268.786 126.061 266.186 131.252Z" fill="black"/>
<path d="M265.201 108.34C264.349 109.011 263.901 109.906 263.901 111.025C263.901 115.097 270.175 120.512 277.658 121.854C278.51 122.168 281.288 125.927 283.663 135.727C284.38 129.417 283.977 122.884 287.517 121.407C288.234 121.094 288.951 120.78 289.489 120.243C290.475 119.304 291.237 118.14 291.237 116.977C291.237 115.589 290.52 114.157 289.31 112.815" stroke="black" stroke-width="0.945" stroke-miterlimit="10" stroke-linecap="round" stroke-linejoin="round"/>
<path fill-rule="evenodd" clip-rule="evenodd" d="M291.012 106.684C289.758 107.892 288.189 108.698 286.486 109.056C284.784 109.414 283.036 109.369 281.378 108.832C276.717 107.311 270.175 103.641 266.724 94.5568C260.047 96.6153 255.207 86.5465 259.24 83.8168C261.75 82.161 265.156 83.951 266.903 85.8305C266.993 85.92 267.172 86.1438 267.217 86.2333C267.172 80.7738 260.988 75.001 264.125 71.9133C280.706 55.6243 292.581 62.65 295.046 64.977C295.987 68.5123 295.942 77.686 296.883 83.235C298.855 94.8253 295.046 102.88 291.012 106.684ZM266.948 85.8305C266.903 85.8305 266.903 85.8305 266.948 85.8305C266.859 85.7858 266.859 85.7858 266.948 85.8305Z" fill="#E5936F"/>
<path d="M288.189 95.6308C288.189 95.6308 283.574 96.3468 280.571 93.1696" stroke="black" stroke-width="0.945" stroke-miterlimit="10" stroke-linecap="round" stroke-linejoin="round"/>
<path d="M289.041 76.1198C290.833 75.3143 294.418 75.6723 295.807 76.4778" stroke="black" stroke-width="0.945" stroke-miterlimit="10" stroke-linecap="round" stroke-linejoin="round"/>
<path d="M272.774 77.1043C273.311 76.791 277.837 74.9563 282.543 76.2988" stroke="black" stroke-width="0.945" stroke-miterlimit="10" stroke-linecap="round" stroke-linejoin="round"/>
<path d="M287.472 80.6395C287.472 80.6395 287.427 82.9665 289.444 86.815C291.281 90.3055 289.041 92.0508 285.052 90.932" stroke="black" stroke-width="0.945" stroke-miterlimit="10" stroke-linecap="round" stroke-linejoin="round"/>
<path d="M262.198 86.994C262.198 86.994 260.63 91.3795 265.38 91.8718" stroke="black" stroke-width="0.945" stroke-miterlimit="10" stroke-linecap="round" stroke-linejoin="round"/>
<path d="M266.276 88.8288L260.271 85.6068" stroke="black" stroke-width="0.945" stroke-miterlimit="10" stroke-linecap="round" stroke-linejoin="round"/>
<path fill-rule="evenodd" clip-rule="evenodd" d="M297.376 68.9598C298.9 72.495 296.3 79.655 296.3 79.655L294.732 67.4383C294.732 67.4383 288.906 71.7343 276.986 68.02C268.158 65.2455 267.307 72.1818 267.934 79.3865C268.248 82.9665 268.203 89.5895 268.203 89.5895C266.814 85.4278 264.125 83.9063 261.347 83.3693C260.719 81.8925 260.406 80.729 258.748 73.2558C257.986 69.9443 260.092 66.4985 260.092 66.4985C260.092 66.4985 258.613 62.7395 259.375 60.144C261.884 51.6415 272.774 55.0873 272.729 55.0873C272.729 55.0873 276.538 48.7775 285.008 49.941C293.477 51.1045 294.373 58.6673 294.373 58.6673C296.838 58.0408 302.529 62.4263 297.376 68.9598Z" fill="black"/>
<path fill-rule="evenodd" clip-rule="evenodd" d="M278.286 80.1473C278.958 80.1025 279.585 81.0423 279.63 82.2058C279.675 83.3693 279.137 84.309 278.465 84.3538C277.793 84.3985 277.165 83.4588 277.121 82.2953C277.031 81.1318 277.569 80.192 278.286 80.1473Z" fill="black"/>
<path fill-rule="evenodd" clip-rule="evenodd" d="M292.178 79.7446C292.85 79.6998 293.477 80.6396 293.522 81.8031C293.567 82.9666 293.029 83.9063 292.357 83.9511C291.685 83.9958 291.057 83.0561 291.012 81.8926C290.923 80.7291 291.461 79.7893 292.178 79.7446Z" fill="black"/>
<path fill-rule="evenodd" clip-rule="evenodd" d="M269.189 69.4968C267.665 71.7343 267.576 75.5381 267.889 79.4313C268.203 83.0113 268.158 89.6343 268.158 89.6343C266.769 85.4726 264.08 83.9511 261.302 83.4141C260.674 81.9373 260.361 80.7738 258.703 73.3006C257.941 69.9891 260.047 66.5433 260.047 66.5433C260.047 66.5433 260.002 66.4538 259.957 66.3196L269.189 69.4968Z" fill="#393939"/>
<path fill-rule="evenodd" clip-rule="evenodd" d="M300.513 78.0887L300.557 79.655L299.482 79.7892C298.989 80.4157 298.72 80.9975 298.72 81.7135C297.376 78.581 292.536 78.0887 292.536 78.0887H300.513Z" fill="black"/>
<path d="M287.562 80.5053C288.637 79.2523 290.699 78.4021 292.76 78.3573C296.121 78.2678 298.855 80.3263 298.855 82.9665C298.855 85.562 296.166 87.7548 292.805 87.8443C291.595 87.8891 290.609 87.71 289.623 87.2178" stroke="black" stroke-width="0.945" stroke-miterlimit="10" stroke-linecap="round" stroke-linejoin="round"/>
<path fill-rule="evenodd" clip-rule="evenodd" d="M271.25 79.0733L271.116 80.6396L272.191 80.7291C272.415 81.3108 272.55 82.0268 272.505 82.7428C273.58 79.2971 279.092 78.4916 279.092 78.4916L271.25 79.0733Z" fill="black"/>
<path fill-rule="evenodd" clip-rule="evenodd" d="M279.047 78.8495C275.687 78.9837 272.819 81.266 272.594 83.8615C272.37 86.5017 274.925 88.4707 278.286 88.3365C281.647 88.2022 284.515 85.92 284.739 83.3245C284.963 80.6842 282.408 78.7152 279.047 78.8495Z" stroke="black" stroke-width="0.945" stroke-miterlimit="10" stroke-linecap="round" stroke-linejoin="round"/>
<path fill-rule="evenodd" clip-rule="evenodd" d="M189.109 435.776H212.187L206.406 457.166H183.328L189.109 435.776Z" fill="#D8D1D1"/>
<path fill-rule="evenodd" clip-rule="evenodd" d="M311.716 423.648L288.996 423.604L290.475 453.541L315.256 452.244L311.716 423.648Z" fill="#D8D1D1"/>
<path fill-rule="evenodd" clip-rule="evenodd" d="M348.328 481.689C348.373 481.734 348.373 481.823 348.328 481.913V482.047H348.238C347.611 482.853 343.981 484.553 333.988 485.09C323.367 485.627 314.718 484.822 309.162 482.226C301.633 478.646 301.678 475.693 297.376 475.335C292.312 474.887 286.755 473.813 286.755 473.813C285.411 471.889 285.994 466.385 290.654 460.03C290.027 453.094 317.542 468.219 340.665 475.29C342.547 475.424 343.936 475.872 345.012 476.543L348.328 476.856V481.689Z" fill="black"/>
<path fill-rule="evenodd" clip-rule="evenodd" d="M209.902 472.068C205.645 472.829 208.826 478.601 204.569 481.331C200.67 483.792 193.949 485.403 183.552 484.956C171.049 484.419 167.957 483.21 164.686 481.823C164.686 481.823 164.686 481.778 164.686 481.734H164.596L164.686 477.438H166.658C167.464 476.364 168.495 475.513 169.795 475.513C175.262 469.964 181.939 461.82 186.465 446.605C191.753 443.92 197.265 444.278 202.149 446.471C205.689 453.228 206.855 452.154 206.855 452.154C206.855 452.154 209.14 449.737 209.274 446.873C212.411 450.811 212.859 461.149 213.083 469.786C213.128 469.83 212.501 471.62 209.902 472.068Z" fill="black"/>
<path fill-rule="evenodd" clip-rule="evenodd" d="M286.442 469.293C286.442 469.293 291.998 470.367 297.062 470.815C301.364 471.173 301.633 473.992 309.162 477.572C314.718 480.212 323.367 481.018 333.988 480.436C346.804 479.765 349.134 477.124 348.148 476.99C348.148 476.99 348.104 471.083 340.665 470.591C332.33 468.98 317.273 455.018 314.808 444.546C312.567 442.756 305.173 444.323 304.008 446.292C299.661 452.512 295.359 450.274 295.359 450.274C295.359 450.274 290.609 448.708 289.982 443.07C285.277 449.424 285.097 467.414 286.442 469.293Z" fill="#783140"/>
<path fill-rule="evenodd" clip-rule="evenodd" d="M213.218 465.534C213.218 465.534 212.591 467.324 209.991 467.772C205.734 468.533 208.916 474.305 204.659 477.035C200.76 479.496 194.038 481.107 183.642 480.66C171.139 480.123 168.047 478.915 164.776 477.527C164.776 477.527 164.776 471.755 169.929 471.262C175.396 465.713 182.073 457.569 186.599 442.354C190.05 439.758 197.399 440.027 202.284 442.22C205.824 448.977 206.989 447.903 206.989 447.903C206.989 447.903 209.812 445.486 210.305 442.757C212.68 448.261 212.994 456.942 213.218 465.534Z" fill="#783140"/>
<path fill-rule="evenodd" clip-rule="evenodd" d="M282.364 246.886C282.364 246.886 248.485 319.202 238.582 390.265C234.145 422.216 220.254 438.55 220.254 438.55L187.989 438.103L241.315 230.686C288.772 219.544 282.364 246.886 282.364 246.886Z" fill="#783140"/>
<path fill-rule="evenodd" clip-rule="evenodd" d="M204.211 436.223C213.128 436.223 220.343 437.208 220.343 438.371C220.343 439.579 213.128 440.519 204.211 440.519C195.293 440.519 188.078 439.535 188.078 438.371C188.078 437.208 195.293 436.223 204.211 436.223Z" fill="#783140"/>
<path fill-rule="evenodd" clip-rule="evenodd" d="M241.136 212.339C241.136 212.339 255.028 210.862 272.595 210.638C307.728 210.146 320.096 210.817 320.096 210.817V238.697L241.36 231.85L241.136 212.339Z" fill="#783140"/>
<path fill-rule="evenodd" clip-rule="evenodd" d="M318.393 439.311H288.189C288.189 439.311 280.795 421.321 284.604 386.909C290.609 332.224 280.616 245.454 280.616 245.454C280.616 245.454 289.668 233.013 300.513 230.373C309.789 228.091 320.23 230.373 320.23 230.373L318.393 439.311Z" fill="#783140"/>
<path fill-rule="evenodd" clip-rule="evenodd" d="M303.291 437.476C311.626 437.476 318.393 438.281 318.393 439.266C318.393 440.25 311.626 441.056 303.291 441.056C294.956 441.056 288.189 440.25 288.189 439.266C288.189 438.237 294.956 437.476 303.291 437.476Z" fill="#783140"/>
<path fill-rule="evenodd" clip-rule="evenodd" d="M279.675 230.149C301.05 230.149 318.393 233.998 318.393 238.786C318.393 243.53 301.05 247.423 279.675 247.423C258.299 247.423 240.957 243.574 240.957 238.786C240.957 233.998 258.255 230.149 279.675 230.149Z" fill="#783140"/>
<path d="M309.879 218.246C309.879 218.246 310.775 232.611 319.648 242.635" stroke="#571F2B" stroke-width="0.945" stroke-miterlimit="10" stroke-linecap="round" stroke-linejoin="round"/>
<path d="M262.288 215.964C262.288 215.964 262.557 236.235 244.542 242.948" stroke="#571F2B" stroke-width="0.945" stroke-miterlimit="10" stroke-linecap="round" stroke-linejoin="round"/>
<path d="M188.078 438.416L247.5 231.984C247.589 228.091 247.634 218.514 247.634 218.514" stroke="#571F2B" stroke-width="0.945" stroke-miterlimit="10" stroke-linecap="round" stroke-linejoin="round"/>
<path d="M290.071 248.676C290.071 248.676 295.494 332.09 291.953 392.502C290.385 419.531 295.18 440.251 295.18 440.251" stroke="#571F2B" stroke-width="0.945" stroke-miterlimit="10" stroke-linecap="round" stroke-linejoin="round"/>
<path fill-rule="evenodd" clip-rule="evenodd" d="M282.319 262.727L281.064 249.705L298.451 246.304C298.451 246.304 292.088 259.461 282.319 262.727Z" fill="black"/>
<path fill-rule="evenodd" clip-rule="evenodd" d="M320.185 212.026C320.096 218.693 320.096 220.752 320.096 220.752C320.096 220.752 307.862 215.874 276.807 216.411C256.507 216.769 241.853 219.186 241.271 221.871C241.271 221.871 241.047 215.069 241.136 212.384C244.856 205.85 314.718 204.597 320.185 212.026Z" fill="black"/>
<path fill-rule="evenodd" clip-rule="evenodd" d="M282.184 206.924C287.248 206.924 292.267 207.014 296.928 207.282V216.859C292.671 216.545 287.741 216.366 282.184 216.366V206.924Z" fill="#F69028"/>
<path fill-rule="evenodd" clip-rule="evenodd" d="M261.391 177.613C259.868 177.121 258.21 176.852 256.507 176.852C247.589 176.852 240.329 184.057 240.329 192.962C240.329 201.867 247.544 209.072 256.507 209.072C256.731 209.072 256.91 209.072 257.134 209.072H257.851L285.68 210.146L290.923 183.072L261.391 177.613Z" fill="#D8D1D1"/>
<path fill-rule="evenodd" clip-rule="evenodd" d="M271.116 186.16L260.361 150.763C262.646 147.496 263.946 143.513 263.946 139.262C263.946 128.03 254.849 118.946 243.601 118.946C232.353 118.946 223.256 128.03 223.256 139.262C223.256 141.142 223.525 142.976 224.018 144.722H223.883L240.957 197.348C241.091 197.795 241.226 198.198 241.36 198.601C243.646 204.731 249.561 209.117 256.507 209.117C265.424 209.117 272.684 201.912 272.684 193.007C272.639 190.546 272.102 188.219 271.116 186.16Z" fill="#D8D1D1"/>
<path d="M264.528 178.195L290.519 183.565" stroke="#9D9797" stroke-width="0.945" stroke-miterlimit="10" stroke-linecap="round" stroke-linejoin="round"/>
<path d="M262.781 156.133L269.189 179.09" stroke="#9D9797" stroke-width="0.945" stroke-miterlimit="10" stroke-linecap="round" stroke-linejoin="round"/>
<path d="M275.776 209.52C271.384 209.922 268.337 203.702 268.965 195.826C269.592 187.995 273.625 181.327 278.062 180.924" stroke="#9D9797" stroke-width="0.945" stroke-miterlimit="10" stroke-linecap="round" stroke-linejoin="round"/>
<path fill-rule="evenodd" clip-rule="evenodd" d="M289.937 183.162C294.149 182.804 297.107 188.577 296.524 196.139C295.942 203.657 291.998 210.28 287.741 210.638C283.529 210.996 280.616 205.045 281.198 197.482C281.826 189.919 285.725 183.52 289.937 183.162Z" fill="black"/>
<path fill-rule="evenodd" clip-rule="evenodd" d="M356.708 222.766C356.573 222.989 356.394 223.213 356.17 223.347C356.932 224.421 355.408 225.809 347.611 226.435C345.908 226.48 344.384 226.525 343.085 226.569C341.919 226.748 340.665 226.927 339.275 227.151C332.957 228.091 329.462 228.673 326.504 224.466C322.65 218.917 318.393 214.129 318.393 214.129L288.368 208.804C284.739 208.983 282.274 203.926 282.767 197.392C283.305 190.769 286.71 185.131 290.43 184.773C295.583 186.115 320.499 193.678 320.499 193.678C325.339 190.232 331.523 192.425 333.719 191.709C338.603 190.053 338.783 190.053 340.351 188.577C340.665 188.308 340.978 187.995 341.247 187.682C341.382 187.503 341.516 187.368 341.651 187.189C341.785 187.055 341.919 186.831 341.964 186.787L342.681 186.16C343.533 185.444 344.743 185.623 345.325 186.518C345.684 187.1 345.773 187.861 345.504 188.532C345.37 188.935 345.28 189.203 345.146 189.472C345.011 189.74 344.922 190.053 344.787 190.322C344.519 190.859 344.25 191.396 343.936 191.933C343.353 192.962 342.636 193.947 341.875 194.886C341.113 195.826 340.261 196.676 339.365 197.437L338.648 198.019L338.021 198.511C337.797 198.69 337.573 198.869 337.349 199.003C336.99 199.451 333.36 201.644 337.931 207.148C337.976 207.193 338.021 207.237 338.066 207.282C339.096 208.222 340.172 209.162 341.292 210.057C343.533 211.847 345.863 213.547 348.283 215.158C350.703 216.769 353.212 218.291 355.722 219.723L355.766 219.767C356.259 220.036 356.618 220.483 356.797 221.02C357.917 221.692 358.007 222.318 356.708 222.766Z" fill="#E5936F"/>
<path d="M340.127 226.704C338.066 226.48 335.914 225.988 334.794 225.495C332.643 224.511 330.492 223.482 328.341 222.363" stroke="black" stroke-width="0.945" stroke-miterlimit="10" stroke-linecap="round" stroke-linejoin="round"/>
<path d="M356.483 223.347C356.528 224.645 355.005 225.048 354.377 225.048C352.585 225.316 352.002 225.182 350.747 225.093C342.233 223.84 335.422 220.483 335.422 220.483L329.551 217.217" stroke="black" stroke-width="0.945" stroke-miterlimit="10" stroke-linecap="round" stroke-linejoin="round"/>
<path d="M356.304 219.767C358.455 221.647 356.483 224.421 354.467 223.392C352.137 222.184 350.21 221.602 346.759 220.08C346.759 220.08 339.41 216.5 331.12 211.354" stroke="black" stroke-width="0.945" stroke-miterlimit="10" stroke-linecap="round" stroke-linejoin="round"/>
<path fill-rule="evenodd" clip-rule="evenodd" d="M351.509 199.63C352.047 200.525 353.167 200.838 354.064 200.391L354.109 200.346C356.349 199.227 358.724 198.198 361.099 197.258C363.474 196.318 365.894 195.468 368.269 194.752C369.21 194.484 370.151 194.215 371.092 193.991L370.42 194.305C369.838 194.573 369.21 194.886 368.628 195.2C366.208 196.453 363.922 197.974 361.861 199.764C360.83 200.659 359.845 201.644 358.948 202.673C358.5 203.21 358.052 203.747 357.649 204.329C357.469 204.642 357.245 204.91 357.066 205.224C356.976 205.358 356.887 205.537 356.797 205.716C356.708 205.895 356.618 206.029 356.484 206.253C355.991 207.237 356.394 208.401 357.335 208.893C358.231 209.341 359.262 209.072 359.845 208.267L359.979 208.043L360.158 207.774C360.248 207.685 360.293 207.551 360.382 207.461C360.562 207.237 360.741 207.014 360.92 206.835C361.279 206.432 361.682 205.984 362.085 205.582C362.892 204.776 363.788 204.015 364.729 203.344C366.611 202.002 368.673 200.883 370.868 199.988L370.062 200.525L368.717 201.42L367.418 202.404C366.97 202.762 366.566 203.12 366.163 203.523C365.356 204.329 364.505 205.268 363.922 206.611C363.788 206.924 363.654 207.327 363.564 207.685C363.519 208.088 363.429 208.49 363.474 208.938C363.474 209.385 363.564 209.833 363.743 210.28C363.833 210.504 363.922 210.728 364.012 210.907C364.146 211.131 364.236 211.265 364.55 211.623C365.267 212.428 366.522 212.473 367.328 211.757C368.135 211.041 368.18 209.788 367.463 208.983C367.597 209.162 367.552 209.072 367.597 209.072C367.597 209.072 367.597 209.072 367.597 209.027C367.597 208.983 367.597 208.983 367.642 208.938C367.642 208.893 367.687 208.848 367.731 208.759C367.821 208.669 367.821 208.58 367.911 208.49C368.18 208.088 368.717 207.595 369.345 207.148C369.658 206.924 370.017 206.7 370.375 206.477L371.496 205.85L372.706 205.268L374.005 204.687C374.229 204.597 374.453 204.508 374.677 204.418C374.498 204.597 374.319 204.776 374.14 205.045C373.96 205.313 373.781 205.537 373.602 205.805C373.423 206.074 373.243 206.387 373.109 206.7C372.975 207.058 372.84 207.372 372.706 207.73C372.616 208.132 372.526 208.49 372.526 208.938C372.482 209.788 372.75 210.549 373.109 211.175C373.467 211.802 373.96 212.249 374.453 212.607C374.677 212.786 374.946 212.965 375.215 213.1C375.484 213.234 375.708 213.368 376.067 213.502C377.008 213.86 378.128 213.413 378.576 212.428C378.89 211.757 378.8 211.041 378.397 210.549L377.77 209.878C377.77 209.878 377.59 209.743 377.501 209.699C377.411 209.609 377.277 209.52 377.187 209.43C377.008 209.251 376.873 209.072 376.873 208.983C376.873 208.848 376.828 208.804 376.873 208.759C376.873 208.759 376.918 208.669 376.918 208.625C376.963 208.58 377.008 208.49 377.053 208.401C377.277 208.043 377.77 207.595 378.397 207.058C379.024 206.521 379.696 206.029 380.413 205.537C381.758 204.597 385.701 202.807 387.404 201.867C387.449 201.867 387.494 201.823 387.539 201.823C390.989 200.301 393.499 196.318 393.499 191.575C393.499 188.174 392.244 185.176 390.227 183.162C389.645 182.491 389.107 182.088 388.569 181.685C387.539 180.924 386.553 180.432 385.612 180.029C384.671 179.627 383.73 179.269 382.789 178.955C382.34 178.821 381.847 178.687 381.399 178.553L380.682 178.374L380.324 178.284C380.234 178.284 380.234 178.284 380.189 178.284C380.145 178.284 380.1 178.284 380.055 178.284L379.831 178.239C379.696 178.195 379.517 178.15 379.383 178.06C379.069 177.926 378.711 177.747 378.352 177.613C377.635 177.255 376.918 176.852 376.201 176.449C374.767 175.599 373.288 174.704 371.899 173.764H371.854C370.958 173.183 369.703 173.406 369.121 174.346C368.628 175.107 368.717 176.091 369.3 176.763C370.465 178.105 371.675 179.403 372.93 180.701C373.557 181.327 374.229 181.998 374.946 182.625C375.305 182.938 375.663 183.251 376.067 183.565C376.156 183.654 376.291 183.744 376.38 183.833C376.739 184.549 377.187 186.294 373.602 187.592C372.571 187.861 371.541 188.129 370.51 188.442C369.21 188.845 367.911 189.337 366.656 189.83C364.147 190.814 361.682 191.978 359.307 193.186C356.932 194.394 354.601 195.647 352.271 197.079C351.24 197.527 350.927 198.735 351.509 199.63Z" fill="#B15152"/>
<path d="M376.111 183.609C377.725 185.713 378.711 191.709 383.685 191.754" stroke="black" stroke-width="0.945" stroke-miterlimit="10" stroke-linecap="round" stroke-linejoin="round"/>
<path d="M370.375 192.828C370.375 192.828 370.107 200.614 377.501 203.702" stroke="black" stroke-width="0.945" stroke-miterlimit="10" stroke-linecap="round" stroke-linejoin="round"/>
<path fill-rule="evenodd" clip-rule="evenodd" d="M443.196 210.638C443.196 216.724 438.221 221.692 432.127 221.692C430.559 221.692 429.035 221.334 427.691 220.752V220.797L400.176 207.551L405.777 187.1L435.936 200.212L435.891 200.301C440.104 201.778 443.196 205.85 443.196 210.638Z" fill="#D8D1D1"/>
<path fill-rule="evenodd" clip-rule="evenodd" d="M431.858 214.397C431.769 217.485 429.125 219.096 425.495 219.723L408.376 211.489C416.039 206.432 417.877 197.75 418.235 192.515L428.856 197.124C431.5 202.002 432.037 207.998 431.858 214.397Z" fill="black"/>
<path fill-rule="evenodd" clip-rule="evenodd" d="M403.85 186.831C408.018 186.831 411.065 191.53 410.617 197.303C410.169 203.12 406.405 207.774 402.237 207.774C398.069 207.774 395.022 203.076 395.47 197.303C395.918 191.53 399.683 186.831 403.85 186.831Z" fill="black"/>
<path fill-rule="evenodd" clip-rule="evenodd" d="M409.586 197.303C409.183 202.315 405.957 206.342 402.327 206.342C401.565 206.342 400.758 206.432 400.086 206.119L385.074 198.69L386.194 181.461L403.806 188.219C407.391 188.263 409.99 192.336 409.586 197.303Z" fill="#B15152"/>
<path fill-rule="evenodd" clip-rule="evenodd" d="M428.228 327.928L432.934 354.375C432.934 354.375 435.846 419.486 436.07 430.763C436.205 437.342 437.729 449.29 432.71 457.032C425.36 468.309 406.494 476.095 406.494 476.095C406.494 476.095 422.358 476.677 440.776 472.694C443.375 472.113 460.852 481.51 457.267 461.462C453.503 450.767 459.463 395.366 460.897 382.075C463.137 360.909 452.741 342.114 448.349 331.284C443.151 318.351 428.228 327.928 428.228 327.928Z" fill="#B15152"/>
<path fill-rule="evenodd" clip-rule="evenodd" d="M460.941 382.075C460.493 386.192 459.642 394.382 458.746 404.003C447.453 400.378 439.745 395.098 434.457 389.28C433.695 371.246 432.934 354.375 432.934 354.375L432.127 349.9C440.462 347.17 447.901 345.783 454.444 345.47C458.522 355.673 462.375 368.382 460.941 382.075Z" fill="black"/>
<path fill-rule="evenodd" clip-rule="evenodd" d="M459.149 480.928C459.149 480.928 455.205 482.718 448.125 482.45C438.804 482.092 431.948 485.269 416.443 484.956C406.718 484.777 396.098 483.255 396.098 483.255C396.098 483.255 393.812 478.915 402.64 478.02C410.393 477.259 415.457 473.813 415.457 473.813C415.457 473.813 421.372 478.646 448.125 470.412C455.788 468.04 451.576 468.398 451.576 468.398C451.576 468.398 461.165 473.052 459.149 480.928Z" fill="black"/>
<path fill-rule="evenodd" clip-rule="evenodd" d="M459.149 477.124C459.149 477.124 455.206 479.004 448.125 478.914C438.804 478.825 431.948 482.137 416.443 482.181C406.718 482.226 396.098 480.973 396.098 480.973C396.098 480.973 395.246 476.453 404.075 475.379C410.841 474.574 415.771 471.397 415.771 471.397C415.771 471.397 421.283 475.692 448.08 466.787C455.743 464.236 456.729 459.001 456.729 459.001C456.729 459.001 461.166 469.204 459.149 477.124Z" fill="#783140"/>
<path fill-rule="evenodd" clip-rule="evenodd" d="M506.157 429.734L510.549 431.882C510.549 431.882 512.207 435.06 511.669 441.369C510.415 456.226 517.36 469.159 508.084 474.842C497.15 481.6 487.739 485.18 487.739 485.18C487.739 485.18 485.723 483.121 486.933 481.421C491.817 474.35 498.046 453.049 497.733 454.615L506.157 429.734Z" fill="black"/>
<path fill-rule="evenodd" clip-rule="evenodd" d="M488.994 421.366L506.157 429.734C506.157 429.734 508.039 432.912 507.86 439.221C507.546 454.078 515.254 467.011 506.336 472.694C495.805 479.452 486.619 483.032 486.619 483.032C486.619 483.032 485.364 480.705 486.44 478.959C490.876 471.889 494.909 450.856 494.685 452.467L488.994 421.366Z" fill="#783140"/>
<path fill-rule="evenodd" clip-rule="evenodd" d="M409.989 346.186C409.989 346.186 435.264 375.989 458.387 402.123C472.368 417.92 484.513 441.28 490.742 460.433C490.831 468.353 490.338 469.562 490.338 469.562C490.338 469.562 491.414 469.025 494.775 466.877C501.183 462.804 503.289 461.865 502.975 446.739C502.751 434.657 495.94 424.991 495.94 424.991C495.94 425.035 493.834 421.903 489.128 412.819C482.989 400.96 478.239 371.112 443.106 347.618C428.945 338.086 409.989 346.186 409.989 346.186Z" fill="#B15152"/>
<path fill-rule="evenodd" clip-rule="evenodd" d="M418.773 356.479C415.994 353.212 413.754 350.572 412.23 348.782C412.544 347.215 413.126 345.918 413.978 344.799C420.296 343.009 432.933 340.727 443.106 347.573C447.811 350.706 451.934 353.973 455.609 357.284C448.125 363.281 428.99 359.253 418.773 356.479Z" fill="black"/>
<path fill-rule="evenodd" clip-rule="evenodd" d="M415.815 225.54L418.683 251.45L406.136 350.348C406.136 350.348 409.049 352.764 432.799 353.391C451.396 353.883 456.191 351.019 456.236 351.019C456.236 351.019 455.519 347.842 457.222 332.94C458.88 318.038 475.326 270.111 471.741 253.822C467.529 234.624 445.884 207.774 445.884 207.774L415.815 225.54Z" fill="#1053F3"/>
<path d="M442.568 222.676C442.255 222.497 456.729 244.246 452.83 264.473C448.484 287.071 435.578 353.167 435.578 353.167" stroke="#555EC2" stroke-width="0.945" stroke-miterlimit="10" stroke-linecap="round" stroke-linejoin="round"/>
<path fill-rule="evenodd" clip-rule="evenodd" d="M480.838 169.871C470.397 190.769 458.298 217.888 458.298 217.888L459.104 226.659C459.104 226.659 459.104 226.659 459.059 226.659C458.835 225.898 449.201 225.272 437.325 225.272C425.988 225.272 416.801 224.824 415.815 225.54L420.61 187.368C420.61 187.368 415.457 179.134 417.473 173.585C419.983 170.319 424.464 165.083 428.99 159.981C428.945 159.534 428.901 159.042 428.901 158.594C428.901 151.121 434.95 145.08 442.434 145.08C443.241 145.08 444.047 145.169 444.854 145.303L474.609 145.035C474.609 145.035 474.654 145.08 474.789 145.124C481.6 145.84 486.933 151.568 486.933 158.549C486.888 163.293 484.468 167.455 480.838 169.871Z" fill="#D8D1D1"/>
<path fill-rule="evenodd" clip-rule="evenodd" d="M431.096 174.078L465.019 148.436L436.922 153.493C436.922 153.493 434.457 156.267 432.889 161.95C430.693 170.05 431.096 174.078 431.096 174.078Z" fill="#1053F3"/>
<path fill-rule="evenodd" clip-rule="evenodd" d="M472.324 237.936C477.522 239.547 481.555 241.874 481.107 243.082C480.39 245.006 471.831 244.424 466.633 242.813C461.434 241.202 461.838 238.428 462.196 237.22C462.555 236.011 467.081 236.325 472.324 237.936Z" fill="black"/>
<path fill-rule="evenodd" clip-rule="evenodd" d="M461.972 238.473L454.175 256.552C454.175 256.552 449.873 260.848 438.132 270.648C439.566 278.032 447.363 273.02 447.363 273.02C447.363 273.02 457.132 272.08 459.732 271.185C463.317 269.977 467.081 265.681 468.828 261.609C470.755 257.044 478.911 243.306 478.911 243.306C478.911 243.306 467.215 238.607 461.972 238.473Z" fill="#B15152"/>
<path fill-rule="evenodd" clip-rule="evenodd" d="M471.069 238.876C475.774 240.173 479.315 242.098 479.001 243.216C478.687 244.29 474.654 244.156 469.949 242.858C465.243 241.561 461.658 239.592 461.972 238.518C462.286 237.399 466.364 237.578 471.069 238.876Z" fill="#B15152"/>
<path fill-rule="evenodd" clip-rule="evenodd" d="M454.847 268.903L444.271 273.154L444.002 273.423C443.913 273.512 443.868 273.557 443.778 273.646C443.644 273.825 443.509 273.96 443.375 274.183C443.106 274.541 442.927 274.944 442.748 275.347C442.568 275.75 442.479 276.197 442.389 276.689L442.344 276.868V277.137L442.3 277.674L442.21 278.748L440.776 291.949C440.686 293.202 439.611 294.231 438.446 294.187C437.325 294.187 436.519 293.247 436.474 292.128L437.012 278.927L436.967 277.898V277.361V277.092V276.734C436.967 275.794 437.101 274.81 437.37 273.87C437.594 272.93 437.953 271.991 438.446 271.14C438.67 270.693 438.939 270.29 439.207 269.887C439.342 269.664 439.476 269.485 439.656 269.306L440.059 268.769L456.012 257.939C464.213 253.733 458.208 259.729 454.847 268.903Z" fill="#B15152"/>
<path d="M430.424 291.681L433.471 278.345L433.74 277.316L433.875 276.779L433.92 276.51L434.009 276.152C434.278 275.213 434.681 274.318 435.174 273.423C435.667 272.572 436.295 271.722 436.967 271.006C437.325 270.648 437.684 270.29 438.087 269.977C438.266 269.798 438.49 269.664 438.67 269.485L439.252 269.082L460.269 254.18C463.899 251.629 468.604 260.132 462.734 267.829L442.299 274.541L441.941 274.72C441.851 274.765 441.762 274.855 441.672 274.899C441.493 275.034 441.314 275.168 441.134 275.302C440.776 275.615 440.462 275.929 440.193 276.331C439.924 276.689 439.656 277.137 439.476 277.54L439.387 277.719L439.297 277.987L439.118 278.479L438.759 279.509L434.816 292.62C434.368 293.829 433.068 294.589 431.903 294.231C430.693 293.918 430.11 292.799 430.424 291.681Z" fill="#B15152"/>
<path fill-rule="evenodd" clip-rule="evenodd" d="M455.071 264.249L445.884 271.006L445.705 271.319C445.66 271.409 445.616 271.498 445.571 271.588C445.481 271.767 445.392 271.99 445.302 272.169C445.167 272.572 445.033 273.02 444.988 273.467C444.943 273.915 444.943 274.362 444.988 274.854L445.033 275.033L445.078 275.302L445.167 275.839L445.347 276.868L447.094 286.4C447.318 287.653 446.557 288.906 445.392 289.174C444.316 289.443 443.285 288.772 442.972 287.653L440.373 278.39L440.059 277.45L439.924 276.958L439.835 276.689L439.745 276.376C439.521 275.436 439.387 274.496 439.387 273.512C439.387 272.527 439.476 271.543 439.7 270.603C439.835 270.111 439.969 269.663 440.104 269.171C440.193 268.947 440.283 268.724 440.373 268.5L440.641 267.873L453.906 259.684C460.807 253.509 455.967 254.493 455.071 264.249Z" fill="#B15152"/>
<path d="M430.424 291.681L433.471 278.345L433.74 277.316L433.875 276.779L433.92 276.51L434.009 276.152C434.278 275.213 434.681 274.318 435.174 273.423C435.667 272.572 436.295 271.722 436.967 271.006C437.325 270.648 437.684 270.29 438.087 269.977C438.266 269.798 438.49 269.664 438.67 269.485L439.252 269.082L460.269 254.18C463.899 251.629 468.604 260.132 462.734 267.829L442.299 274.541L441.941 274.72C441.851 274.765 441.762 274.855 441.672 274.899C441.493 275.034 441.314 275.168 441.134 275.302C440.776 275.615 440.462 275.929 440.193 276.331C439.924 276.689 439.656 277.137 439.476 277.54L439.387 277.719L439.297 277.987L439.118 278.479L438.759 279.509L434.816 292.62C434.368 293.829 433.068 294.589 431.903 294.231C430.693 293.918 430.11 292.799 430.424 291.681Z" fill="#B15152"/>
<path d="M463.451 268.992C463.451 268.992 461.703 271.185 458.208 271.767C445.929 273.915 445.167 273.512 444.988 275.884C444.988 275.66 445.302 276.913 445.302 276.913L447.05 286.445C447.274 287.698 446.512 288.951 445.347 289.219C444.271 289.488 443.241 288.817 442.927 287.698L440.328 278.435C440.328 278.435 438.311 272.886 439.969 270.245C442.031 266.934 448.618 261.967 448.618 261.967" stroke="black" stroke-width="0.945" stroke-miterlimit="10" stroke-linecap="round" stroke-linejoin="round"/>
<path d="M441.627 284.163C441.224 287.787 440.776 291.904 440.776 291.904C440.686 293.157 439.611 294.187 438.446 294.142C437.325 294.142 436.519 293.202 436.474 292.083L437.012 278.882C437.012 278.882 436.922 275.75 437.594 273.154C437.908 271.946 439.835 269.619 440.014 269.485C440.373 269.127 446.019 264.159 448.304 262.19" stroke="black" stroke-width="0.945" stroke-miterlimit="10" stroke-linecap="round" stroke-linejoin="round"/>
<path fill-rule="evenodd" clip-rule="evenodd" d="M494.596 210.683L481.107 243.082C481.421 241.874 477.522 239.591 472.324 237.98C467.35 236.414 463.003 236.056 462.286 237.085L474.116 207.103C474.116 206.969 474.116 206.834 474.116 206.655C474.116 200.748 478.911 196.005 484.782 196.005C490.697 196.005 495.447 200.793 495.447 206.655C495.402 208.043 495.133 209.43 494.596 210.683Z" fill="#D8D1D1"/>
<path fill-rule="evenodd" clip-rule="evenodd" d="M495.402 206.611C495.402 212.518 490.607 217.261 484.737 217.261C478.822 217.261 474.072 212.473 474.072 206.611L467.798 170.945C463.093 168.842 459.821 164.098 459.821 158.639C459.821 151.166 465.871 145.124 473.355 145.124C479.763 145.124 485.14 149.599 486.529 155.596H486.574L495.313 205.045H495.268C495.357 205.537 495.402 206.074 495.402 206.611Z" fill="#D8D1D1"/>
<path d="M468.111 172.78C470.083 183.967 474.116 206.969 474.116 206.969" stroke="#9D9797" stroke-width="0.945" stroke-miterlimit="10" stroke-linecap="round" stroke-linejoin="round"/>
<path fill-rule="evenodd" clip-rule="evenodd" d="M452.651 154.477C444.406 157.028 437.146 157.251 436.474 155.059C436.026 153.627 438.49 151.479 442.524 149.465L437.101 127.985L452.741 118.99L465.647 145.035C466.05 145.258 466.319 145.572 466.453 145.885C467.036 148.122 460.897 151.971 452.651 154.477Z" fill="#B15152"/>
<path fill-rule="evenodd" clip-rule="evenodd" d="M453.368 121.854C453.368 121.854 451.844 138.143 441.089 143.916L437.415 129.238C441.045 125.971 446.332 123.152 453.368 121.854Z" fill="black"/>
<path fill-rule="evenodd" clip-rule="evenodd" d="M452.606 125.658C436.07 143.603 427.735 140.739 425.808 128.164C424.822 125.882 424.24 124.495 423.299 122.212C423.254 121.004 423.299 119.751 423.344 118.543C423.12 118.498 422.94 118.453 422.716 118.364C419.445 117.29 418.997 115.231 419.535 114.113C419.938 113.307 421.865 113.397 424.061 112.591C424.464 108.832 423.702 100.195 426.525 94.9595C440.776 85.5173 452.248 100.24 449.469 108.832C451.576 107.848 457.222 105.252 459.911 111.696C461.793 116.216 458.566 124.137 452.606 125.658Z" fill="#B15152"/>
<path fill-rule="evenodd" clip-rule="evenodd" d="M425.405 127.269C424.822 125.882 424.329 124.763 423.747 123.376L429.483 122.749C429.528 122.704 429.438 126.016 425.405 127.269Z" fill="#F8F7F8"/>
<path d="M450.59 113.62C452.696 114.023 453.368 117.513 450.321 118.364" stroke="black" stroke-width="0.945" stroke-miterlimit="10" stroke-linecap="round" stroke-linejoin="round"/>
<path d="M452.741 112.546C452.741 112.546 450.142 113.083 448.259 116.216" stroke="black" stroke-width="0.945" stroke-miterlimit="10" stroke-linecap="round" stroke-linejoin="round"/>
<path d="M426.705 103.507C426.705 103.507 430.2 103.104 433.561 105.789" stroke="black" stroke-width="0.945" stroke-miterlimit="10" stroke-linecap="round" stroke-linejoin="round"/>
<path d="M427.646 108.161L430.155 109.906" stroke="black" stroke-width="0.945" stroke-miterlimit="10" stroke-linecap="round" stroke-linejoin="round"/>
<path fill-rule="evenodd" clip-rule="evenodd" d="M429.617 109.1C430.29 109.1 430.872 109.995 430.917 111.114C430.962 112.233 430.469 113.173 429.797 113.217C429.124 113.217 428.542 112.322 428.497 111.204C428.452 110.04 428.945 109.1 429.617 109.1Z" fill="black"/>
<path fill-rule="evenodd" clip-rule="evenodd" d="M462.33 162.666C462.33 162.666 487.246 150.629 463.272 136.801C460.717 135.324 458.118 133.579 455.922 131.744C450.276 127.448 449.649 123.376 450.097 120.915C454.712 122.66 457.536 113.486 454.13 110.891C451.665 109.011 448.349 111.786 446.153 114.336C445.884 97.3313 440.596 95.8545 432.709 95.5413C427.69 95.3623 427.556 95.4965 426.212 95.4518C426.212 95.4518 427.511 87.9785 440.193 84.13C460 78.1335 474.206 92.2298 468.828 109.548C468.38 110.935 467.932 112.233 467.439 113.531C466.319 117.111 462.241 132.236 470.71 138.457C507.77 165.665 475.819 172.243 462.33 162.666Z" fill="black"/>
</g>
<defs>
<clipPath id="clip0_12_1454">
<rect width="717" height="537" fill="white"/>
</clipPath>
</defs>
</svg>
